solid OpenSCAD_Model
  facet normal 0 0 -1
    outer loop
      vertex 4.5 175.5 0
      vertex 55.5 184.5 0
      vertex 55.5 175.5 0
    endloop
  endfacet
  facet normal -0 0 -1
    outer loop
      vertex 55.5 184.5 0
      vertex 4.5 175.5 0
      vertex 4.5 184.5 0
    endloop
  endfacet
  facet normal 0 0 -1
    outer loop
      vertex 4.5 115.5 0
      vertex 55.5 124.5 0
      vertex 55.5 115.5 0
    endloop
  endfacet
  facet normal -0 0 -1
    outer loop
      vertex 55.5 124.5 0
      vertex 4.5 115.5 0
      vertex 4.5 124.5 0
    endloop
  endfacet
  facet normal 0 0 -1
    outer loop
      vertex 4.5 55.5 0
      vertex 55.5 64.5 0
      vertex 55.5 55.5 0
    endloop
  endfacet
  facet normal -0 0 -1
    outer loop
      vertex 55.5 64.5 0
      vertex 4.5 55.5 0
      vertex 4.5 64.5 0
    endloop
  endfacet
  facet normal 0 0 -1
    outer loop
      vertex 64.5 175.5 0
      vertex 115.5 184.5 0
      vertex 115.5 175.5 0
    endloop
  endfacet
  facet normal -0 0 -1
    outer loop
      vertex 115.5 184.5 0
      vertex 64.5 175.5 0
      vertex 64.5 184.5 0
    endloop
  endfacet
  facet normal 0 0 -1
    outer loop
      vertex 64.5 115.5 0
      vertex 115.5 124.5 0
      vertex 115.5 115.5 0
    endloop
  endfacet
  facet normal -0 0 -1
    outer loop
      vertex 115.5 124.5 0
      vertex 64.5 115.5 0
      vertex 64.5 124.5 0
    endloop
  endfacet
  facet normal 0 0 -1
    outer loop
      vertex 64.5 55.5 0
      vertex 115.5 64.5 0
      vertex 115.5 55.5 0
    endloop
  endfacet
  facet normal -0 0 -1
    outer loop
      vertex 115.5 64.5 0
      vertex 64.5 55.5 0
      vertex 64.5 64.5 0
    endloop
  endfacet
  facet normal 0 0 -1
    outer loop
      vertex 115.5 55.5 0
      vertex 116.5 3.5 0
      vertex 115.5 4.5 0
    endloop
  endfacet
  facet normal 0 0 -1
    outer loop
      vertex 116.5 3.5 0
      vertex 64.5 4.5 0
      vertex 115.5 4.5 0
    endloop
  endfacet
  facet normal 0 0 -1
    outer loop
      vertex 55.5 55.5 0
      vertex 64.5 55.5 0
      vertex 64.5 4.5 0
    endloop
  endfacet
  facet normal 0 0 -1
    outer loop
      vertex 64.5 55.5 0
      vertex 55.5 55.5 0
      vertex 64.5 64.5 0
    endloop
  endfacet
  facet normal 0 0 -1
    outer loop
      vertex 64.5 64.5 0
      vertex 55.5 64.5 0
      vertex 64.5 115.5 0
    endloop
  endfacet
  facet normal 0 0 -1
    outer loop
      vertex 55.5 115.5 0
      vertex 64.5 115.5 0
      vertex 55.5 64.5 0
    endloop
  endfacet
  facet normal 0 0 -1
    outer loop
      vertex 55.5 124.5 0
      vertex 64.5 124.5 0
      vertex 55.5 115.5 0
    endloop
  endfacet
  facet normal 0 0 -1
    outer loop
      vertex 64.5 124.5 0
      vertex 55.5 124.5 0
      vertex 64.5 175.5 0
    endloop
  endfacet
  facet normal 0 0 -1
    outer loop
      vertex 55.5 55.5 0
      vertex 64.5 4.5 0
      vertex 55.5 4.5 0
    endloop
  endfacet
  facet normal 0 0 -1
    outer loop
      vertex 116.5 3.5 0
      vertex 55.5 4.5 0
      vertex 64.5 4.5 0
    endloop
  endfacet
  facet normal 0 0 -1
    outer loop
      vertex 3.5 3.5 0
      vertex 55.5 4.5 0
      vertex 116.5 3.5 0
    endloop
  endfacet
  facet normal 0 0 -1
    outer loop
      vertex 3.5 3.5 0
      vertex 4.5 55.5 0
      vertex 4.5 4.5 0
    endloop
  endfacet
  facet normal -0 0 -1
    outer loop
      vertex 4.5 55.5 0
      vertex 3.5 3.5 0
      vertex 4.5 64.5 0
    endloop
  endfacet
  facet normal -0 0 -1
    outer loop
      vertex 4.5 64.5 0
      vertex 3.5 3.5 0
      vertex 4.5 115.5 0
    endloop
  endfacet
  facet normal -0 0 -1
    outer loop
      vertex 4.5 115.5 0
      vertex 3.5 3.5 0
      vertex 4.5 124.5 0
    endloop
  endfacet
  facet normal -0 0 -1
    outer loop
      vertex 4.5 124.5 0
      vertex 3.5 3.5 0
      vertex 4.5 175.5 0
    endloop
  endfacet
  facet normal 0 0 -1
    outer loop
      vertex 3.5 236.5 0
      vertex 4.5 175.5 0
      vertex 3.5 3.5 0
    endloop
  endfacet
  facet normal 0 0 -1
    outer loop
      vertex 4.5 175.5 0
      vertex 3.5 236.5 0
      vertex 4.5 184.5 0
    endloop
  endfacet
  facet normal -0 0 -1
    outer loop
      vertex 55.5 4.5 0
      vertex 3.5 3.5 0
      vertex 4.5 4.5 0
    endloop
  endfacet
  facet normal 0 0 -1
    outer loop
      vertex 115.5 64.5 0
      vertex 116.5 3.5 0
      vertex 115.5 55.5 0
    endloop
  endfacet
  facet normal 0 0 -1
    outer loop
      vertex 116.5 3.5 0
      vertex 115.5 64.5 0
      vertex 116.5 236.5 0
    endloop
  endfacet
  facet normal 0 0 -1
    outer loop
      vertex 115.5 115.5 0
      vertex 116.5 236.5 0
      vertex 115.5 64.5 0
    endloop
  endfacet
  facet normal 0 0 -1
    outer loop
      vertex 115.5 124.5 0
      vertex 116.5 236.5 0
      vertex 115.5 115.5 0
    endloop
  endfacet
  facet normal 0 0 -1
    outer loop
      vertex 115.5 175.5 0
      vertex 116.5 236.5 0
      vertex 115.5 124.5 0
    endloop
  endfacet
  facet normal 0 0 -1
    outer loop
      vertex 115.5 184.5 0
      vertex 116.5 236.5 0
      vertex 115.5 175.5 0
    endloop
  endfacet
  facet normal 0 0 -1
    outer loop
      vertex 115.5 235.5 0
      vertex 116.5 236.5 0
      vertex 115.5 184.5 0
    endloop
  endfacet
  facet normal 0 0 -1
    outer loop
      vertex 64.5 235.5 0
      vertex 116.5 236.5 0
      vertex 115.5 235.5 0
    endloop
  endfacet
  facet normal -0 0 -1
    outer loop
      vertex 64.5 64.5 0
      vertex 55.5 55.5 0
      vertex 55.5 64.5 0
    endloop
  endfacet
  facet normal 0 0 -1
    outer loop
      vertex 64.5 115.5 0
      vertex 55.5 115.5 0
      vertex 64.5 124.5 0
    endloop
  endfacet
  facet normal 0 0 -1
    outer loop
      vertex 55.5 175.5 0
      vertex 64.5 175.5 0
      vertex 55.5 124.5 0
    endloop
  endfacet
  facet normal 0 0 -1
    outer loop
      vertex 64.5 175.5 0
      vertex 55.5 175.5 0
      vertex 64.5 184.5 0
    endloop
  endfacet
  facet normal 0 0 -1
    outer loop
      vertex 55.5 184.5 0
      vertex 64.5 184.5 0
      vertex 55.5 175.5 0
    endloop
  endfacet
  facet normal 0 0 -1
    outer loop
      vertex 64.5 184.5 0
      vertex 55.5 184.5 0
      vertex 64.5 235.5 0
    endloop
  endfacet
  facet normal 0 0 -1
    outer loop
      vertex 55.5 235.5 0
      vertex 64.5 235.5 0
      vertex 55.5 184.5 0
    endloop
  endfacet
  facet normal 0 0 -1
    outer loop
      vertex 55.5 235.5 0
      vertex 116.5 236.5 0
      vertex 64.5 235.5 0
    endloop
  endfacet
  facet normal 0 0 -1
    outer loop
      vertex 3.5 236.5 0
      vertex 55.5 235.5 0
      vertex 4.5 235.5 0
    endloop
  endfacet
  facet normal 0 0 -1
    outer loop
      vertex 55.5 235.5 0
      vertex 3.5 236.5 0
      vertex 116.5 236.5 0
    endloop
  endfacet
  facet normal 0 0 -1
    outer loop
      vertex 4.5 184.5 0
      vertex 3.5 236.5 0
      vertex 4.5 235.5 0
    endloop
  endfacet
  facet normal -0 0 1
    outer loop
      vertex 1 61 7
      vertex 59 59 7
      vertex 59 61 7
    endloop
  endfacet
  facet normal 0 0 1
    outer loop
      vertex 59 59 7
      vertex 1 61 7
      vertex 1 59 7
    endloop
  endfacet
  facet normal -0 0 1
    outer loop
      vertex 1 121 7
      vertex 59 119 7
      vertex 59 121 7
    endloop
  endfacet
  facet normal 0 0 1
    outer loop
      vertex 59 119 7
      vertex 1 121 7
      vertex 1 119 7
    endloop
  endfacet
  facet normal -0 0 1
    outer loop
      vertex 1 181 7
      vertex 59 179 7
      vertex 59 181 7
    endloop
  endfacet
  facet normal 0 0 1
    outer loop
      vertex 59 179 7
      vertex 1 181 7
      vertex 1 179 7
    endloop
  endfacet
  facet normal -0 0 1
    outer loop
      vertex 61 61 7
      vertex 119 59 7
      vertex 119 61 7
    endloop
  endfacet
  facet normal 0 0 1
    outer loop
      vertex 119 59 7
      vertex 61 61 7
      vertex 61 59 7
    endloop
  endfacet
  facet normal -0 0 1
    outer loop
      vertex 61 121 7
      vertex 119 119 7
      vertex 119 121 7
    endloop
  endfacet
  facet normal 0 0 1
    outer loop
      vertex 119 119 7
      vertex 61 121 7
      vertex 61 119 7
    endloop
  endfacet
  facet normal -0 0 1
    outer loop
      vertex 61 181 7
      vertex 119 179 7
      vertex 119 181 7
    endloop
  endfacet
  facet normal 0 0 1
    outer loop
      vertex 119 179 7
      vertex 61 181 7
      vertex 61 179 7
    endloop
  endfacet
  facet normal 0 0 1
    outer loop
      vertex 119 181 7
      vertex 120 240 7
      vertex 119 239 7
    endloop
  endfacet
  facet normal 0 0 1
    outer loop
      vertex 120 240 7
      vertex 61 239 7
      vertex 119 239 7
    endloop
  endfacet
  facet normal 0 0 1
    outer loop
      vertex 59 181 7
      vertex 61 181 7
      vertex 61 239 7
    endloop
  endfacet
  facet normal 0 0 1
    outer loop
      vertex 61 181 7
      vertex 59 181 7
      vertex 61 179 7
    endloop
  endfacet
  facet normal 0 0 1
    outer loop
      vertex 61 179 7
      vertex 59 179 7
      vertex 61 121 7
    endloop
  endfacet
  facet normal 0 0 1
    outer loop
      vertex 59 121 7
      vertex 61 121 7
      vertex 59 179 7
    endloop
  endfacet
  facet normal 0 0 1
    outer loop
      vertex 59 119 7
      vertex 61 119 7
      vertex 59 121 7
    endloop
  endfacet
  facet normal 0 0 1
    outer loop
      vertex 61 119 7
      vertex 59 119 7
      vertex 61 61 7
    endloop
  endfacet
  facet normal 0 0 1
    outer loop
      vertex 59 181 7
      vertex 61 239 7
      vertex 59 239 7
    endloop
  endfacet
  facet normal 0 0 1
    outer loop
      vertex 120 240 7
      vertex 59 239 7
      vertex 61 239 7
    endloop
  endfacet
  facet normal -0 0 1
    outer loop
      vertex 0 240 7
      vertex 59 239 7
      vertex 120 240 7
    endloop
  endfacet
  facet normal 0 0 1
    outer loop
      vertex 0 240 7
      vertex 1 181 7
      vertex 1 239 7
    endloop
  endfacet
  facet normal 0 0 1
    outer loop
      vertex 1 181 7
      vertex 0 240 7
      vertex 1 179 7
    endloop
  endfacet
  facet normal 0 0 1
    outer loop
      vertex 1 179 7
      vertex 0 240 7
      vertex 1 121 7
    endloop
  endfacet
  facet normal 0 0 1
    outer loop
      vertex 1 121 7
      vertex 0 240 7
      vertex 1 119 7
    endloop
  endfacet
  facet normal 0 0 1
    outer loop
      vertex 1 119 7
      vertex 0 240 7
      vertex 1 61 7
    endloop
  endfacet
  facet normal 0 0 1
    outer loop
      vertex 0 0 7
      vertex 1 61 7
      vertex 0 240 7
    endloop
  endfacet
  facet normal 0 0 1
    outer loop
      vertex 1 61 7
      vertex 0 0 7
      vertex 1 59 7
    endloop
  endfacet
  facet normal 0 0 1
    outer loop
      vertex 59 239 7
      vertex 0 240 7
      vertex 1 239 7
    endloop
  endfacet
  facet normal 0 0 1
    outer loop
      vertex 119 179 7
      vertex 120 240 7
      vertex 119 181 7
    endloop
  endfacet
  facet normal 0 0 1
    outer loop
      vertex 120 240 7
      vertex 119 179 7
      vertex 120 0 7
    endloop
  endfacet
  facet normal -0 0 1
    outer loop
      vertex 119 121 7
      vertex 120 0 7
      vertex 119 179 7
    endloop
  endfacet
  facet normal -0 0 1
    outer loop
      vertex 119 119 7
      vertex 120 0 7
      vertex 119 121 7
    endloop
  endfacet
  facet normal -0 0 1
    outer loop
      vertex 119 61 7
      vertex 120 0 7
      vertex 119 119 7
    endloop
  endfacet
  facet normal -0 0 1
    outer loop
      vertex 119 59 7
      vertex 120 0 7
      vertex 119 61 7
    endloop
  endfacet
  facet normal -0 0 1
    outer loop
      vertex 119 1 7
      vertex 120 0 7
      vertex 119 59 7
    endloop
  endfacet
  facet normal -0 0 1
    outer loop
      vertex 61 1 7
      vertex 120 0 7
      vertex 119 1 7
    endloop
  endfacet
  facet normal 0 0 1
    outer loop
      vertex 61 179 7
      vertex 59 181 7
      vertex 59 179 7
    endloop
  endfacet
  facet normal 0 0 1
    outer loop
      vertex 61 121 7
      vertex 59 121 7
      vertex 61 119 7
    endloop
  endfacet
  facet normal 0 0 1
    outer loop
      vertex 59 61 7
      vertex 61 61 7
      vertex 59 119 7
    endloop
  endfacet
  facet normal 0 0 1
    outer loop
      vertex 61 61 7
      vertex 59 61 7
      vertex 61 59 7
    endloop
  endfacet
  facet normal 0 0 1
    outer loop
      vertex 59 59 7
      vertex 61 59 7
      vertex 59 61 7
    endloop
  endfacet
  facet normal 0 0 1
    outer loop
      vertex 61 59 7
      vertex 59 59 7
      vertex 61 1 7
    endloop
  endfacet
  facet normal 0 0 1
    outer loop
      vertex 59 1 7
      vertex 61 1 7
      vertex 59 59 7
    endloop
  endfacet
  facet normal -0 0 1
    outer loop
      vertex 59 1 7
      vertex 120 0 7
      vertex 61 1 7
    endloop
  endfacet
  facet normal 0 0 1
    outer loop
      vertex 0 0 7
      vertex 59 1 7
      vertex 1 1 7
    endloop
  endfacet
  facet normal 0 0 1
    outer loop
      vertex 59 1 7
      vertex 0 0 7
      vertex 120 0 7
    endloop
  endfacet
  facet normal 0 0 1
    outer loop
      vertex 1 59 7
      vertex 0 0 7
      vertex 1 1 7
    endloop
  endfacet
  facet normal -1 0 0
    outer loop
      vertex 0 0 3.5
      vertex 0 240 7
      vertex 0 240 3.5
    endloop
  endfacet
  facet normal -1 -0 0
    outer loop
      vertex 0 240 7
      vertex 0 0 3.5
      vertex 0 0 7
    endloop
  endfacet
  facet normal 0 -1 0
    outer loop
      vertex 0 0 3.5
      vertex 120 0 7
      vertex 0 0 7
    endloop
  endfacet
  facet normal 0 -1 -0
    outer loop
      vertex 120 0 7
      vertex 0 0 3.5
      vertex 120 0 3.5
    endloop
  endfacet
  facet normal 0 0.894427 0.447214
    outer loop
      vertex 55.5 4.5 0
      vertex 1 1 7
      vertex 59 1 7
    endloop
  endfacet
  facet normal 0 0.894427 0.447214
    outer loop
      vertex 1 1 7
      vertex 55.5 4.5 0
      vertex 4.5 4.5 0
    endloop
  endfacet
  facet normal 0 -0.894427 0.447214
    outer loop
      vertex 4.5 55.5 0
      vertex 59 59 7
      vertex 1 59 7
    endloop
  endfacet
  facet normal 0 -0.894427 0.447214
    outer loop
      vertex 59 59 7
      vertex 4.5 55.5 0
      vertex 55.5 55.5 0
    endloop
  endfacet
  facet normal 0.894427 0 0.447214
    outer loop
      vertex 1 59 7
      vertex 4.5 4.5 0
      vertex 4.5 55.5 0
    endloop
  endfacet
  facet normal 0.894427 0 0.447214
    outer loop
      vertex 4.5 4.5 0
      vertex 1 59 7
      vertex 1 1 7
    endloop
  endfacet
  facet normal -0.894427 0 0.447214
    outer loop
      vertex 55.5 4.5 0
      vertex 59 59 7
      vertex 55.5 55.5 0
    endloop
  endfacet
  facet normal -0.894427 0 0.447214
    outer loop
      vertex 59 59 7
      vertex 55.5 4.5 0
      vertex 59 1 7
    endloop
  endfacet
  facet normal 0 0.894427 0.447214
    outer loop
      vertex 55.5 64.5 0
      vertex 1 61 7
      vertex 59 61 7
    endloop
  endfacet
  facet normal 0 0.894427 0.447214
    outer loop
      vertex 1 61 7
      vertex 55.5 64.5 0
      vertex 4.5 64.5 0
    endloop
  endfacet
  facet normal 0 -0.894427 0.447214
    outer loop
      vertex 4.5 115.5 0
      vertex 59 119 7
      vertex 1 119 7
    endloop
  endfacet
  facet normal 0 -0.894427 0.447214
    outer loop
      vertex 59 119 7
      vertex 4.5 115.5 0
      vertex 55.5 115.5 0
    endloop
  endfacet
  facet normal 0.894427 0 0.447214
    outer loop
      vertex 1 119 7
      vertex 4.5 64.5 0
      vertex 4.5 115.5 0
    endloop
  endfacet
  facet normal 0.894427 0 0.447214
    outer loop
      vertex 4.5 64.5 0
      vertex 1 119 7
      vertex 1 61 7
    endloop
  endfacet
  facet normal -0.894427 0 0.447214
    outer loop
      vertex 55.5 64.5 0
      vertex 59 119 7
      vertex 55.5 115.5 0
    endloop
  endfacet
  facet normal -0.894427 0 0.447214
    outer loop
      vertex 59 119 7
      vertex 55.5 64.5 0
      vertex 59 61 7
    endloop
  endfacet
  facet normal 0 0.894427 0.447214
    outer loop
      vertex 55.5 124.5 0
      vertex 1 121 7
      vertex 59 121 7
    endloop
  endfacet
  facet normal 0 0.894427 0.447214
    outer loop
      vertex 1 121 7
      vertex 55.5 124.5 0
      vertex 4.5 124.5 0
    endloop
  endfacet
  facet normal 0 -0.894427 0.447214
    outer loop
      vertex 4.5 175.5 0
      vertex 59 179 7
      vertex 1 179 7
    endloop
  endfacet
  facet normal 0 -0.894427 0.447214
    outer loop
      vertex 59 179 7
      vertex 4.5 175.5 0
      vertex 55.5 175.5 0
    endloop
  endfacet
  facet normal 0.894427 0 0.447214
    outer loop
      vertex 1 179 7
      vertex 4.5 124.5 0
      vertex 4.5 175.5 0
    endloop
  endfacet
  facet normal 0.894427 0 0.447214
    outer loop
      vertex 4.5 124.5 0
      vertex 1 179 7
      vertex 1 121 7
    endloop
  endfacet
  facet normal -0.894427 0 0.447214
    outer loop
      vertex 55.5 124.5 0
      vertex 59 179 7
      vertex 55.5 175.5 0
    endloop
  endfacet
  facet normal -0.894427 0 0.447214
    outer loop
      vertex 59 179 7
      vertex 55.5 124.5 0
      vertex 59 121 7
    endloop
  endfacet
  facet normal 0 1 -0
    outer loop
      vertex 120 240 3.5
      vertex 0 240 7
      vertex 120 240 7
    endloop
  endfacet
  facet normal 0 1 0
    outer loop
      vertex 0 240 7
      vertex 120 240 3.5
      vertex 0 240 3.5
    endloop
  endfacet
  facet normal 0 0.894427 0.447214
    outer loop
      vertex 55.5 184.5 0
      vertex 1 181 7
      vertex 59 181 7
    endloop
  endfacet
  facet normal 0 0.894427 0.447214
    outer loop
      vertex 1 181 7
      vertex 55.5 184.5 0
      vertex 4.5 184.5 0
    endloop
  endfacet
  facet normal 0 -0.894427 0.447214
    outer loop
      vertex 4.5 235.5 0
      vertex 59 239 7
      vertex 1 239 7
    endloop
  endfacet
  facet normal 0 -0.894427 0.447214
    outer loop
      vertex 59 239 7
      vertex 4.5 235.5 0
      vertex 55.5 235.5 0
    endloop
  endfacet
  facet normal 0.894427 0 0.447214
    outer loop
      vertex 1 239 7
      vertex 4.5 184.5 0
      vertex 4.5 235.5 0
    endloop
  endfacet
  facet normal 0.894427 0 0.447214
    outer loop
      vertex 4.5 184.5 0
      vertex 1 239 7
      vertex 1 181 7
    endloop
  endfacet
  facet normal -0.894427 0 0.447214
    outer loop
      vertex 55.5 184.5 0
      vertex 59 239 7
      vertex 55.5 235.5 0
    endloop
  endfacet
  facet normal -0.894427 0 0.447214
    outer loop
      vertex 59 239 7
      vertex 55.5 184.5 0
      vertex 59 181 7
    endloop
  endfacet
  facet normal 1 -0 0
    outer loop
      vertex 120 0 7
      vertex 120 240 3.5
      vertex 120 240 7
    endloop
  endfacet
  facet normal 1 0 0
    outer loop
      vertex 120 240 3.5
      vertex 120 0 7
      vertex 120 0 3.5
    endloop
  endfacet
  facet normal 0 0.894427 0.447214
    outer loop
      vertex 115.5 4.5 0
      vertex 61 1 7
      vertex 119 1 7
    endloop
  endfacet
  facet normal 0 0.894427 0.447214
    outer loop
      vertex 61 1 7
      vertex 115.5 4.5 0
      vertex 64.5 4.5 0
    endloop
  endfacet
  facet normal 0 -0.894427 0.447214
    outer loop
      vertex 64.5 55.5 0
      vertex 119 59 7
      vertex 61 59 7
    endloop
  endfacet
  facet normal 0 -0.894427 0.447214
    outer loop
      vertex 119 59 7
      vertex 64.5 55.5 0
      vertex 115.5 55.5 0
    endloop
  endfacet
  facet normal 0.894427 0 0.447214
    outer loop
      vertex 61 59 7
      vertex 64.5 4.5 0
      vertex 64.5 55.5 0
    endloop
  endfacet
  facet normal 0.894427 0 0.447214
    outer loop
      vertex 64.5 4.5 0
      vertex 61 59 7
      vertex 61 1 7
    endloop
  endfacet
  facet normal -0.894427 0 0.447214
    outer loop
      vertex 115.5 4.5 0
      vertex 119 59 7
      vertex 115.5 55.5 0
    endloop
  endfacet
  facet normal -0.894427 0 0.447214
    outer loop
      vertex 119 59 7
      vertex 115.5 4.5 0
      vertex 119 1 7
    endloop
  endfacet
  facet normal 0 0.894427 0.447214
    outer loop
      vertex 115.5 64.5 0
      vertex 61 61 7
      vertex 119 61 7
    endloop
  endfacet
  facet normal 0 0.894427 0.447214
    outer loop
      vertex 61 61 7
      vertex 115.5 64.5 0
      vertex 64.5 64.5 0
    endloop
  endfacet
  facet normal 0 -0.894427 0.447214
    outer loop
      vertex 64.5 115.5 0
      vertex 119 119 7
      vertex 61 119 7
    endloop
  endfacet
  facet normal 0 -0.894427 0.447214
    outer loop
      vertex 119 119 7
      vertex 64.5 115.5 0
      vertex 115.5 115.5 0
    endloop
  endfacet
  facet normal 0.894427 0 0.447214
    outer loop
      vertex 61 119 7
      vertex 64.5 64.5 0
      vertex 64.5 115.5 0
    endloop
  endfacet
  facet normal 0.894427 0 0.447214
    outer loop
      vertex 64.5 64.5 0
      vertex 61 119 7
      vertex 61 61 7
    endloop
  endfacet
  facet normal -0.894427 0 0.447214
    outer loop
      vertex 115.5 64.5 0
      vertex 119 119 7
      vertex 115.5 115.5 0
    endloop
  endfacet
  facet normal -0.894427 0 0.447214
    outer loop
      vertex 119 119 7
      vertex 115.5 64.5 0
      vertex 119 61 7
    endloop
  endfacet
  facet normal 0 0.894427 0.447214
    outer loop
      vertex 115.5 124.5 0
      vertex 61 121 7
      vertex 119 121 7
    endloop
  endfacet
  facet normal 0 0.894427 0.447214
    outer loop
      vertex 61 121 7
      vertex 115.5 124.5 0
      vertex 64.5 124.5 0
    endloop
  endfacet
  facet normal 0 -0.894427 0.447214
    outer loop
      vertex 64.5 175.5 0
      vertex 119 179 7
      vertex 61 179 7
    endloop
  endfacet
  facet normal 0 -0.894427 0.447214
    outer loop
      vertex 119 179 7
      vertex 64.5 175.5 0
      vertex 115.5 175.5 0
    endloop
  endfacet
  facet normal 0.894427 0 0.447214
    outer loop
      vertex 61 179 7
      vertex 64.5 124.5 0
      vertex 64.5 175.5 0
    endloop
  endfacet
  facet normal 0.894427 0 0.447214
    outer loop
      vertex 64.5 124.5 0
      vertex 61 179 7
      vertex 61 121 7
    endloop
  endfacet
  facet normal -0.894427 0 0.447214
    outer loop
      vertex 115.5 124.5 0
      vertex 119 179 7
      vertex 115.5 175.5 0
    endloop
  endfacet
  facet normal -0.894427 0 0.447214
    outer loop
      vertex 119 179 7
      vertex 115.5 124.5 0
      vertex 119 121 7
    endloop
  endfacet
  facet normal 0 0.894427 0.447214
    outer loop
      vertex 115.5 184.5 0
      vertex 61 181 7
      vertex 119 181 7
    endloop
  endfacet
  facet normal 0 0.894427 0.447214
    outer loop
      vertex 61 181 7
      vertex 115.5 184.5 0
      vertex 64.5 184.5 0
    endloop
  endfacet
  facet normal 0 -0.894427 0.447214
    outer loop
      vertex 64.5 235.5 0
      vertex 119 239 7
      vertex 61 239 7
    endloop
  endfacet
  facet normal 0 -0.894427 0.447214
    outer loop
      vertex 119 239 7
      vertex 64.5 235.5 0
      vertex 115.5 235.5 0
    endloop
  endfacet
  facet normal 0.894427 0 0.447214
    outer loop
      vertex 61 239 7
      vertex 64.5 184.5 0
      vertex 64.5 235.5 0
    endloop
  endfacet
  facet normal 0.894427 0 0.447214
    outer loop
      vertex 64.5 184.5 0
      vertex 61 239 7
      vertex 61 181 7
    endloop
  endfacet
  facet normal -0.894427 0 0.447214
    outer loop
      vertex 115.5 184.5 0
      vertex 119 239 7
      vertex 115.5 235.5 0
    endloop
  endfacet
  facet normal -0.894427 0 0.447214
    outer loop
      vertex 119 239 7
      vertex 115.5 184.5 0
      vertex 119 181 7
    endloop
  endfacet
  facet normal 0 -0.707107 -0.707107
    outer loop
      vertex 3.5 3.5 0
      vertex 120 0 3.5
      vertex 0 0 3.5
    endloop
  endfacet
  facet normal 0 -0.707107 -0.707107
    outer loop
      vertex 120 0 3.5
      vertex 3.5 3.5 0
      vertex 116.5 3.5 0
    endloop
  endfacet
  facet normal -0.707107 0 -0.707107
    outer loop
      vertex 3.5 3.5 0
      vertex 0 240 3.5
      vertex 3.5 236.5 0
    endloop
  endfacet
  facet normal -0.707107 -0 -0.707107
    outer loop
      vertex 0 240 3.5
      vertex 3.5 3.5 0
      vertex 0 0 3.5
    endloop
  endfacet
  facet normal 0 0.707107 -0.707107
    outer loop
      vertex 116.5 236.5 0
      vertex 0 240 3.5
      vertex 120 240 3.5
    endloop
  endfacet
  facet normal 0 0.707107 -0.707107
    outer loop
      vertex 0 240 3.5
      vertex 116.5 236.5 0
      vertex 3.5 236.5 0
    endloop
  endfacet
  facet normal 0.707107 0 -0.707107
    outer loop
      vertex 120 240 3.5
      vertex 116.5 3.5 0
      vertex 116.5 236.5 0
    endloop
  endfacet
  facet normal 0.707107 0 -0.707107
    outer loop
      vertex 116.5 3.5 0
      vertex 120 240 3.5
      vertex 120 0 3.5
    endloop
  endfacet
endsolid OpenSCAD_Model
