solid OpenSCAD_Model
  facet normal 0 0 -1
    outer loop
      vertex 4.6 4.6 0
      vertex 55.4 55.4 0
      vertex 55.4 4.6 0
    endloop
  endfacet
  facet normal -0 0 -1
    outer loop
      vertex 55.4 55.4 0
      vertex 4.6 4.6 0
      vertex 4.6 55.4 0
    endloop
  endfacet
  facet normal -0 0 1
    outer loop
      vertex 5.8 54.2 1.5
      vertex 54.2 5.8 1.5
      vertex 54.2 54.2 1.5
    endloop
  endfacet
  facet normal 0 0 1
    outer loop
      vertex 54.2 5.8 1.5
      vertex 5.8 54.2 1.5
      vertex 5.8 5.8 1.5
    endloop
  endfacet
  facet normal 0 0 -1
    outer loop
      vertex 120 0 7
      vertex 118.9 1.1 7
      vertex 120 60 7
    endloop
  endfacet
  facet normal 0 0 -1
    outer loop
      vertex 120 0 7
      vertex 61.1 1.1 7
      vertex 118.9 1.1 7
    endloop
  endfacet
  facet normal 0 0 -1
    outer loop
      vertex 61.1 1.1 7
      vertex 58.9 1.1 7
      vertex 61.1 58.9 7
    endloop
  endfacet
  facet normal 0 0 -1
    outer loop
      vertex 120 0 7
      vertex 58.9 1.1 7
      vertex 61.1 1.1 7
    endloop
  endfacet
  facet normal 0 0 -1
    outer loop
      vertex 0 0 7
      vertex 58.9 1.1 7
      vertex 120 0 7
    endloop
  endfacet
  facet normal -0 0 -1
    outer loop
      vertex 1.1 1.1 7
      vertex 0 0 7
      vertex 1.1 58.9 7
    endloop
  endfacet
  facet normal -0 0 -1
    outer loop
      vertex 58.9 1.1 7
      vertex 0 0 7
      vertex 1.1 1.1 7
    endloop
  endfacet
  facet normal 0 0 -1
    outer loop
      vertex 118.9 58.9 7
      vertex 120 60 7
      vertex 118.9 1.1 7
    endloop
  endfacet
  facet normal 0 0 -1
    outer loop
      vertex 61.1 58.9 7
      vertex 120 60 7
      vertex 118.9 58.9 7
    endloop
  endfacet
  facet normal 0 0 -1
    outer loop
      vertex 58.9 58.9 7
      vertex 61.1 58.9 7
      vertex 58.9 1.1 7
    endloop
  endfacet
  facet normal 0 0 -1
    outer loop
      vertex 58.9 58.9 7
      vertex 120 60 7
      vertex 61.1 58.9 7
    endloop
  endfacet
  facet normal 0 0 -1
    outer loop
      vertex 0 60 7
      vertex 58.9 58.9 7
      vertex 1.1 58.9 7
    endloop
  endfacet
  facet normal 0 0 -1
    outer loop
      vertex 58.9 58.9 7
      vertex 0 60 7
      vertex 120 60 7
    endloop
  endfacet
  facet normal 0 0 -1
    outer loop
      vertex 0 60 7
      vertex 1.1 58.9 7
      vertex 0 0 7
    endloop
  endfacet
  facet normal 0 -0.894427 -0.447214
    outer loop
      vertex 4.6 4.6 0
      vertex 58.9 1.1 7
      vertex 1.1 1.1 7
    endloop
  endfacet
  facet normal 0 -0.894427 -0.447214
    outer loop
      vertex 58.9 1.1 7
      vertex 4.6 4.6 0
      vertex 55.4 4.6 0
    endloop
  endfacet
  facet normal 0 0.894427 -0.447214
    outer loop
      vertex 55.4 55.4 0
      vertex 1.1 58.9 7
      vertex 58.9 58.9 7
    endloop
  endfacet
  facet normal 0 0.894427 -0.447214
    outer loop
      vertex 1.1 58.9 7
      vertex 55.4 55.4 0
      vertex 4.6 55.4 0
    endloop
  endfacet
  facet normal -0.894427 0 -0.447214
    outer loop
      vertex 4.6 4.6 0
      vertex 1.1 58.9 7
      vertex 4.6 55.4 0
    endloop
  endfacet
  facet normal -0.894427 -0 -0.447214
    outer loop
      vertex 1.1 58.9 7
      vertex 4.6 4.6 0
      vertex 1.1 1.1 7
    endloop
  endfacet
  facet normal 0.894427 0 -0.447214
    outer loop
      vertex 58.9 58.9 7
      vertex 55.4 4.6 0
      vertex 55.4 55.4 0
    endloop
  endfacet
  facet normal 0.894427 0 -0.447214
    outer loop
      vertex 55.4 4.6 0
      vertex 58.9 58.9 7
      vertex 58.9 1.1 7
    endloop
  endfacet
  facet normal 0 0.894427 0.447214
    outer loop
      vertex 54.2 5.8 1.5
      vertex 1.8 1.8 9.5
      vertex 58.2 1.8 9.5
    endloop
  endfacet
  facet normal 0 0.894427 0.447214
    outer loop
      vertex 1.8 1.8 9.5
      vertex 54.2 5.8 1.5
      vertex 5.8 5.8 1.5
    endloop
  endfacet
  facet normal 0 -0.894427 0.447214
    outer loop
      vertex 5.8 54.2 1.5
      vertex 58.2 58.2 9.5
      vertex 1.8 58.2 9.5
    endloop
  endfacet
  facet normal 0 -0.894427 0.447214
    outer loop
      vertex 58.2 58.2 9.5
      vertex 5.8 54.2 1.5
      vertex 54.2 54.2 1.5
    endloop
  endfacet
  facet normal 0.894427 0 0.447214
    outer loop
      vertex 1.8 58.2 9.5
      vertex 5.8 5.8 1.5
      vertex 5.8 54.2 1.5
    endloop
  endfacet
  facet normal 0.894427 0 0.447214
    outer loop
      vertex 5.8 5.8 1.5
      vertex 1.8 58.2 9.5
      vertex 1.8 1.8 9.5
    endloop
  endfacet
  facet normal -0.894427 0 0.447214
    outer loop
      vertex 54.2 5.8 1.5
      vertex 58.2 58.2 9.5
      vertex 54.2 54.2 1.5
    endloop
  endfacet
  facet normal -0.894427 0 0.447214
    outer loop
      vertex 58.2 58.2 9.5
      vertex 54.2 5.8 1.5
      vertex 58.2 1.8 9.5
    endloop
  endfacet
  facet normal 0 0 -1
    outer loop
      vertex 64.6 4.6 0
      vertex 115.4 55.4 0
      vertex 115.4 4.6 0
    endloop
  endfacet
  facet normal -0 0 -1
    outer loop
      vertex 115.4 55.4 0
      vertex 64.6 4.6 0
      vertex 64.6 55.4 0
    endloop
  endfacet
  facet normal -0 0 1
    outer loop
      vertex 65.8 54.2 1.5
      vertex 114.2 5.8 1.5
      vertex 114.2 54.2 1.5
    endloop
  endfacet
  facet normal 0 0 1
    outer loop
      vertex 114.2 5.8 1.5
      vertex 65.8 54.2 1.5
      vertex 65.8 5.8 1.5
    endloop
  endfacet
  facet normal 0 -0.894427 -0.447214
    outer loop
      vertex 64.6 4.6 0
      vertex 118.9 1.1 7
      vertex 61.1 1.1 7
    endloop
  endfacet
  facet normal 0 -0.894427 -0.447214
    outer loop
      vertex 118.9 1.1 7
      vertex 64.6 4.6 0
      vertex 115.4 4.6 0
    endloop
  endfacet
  facet normal 0 0.894427 -0.447214
    outer loop
      vertex 115.4 55.4 0
      vertex 61.1 58.9 7
      vertex 118.9 58.9 7
    endloop
  endfacet
  facet normal 0 0.894427 -0.447214
    outer loop
      vertex 61.1 58.9 7
      vertex 115.4 55.4 0
      vertex 64.6 55.4 0
    endloop
  endfacet
  facet normal -0.894427 0 -0.447214
    outer loop
      vertex 64.6 4.6 0
      vertex 61.1 58.9 7
      vertex 64.6 55.4 0
    endloop
  endfacet
  facet normal -0.894427 -0 -0.447214
    outer loop
      vertex 61.1 58.9 7
      vertex 64.6 4.6 0
      vertex 61.1 1.1 7
    endloop
  endfacet
  facet normal 0.894427 0 -0.447214
    outer loop
      vertex 118.9 58.9 7
      vertex 115.4 4.6 0
      vertex 115.4 55.4 0
    endloop
  endfacet
  facet normal 0.894427 0 -0.447214
    outer loop
      vertex 115.4 4.6 0
      vertex 118.9 58.9 7
      vertex 118.9 1.1 7
    endloop
  endfacet
  facet normal 0 0.894427 0.447214
    outer loop
      vertex 114.2 5.8 1.5
      vertex 61.8 1.8 9.5
      vertex 118.2 1.8 9.5
    endloop
  endfacet
  facet normal 0 0.894427 0.447214
    outer loop
      vertex 61.8 1.8 9.5
      vertex 114.2 5.8 1.5
      vertex 65.8 5.8 1.5
    endloop
  endfacet
  facet normal 0 -0.894427 0.447214
    outer loop
      vertex 65.8 54.2 1.5
      vertex 118.2 58.2 9.5
      vertex 61.8 58.2 9.5
    endloop
  endfacet
  facet normal 0 -0.894427 0.447214
    outer loop
      vertex 118.2 58.2 9.5
      vertex 65.8 54.2 1.5
      vertex 114.2 54.2 1.5
    endloop
  endfacet
  facet normal 0.894427 0 0.447214
    outer loop
      vertex 61.8 58.2 9.5
      vertex 65.8 5.8 1.5
      vertex 65.8 54.2 1.5
    endloop
  endfacet
  facet normal 0.894427 0 0.447214
    outer loop
      vertex 65.8 5.8 1.5
      vertex 61.8 58.2 9.5
      vertex 61.8 1.8 9.5
    endloop
  endfacet
  facet normal -0.894427 0 0.447214
    outer loop
      vertex 114.2 5.8 1.5
      vertex 118.2 58.2 9.5
      vertex 114.2 54.2 1.5
    endloop
  endfacet
  facet normal -0.894427 0 0.447214
    outer loop
      vertex 118.2 58.2 9.5
      vertex 114.2 5.8 1.5
      vertex 118.2 1.8 9.5
    endloop
  endfacet
  facet normal -0 0 1
    outer loop
      vertex 58.2 58.2 9.5
      vertex 61.8 1.8 9.5
      vertex 61.8 58.2 9.5
    endloop
  endfacet
  facet normal 0 0 1
    outer loop
      vertex 61.8 1.8 9.5
      vertex 58.2 58.2 9.5
      vertex 58.2 1.8 9.5
    endloop
  endfacet
  facet normal 0 -1 0
    outer loop
      vertex 0 0 7
      vertex 120 0 40
      vertex 0 0 40
    endloop
  endfacet
  facet normal 0 -1 -0
    outer loop
      vertex 120 0 40
      vertex 0 0 7
      vertex 120 0 7
    endloop
  endfacet
  facet normal 0 1 -0
    outer loop
      vertex 120 60 7
      vertex 0 60 40
      vertex 120 60 40
    endloop
  endfacet
  facet normal 0 1 0
    outer loop
      vertex 0 60 40
      vertex 120 60 7
      vertex 0 60 7
    endloop
  endfacet
  facet normal -1 0 0
    outer loop
      vertex 0 0 7
      vertex 0 60 40
      vertex 0 60 7
    endloop
  endfacet
  facet normal -1 -0 0
    outer loop
      vertex 0 60 40
      vertex 0 0 7
      vertex 0 0 40
    endloop
  endfacet
  facet normal 1 -0 0
    outer loop
      vertex 120 0 40
      vertex 120 60 7
      vertex 120 60 40
    endloop
  endfacet
  facet normal 1 0 0
    outer loop
      vertex 120 60 7
      vertex 120 0 40
      vertex 120 0 7
    endloop
  endfacet
  facet normal -0 0 1
    outer loop
      vertex 47.5 12.5 33
      vertex 75.9783 4.5 33
      vertex 72.5 12.5 33
    endloop
  endfacet
  facet normal 0 0 1
    outer loop
      vertex 75.9783 4.5 33
      vertex 47.5 12.5 33
      vertex 44.0217 4.5 33
    endloop
  endfacet
  facet normal 0 0 1
    outer loop
      vertex 120 60 40
      vertex 119 59 40
      vertex 120 0 40
    endloop
  endfacet
  facet normal 0 0 1
    outer loop
      vertex 120 60 40
      vertex 1 59 40
      vertex 119 59 40
    endloop
  endfacet
  facet normal 0 0 1
    outer loop
      vertex 1 59 40
      vertex 0 60 40
      vertex 1 1 40
    endloop
  endfacet
  facet normal -0 0 1
    outer loop
      vertex 0 60 40
      vertex 1 59 40
      vertex 120 60 40
    endloop
  endfacet
  facet normal -0 0 1
    outer loop
      vertex 119 1 40
      vertex 120 0 40
      vertex 119 59 40
    endloop
  endfacet
  facet normal -0 0 1
    outer loop
      vertex 1 1 40
      vertex 120 0 40
      vertex 119 1 40
    endloop
  endfacet
  facet normal 0 0 1
    outer loop
      vertex 1 1 40
      vertex 0 0 40
      vertex 120 0 40
    endloop
  endfacet
  facet normal 0 0 1
    outer loop
      vertex 0 0 40
      vertex 1 1 40
      vertex 0 60 40
    endloop
  endfacet
  facet normal -0 0.894427 0.447214
    outer loop
      vertex 75.9783 4.5 33
      vertex 119 1 40
      vertex 115.5 4.5 33
    endloop
  endfacet
  facet normal 0 0.894427 0.447214
    outer loop
      vertex 119 1 40
      vertex 75.9783 4.5 33
      vertex 1 1 40
    endloop
  endfacet
  facet normal -0 0.894427 0.447214
    outer loop
      vertex 44.0217 4.5 33
      vertex 1 1 40
      vertex 75.9783 4.5 33
    endloop
  endfacet
  facet normal 0 0.894427 0.447214
    outer loop
      vertex 1 1 40
      vertex 44.0217 4.5 33
      vertex 4.5 4.5 33
    endloop
  endfacet
  facet normal 0 -0.894427 0.447214
    outer loop
      vertex 4.5 55.5 33
      vertex 119 59 40
      vertex 1 59 40
    endloop
  endfacet
  facet normal 0 -0.894427 0.447214
    outer loop
      vertex 119 59 40
      vertex 4.5 55.5 33
      vertex 115.5 55.5 33
    endloop
  endfacet
  facet normal 0.894427 0 0.447214
    outer loop
      vertex 1 59 40
      vertex 4.5 4.5 33
      vertex 4.5 55.5 33
    endloop
  endfacet
  facet normal 0.894427 0 0.447214
    outer loop
      vertex 4.5 4.5 33
      vertex 1 59 40
      vertex 1 1 40
    endloop
  endfacet
  facet normal -0.894427 0 0.447214
    outer loop
      vertex 115.5 4.5 33
      vertex 119 59 40
      vertex 115.5 55.5 33
    endloop
  endfacet
  facet normal -0.894427 0 0.447214
    outer loop
      vertex 119 59 40
      vertex 115.5 4.5 33
      vertex 119 1 40
    endloop
  endfacet
  facet normal 0 0.993464 -0.114143
    outer loop
      vertex 118.2 1.8 9.5
      vertex 75.9783 4.5 33
      vertex 115.5 4.5 33
    endloop
  endfacet
  facet normal 0 0.993464 -0.114142
    outer loop
      vertex 61.8 1.8 9.5
      vertex 70.4543 3.08977 20.7258
      vertex 118.2 1.8 9.5
    endloop
  endfacet
  facet normal -9.96451e-08 0.993464 -0.114143
    outer loop
      vertex 75.9783 4.5 33
      vertex 118.2 1.8 9.5
      vertex 70.4543 3.08977 20.7258
    endloop
  endfacet
  facet normal 9.96451e-08 0.993464 -0.114143
    outer loop
      vertex 1.8 1.8 9.5
      vertex 44.0217 4.5 33
      vertex 49.5457 3.08977 20.7258
    endloop
  endfacet
  facet normal 0 0.993464 -0.114142
    outer loop
      vertex 70.4543 3.08977 20.7258
      vertex 61.8 1.8 9.5
      vertex 49.5457 3.08977 20.7258
    endloop
  endfacet
  facet normal 0 0.993464 -0.114142
    outer loop
      vertex 58.2 1.8 9.5
      vertex 49.5457 3.08977 20.7258
      vertex 61.8 1.8 9.5
    endloop
  endfacet
  facet normal 0 0.993464 -0.114142
    outer loop
      vertex 1.8 1.8 9.5
      vertex 49.5457 3.08977 20.7258
      vertex 58.2 1.8 9.5
    endloop
  endfacet
  facet normal 0 0.993464 -0.114143
    outer loop
      vertex 44.0217 4.5 33
      vertex 1.8 1.8 9.5
      vertex 4.5 4.5 33
    endloop
  endfacet
  facet normal -0 -0.993464 -0.114143
    outer loop
      vertex 58.2 58.2 9.5
      vertex 4.5 55.5 33
      vertex 1.8 58.2 9.5
    endloop
  endfacet
  facet normal 0 -0.993464 -0.114143
    outer loop
      vertex 4.5 55.5 33
      vertex 58.2 58.2 9.5
      vertex 115.5 55.5 33
    endloop
  endfacet
  facet normal -0 -0.993464 -0.114143
    outer loop
      vertex 61.8 58.2 9.5
      vertex 115.5 55.5 33
      vertex 58.2 58.2 9.5
    endloop
  endfacet
  facet normal 0 -0.993464 -0.114143
    outer loop
      vertex 115.5 55.5 33
      vertex 61.8 58.2 9.5
      vertex 118.2 58.2 9.5
    endloop
  endfacet
  facet normal 0.993464 0 -0.114143
    outer loop
      vertex 4.5 4.5 33
      vertex 1.8 58.2 9.5
      vertex 4.5 55.5 33
    endloop
  endfacet
  facet normal 0.993464 0 -0.114143
    outer loop
      vertex 1.8 58.2 9.5
      vertex 4.5 4.5 33
      vertex 1.8 1.8 9.5
    endloop
  endfacet
  facet normal -0.993464 0 -0.114143
    outer loop
      vertex 118.2 58.2 9.5
      vertex 115.5 4.5 33
      vertex 115.5 55.5 33
    endloop
  endfacet
  facet normal -0.993464 0 -0.114143
    outer loop
      vertex 115.5 4.5 33
      vertex 118.2 58.2 9.5
      vertex 118.2 1.8 9.5
    endloop
  endfacet
  facet normal 0 0.793606 -0.608432
    outer loop
      vertex 70.4543 3.08977 20.7258
      vertex 47.5 12.5 33
      vertex 72.5 12.5 33
    endloop
  endfacet
  facet normal 0 0.793606 -0.608432
    outer loop
      vertex 47.5 12.5 33
      vertex 70.4543 3.08977 20.7258
      vertex 49.5457 3.08977 20.7258
    endloop
  endfacet
  facet normal 0.83361 0.362443 -0.416808
    outer loop
      vertex 75.9783 4.5 33
      vertex 70.4543 3.08977 20.7258
      vertex 72.5 12.5 33
    endloop
  endfacet
  facet normal -0.83361 0.362443 -0.416808
    outer loop
      vertex 49.5457 3.08977 20.7258
      vertex 44.0217 4.5 33
      vertex 47.5 12.5 33
    endloop
  endfacet
endsolid OpenSCAD_Model
