solid OpenSCAD_Model
  facet normal 0 0 -1
    outer loop
      vertex 4.65 4.65 0
      vertex 55.35 55.35 0
      vertex 55.35 4.65 0
    endloop
  endfacet
  facet normal -0 0 -1
    outer loop
      vertex 55.35 55.35 0
      vertex 4.65 4.65 0
      vertex 4.65 55.35 0
    endloop
  endfacet
  facet normal -0 0 1
    outer loop
      vertex 5.85 54.15 1.5
      vertex 54.15 5.85 1.5
      vertex 54.15 54.15 1.5
    endloop
  endfacet
  facet normal 0 0 1
    outer loop
      vertex 54.15 5.85 1.5
      vertex 5.85 54.15 1.5
      vertex 5.85 5.85 1.5
    endloop
  endfacet
  facet normal 0 0 -1
    outer loop
      vertex 1.15 118.85 7
      vertex 58.85 121.15 7
      vertex 58.85 118.85 7
    endloop
  endfacet
  facet normal -0 0 -1
    outer loop
      vertex 58.85 121.15 7
      vertex 1.15 118.85 7
      vertex 1.15 121.15 7
    endloop
  endfacet
  facet normal 0 0 -1
    outer loop
      vertex 1.15 58.85 7
      vertex 58.85 61.15 7
      vertex 58.85 58.85 7
    endloop
  endfacet
  facet normal -0 0 -1
    outer loop
      vertex 58.85 61.15 7
      vertex 1.15 58.85 7
      vertex 1.15 61.15 7
    endloop
  endfacet
  facet normal 0 0 -1
    outer loop
      vertex 58.85 58.85 7
      vertex 60 0 7
      vertex 58.85 1.15 7
    endloop
  endfacet
  facet normal 0 0 -1
    outer loop
      vertex 60 0 7
      vertex 1.15 1.15 7
      vertex 58.85 1.15 7
    endloop
  endfacet
  facet normal 0 0 -1
    outer loop
      vertex 0 0 7
      vertex 1.15 58.85 7
      vertex 1.15 1.15 7
    endloop
  endfacet
  facet normal -0 0 -1
    outer loop
      vertex 1.15 58.85 7
      vertex 0 0 7
      vertex 1.15 61.15 7
    endloop
  endfacet
  facet normal -0 0 -1
    outer loop
      vertex 1.15 61.15 7
      vertex 0 0 7
      vertex 1.15 118.85 7
    endloop
  endfacet
  facet normal -0 0 -1
    outer loop
      vertex 1.15 118.85 7
      vertex 0 0 7
      vertex 1.15 121.15 7
    endloop
  endfacet
  facet normal 0 0 -1
    outer loop
      vertex 0 180 7
      vertex 1.15 121.15 7
      vertex 0 0 7
    endloop
  endfacet
  facet normal 0 0 -1
    outer loop
      vertex 0 0 7
      vertex 1.15 1.15 7
      vertex 60 0 7
    endloop
  endfacet
  facet normal 0 0 -1
    outer loop
      vertex 60 0 7
      vertex 58.85 58.85 7
      vertex 60 180 7
    endloop
  endfacet
  facet normal 0 0 -1
    outer loop
      vertex 58.85 61.15 7
      vertex 60 180 7
      vertex 58.85 58.85 7
    endloop
  endfacet
  facet normal 0 0 -1
    outer loop
      vertex 58.85 118.85 7
      vertex 60 180 7
      vertex 58.85 61.15 7
    endloop
  endfacet
  facet normal 0 0 -1
    outer loop
      vertex 58.85 121.15 7
      vertex 60 180 7
      vertex 58.85 118.85 7
    endloop
  endfacet
  facet normal 0 0 -1
    outer loop
      vertex 58.85 178.85 7
      vertex 60 180 7
      vertex 58.85 121.15 7
    endloop
  endfacet
  facet normal 0 0 -1
    outer loop
      vertex 1.15 178.85 7
      vertex 60 180 7
      vertex 58.85 178.85 7
    endloop
  endfacet
  facet normal 0 0 -1
    outer loop
      vertex 1.15 178.85 7
      vertex 0 180 7
      vertex 60 180 7
    endloop
  endfacet
  facet normal 0 0 -1
    outer loop
      vertex 1.15 121.15 7
      vertex 0 180 7
      vertex 1.15 178.85 7
    endloop
  endfacet
  facet normal 0 -0.894427 -0.447214
    outer loop
      vertex 4.65 4.65 0
      vertex 58.85 1.15 7
      vertex 1.15 1.15 7
    endloop
  endfacet
  facet normal 0 -0.894427 -0.447214
    outer loop
      vertex 58.85 1.15 7
      vertex 4.65 4.65 0
      vertex 55.35 4.65 0
    endloop
  endfacet
  facet normal 0 0.894427 -0.447214
    outer loop
      vertex 55.35 55.35 0
      vertex 1.15 58.85 7
      vertex 58.85 58.85 7
    endloop
  endfacet
  facet normal 0 0.894427 -0.447214
    outer loop
      vertex 1.15 58.85 7
      vertex 55.35 55.35 0
      vertex 4.65 55.35 0
    endloop
  endfacet
  facet normal -0.894427 0 -0.447214
    outer loop
      vertex 4.65 4.65 0
      vertex 1.15 58.85 7
      vertex 4.65 55.35 0
    endloop
  endfacet
  facet normal -0.894427 -0 -0.447214
    outer loop
      vertex 1.15 58.85 7
      vertex 4.65 4.65 0
      vertex 1.15 1.15 7
    endloop
  endfacet
  facet normal 0.894427 0 -0.447214
    outer loop
      vertex 58.85 58.85 7
      vertex 55.35 4.65 0
      vertex 55.35 55.35 0
    endloop
  endfacet
  facet normal 0.894427 0 -0.447214
    outer loop
      vertex 55.35 4.65 0
      vertex 58.85 58.85 7
      vertex 58.85 1.15 7
    endloop
  endfacet
  facet normal 0 0.894427 0.447214
    outer loop
      vertex 54.15 5.85 1.5
      vertex 1.85 1.85 9.5
      vertex 58.15 1.85 9.5
    endloop
  endfacet
  facet normal 0 0.894427 0.447214
    outer loop
      vertex 1.85 1.85 9.5
      vertex 54.15 5.85 1.5
      vertex 5.85 5.85 1.5
    endloop
  endfacet
  facet normal 0 -0.894427 0.447214
    outer loop
      vertex 5.85 54.15 1.5
      vertex 58.15 58.15 9.5
      vertex 1.85 58.15 9.5
    endloop
  endfacet
  facet normal 0 -0.894427 0.447214
    outer loop
      vertex 58.15 58.15 9.5
      vertex 5.85 54.15 1.5
      vertex 54.15 54.15 1.5
    endloop
  endfacet
  facet normal 0.894427 0 0.447214
    outer loop
      vertex 1.85 58.15 9.5
      vertex 5.85 5.85 1.5
      vertex 5.85 54.15 1.5
    endloop
  endfacet
  facet normal 0.894427 0 0.447214
    outer loop
      vertex 5.85 5.85 1.5
      vertex 1.85 58.15 9.5
      vertex 1.85 1.85 9.5
    endloop
  endfacet
  facet normal -0.894427 0 0.447214
    outer loop
      vertex 54.15 5.85 1.5
      vertex 58.15 58.15 9.5
      vertex 54.15 54.15 1.5
    endloop
  endfacet
  facet normal -0.894427 0 0.447214
    outer loop
      vertex 58.15 58.15 9.5
      vertex 54.15 5.85 1.5
      vertex 58.15 1.85 9.5
    endloop
  endfacet
  facet normal 0 0 -1
    outer loop
      vertex 4.65 64.65 0
      vertex 55.35 115.35 0
      vertex 55.35 64.65 0
    endloop
  endfacet
  facet normal -0 0 -1
    outer loop
      vertex 55.35 115.35 0
      vertex 4.65 64.65 0
      vertex 4.65 115.35 0
    endloop
  endfacet
  facet normal -0 0 1
    outer loop
      vertex 5.85 114.15 1.5
      vertex 54.15 65.85 1.5
      vertex 54.15 114.15 1.5
    endloop
  endfacet
  facet normal 0 0 1
    outer loop
      vertex 54.15 65.85 1.5
      vertex 5.85 114.15 1.5
      vertex 5.85 65.85 1.5
    endloop
  endfacet
  facet normal 0 -0.894427 -0.447214
    outer loop
      vertex 4.65 64.65 0
      vertex 58.85 61.15 7
      vertex 1.15 61.15 7
    endloop
  endfacet
  facet normal 0 -0.894427 -0.447214
    outer loop
      vertex 58.85 61.15 7
      vertex 4.65 64.65 0
      vertex 55.35 64.65 0
    endloop
  endfacet
  facet normal 0 0.894427 -0.447214
    outer loop
      vertex 55.35 115.35 0
      vertex 1.15 118.85 7
      vertex 58.85 118.85 7
    endloop
  endfacet
  facet normal 0 0.894427 -0.447214
    outer loop
      vertex 1.15 118.85 7
      vertex 55.35 115.35 0
      vertex 4.65 115.35 0
    endloop
  endfacet
  facet normal -0.894427 0 -0.447214
    outer loop
      vertex 4.65 64.65 0
      vertex 1.15 118.85 7
      vertex 4.65 115.35 0
    endloop
  endfacet
  facet normal -0.894427 -0 -0.447214
    outer loop
      vertex 1.15 118.85 7
      vertex 4.65 64.65 0
      vertex 1.15 61.15 7
    endloop
  endfacet
  facet normal 0.894427 0 -0.447214
    outer loop
      vertex 58.85 118.85 7
      vertex 55.35 64.65 0
      vertex 55.35 115.35 0
    endloop
  endfacet
  facet normal 0.894427 0 -0.447214
    outer loop
      vertex 55.35 64.65 0
      vertex 58.85 118.85 7
      vertex 58.85 61.15 7
    endloop
  endfacet
  facet normal 0 0.894427 0.447214
    outer loop
      vertex 54.15 65.85 1.5
      vertex 1.85 61.85 9.5
      vertex 58.15 61.85 9.5
    endloop
  endfacet
  facet normal 0 0.894427 0.447214
    outer loop
      vertex 1.85 61.85 9.5
      vertex 54.15 65.85 1.5
      vertex 5.85 65.85 1.5
    endloop
  endfacet
  facet normal 0 -0.894427 0.447214
    outer loop
      vertex 5.85 114.15 1.5
      vertex 58.15 118.15 9.5
      vertex 1.85 118.15 9.5
    endloop
  endfacet
  facet normal 0 -0.894427 0.447214
    outer loop
      vertex 58.15 118.15 9.5
      vertex 5.85 114.15 1.5
      vertex 54.15 114.15 1.5
    endloop
  endfacet
  facet normal 0.894427 0 0.447214
    outer loop
      vertex 1.85 118.15 9.5
      vertex 5.85 65.85 1.5
      vertex 5.85 114.15 1.5
    endloop
  endfacet
  facet normal 0.894427 0 0.447214
    outer loop
      vertex 5.85 65.85 1.5
      vertex 1.85 118.15 9.5
      vertex 1.85 61.85 9.5
    endloop
  endfacet
  facet normal -0.894427 0 0.447214
    outer loop
      vertex 54.15 65.85 1.5
      vertex 58.15 118.15 9.5
      vertex 54.15 114.15 1.5
    endloop
  endfacet
  facet normal -0.894427 0 0.447214
    outer loop
      vertex 58.15 118.15 9.5
      vertex 54.15 65.85 1.5
      vertex 58.15 61.85 9.5
    endloop
  endfacet
  facet normal 0 0 -1
    outer loop
      vertex 4.65 124.65 0
      vertex 55.35 175.35 0
      vertex 55.35 124.65 0
    endloop
  endfacet
  facet normal -0 0 -1
    outer loop
      vertex 55.35 175.35 0
      vertex 4.65 124.65 0
      vertex 4.65 175.35 0
    endloop
  endfacet
  facet normal -0 0 1
    outer loop
      vertex 5.85 174.15 1.5
      vertex 54.15 125.85 1.5
      vertex 54.15 174.15 1.5
    endloop
  endfacet
  facet normal 0 0 1
    outer loop
      vertex 54.15 125.85 1.5
      vertex 5.85 174.15 1.5
      vertex 5.85 125.85 1.5
    endloop
  endfacet
  facet normal 0 -0.894427 -0.447214
    outer loop
      vertex 4.65 124.65 0
      vertex 58.85 121.15 7
      vertex 1.15 121.15 7
    endloop
  endfacet
  facet normal 0 -0.894427 -0.447214
    outer loop
      vertex 58.85 121.15 7
      vertex 4.65 124.65 0
      vertex 55.35 124.65 0
    endloop
  endfacet
  facet normal 0 0.894427 -0.447214
    outer loop
      vertex 55.35 175.35 0
      vertex 1.15 178.85 7
      vertex 58.85 178.85 7
    endloop
  endfacet
  facet normal 0 0.894427 -0.447214
    outer loop
      vertex 1.15 178.85 7
      vertex 55.35 175.35 0
      vertex 4.65 175.35 0
    endloop
  endfacet
  facet normal -0.894427 0 -0.447214
    outer loop
      vertex 4.65 124.65 0
      vertex 1.15 178.85 7
      vertex 4.65 175.35 0
    endloop
  endfacet
  facet normal -0.894427 -0 -0.447214
    outer loop
      vertex 1.15 178.85 7
      vertex 4.65 124.65 0
      vertex 1.15 121.15 7
    endloop
  endfacet
  facet normal 0.894427 0 -0.447214
    outer loop
      vertex 58.85 178.85 7
      vertex 55.35 124.65 0
      vertex 55.35 175.35 0
    endloop
  endfacet
  facet normal 0.894427 0 -0.447214
    outer loop
      vertex 55.35 124.65 0
      vertex 58.85 178.85 7
      vertex 58.85 121.15 7
    endloop
  endfacet
  facet normal 0 0.894427 0.447214
    outer loop
      vertex 54.15 125.85 1.5
      vertex 1.85 121.85 9.5
      vertex 58.15 121.85 9.5
    endloop
  endfacet
  facet normal 0 0.894427 0.447214
    outer loop
      vertex 1.85 121.85 9.5
      vertex 54.15 125.85 1.5
      vertex 5.85 125.85 1.5
    endloop
  endfacet
  facet normal 0 -0.894427 0.447214
    outer loop
      vertex 5.85 174.15 1.5
      vertex 58.15 178.15 9.5
      vertex 1.85 178.15 9.5
    endloop
  endfacet
  facet normal 0 -0.894427 0.447214
    outer loop
      vertex 58.15 178.15 9.5
      vertex 5.85 174.15 1.5
      vertex 54.15 174.15 1.5
    endloop
  endfacet
  facet normal 0.894427 0 0.447214
    outer loop
      vertex 1.85 178.15 9.5
      vertex 5.85 125.85 1.5
      vertex 5.85 174.15 1.5
    endloop
  endfacet
  facet normal 0.894427 0 0.447214
    outer loop
      vertex 5.85 125.85 1.5
      vertex 1.85 178.15 9.5
      vertex 1.85 121.85 9.5
    endloop
  endfacet
  facet normal -0.894427 0 0.447214
    outer loop
      vertex 54.15 125.85 1.5
      vertex 58.15 178.15 9.5
      vertex 54.15 174.15 1.5
    endloop
  endfacet
  facet normal -0.894427 0 0.447214
    outer loop
      vertex 58.15 178.15 9.5
      vertex 54.15 125.85 1.5
      vertex 58.15 121.85 9.5
    endloop
  endfacet
  facet normal -0 0 1
    outer loop
      vertex 1.85 121.85 9.5
      vertex 58.15 118.15 9.5
      vertex 58.15 121.85 9.5
    endloop
  endfacet
  facet normal 0 0 1
    outer loop
      vertex 58.15 118.15 9.5
      vertex 1.85 121.85 9.5
      vertex 1.85 118.15 9.5
    endloop
  endfacet
  facet normal -0 0 1
    outer loop
      vertex 1.85 61.85 9.5
      vertex 58.15 58.15 9.5
      vertex 58.15 61.85 9.5
    endloop
  endfacet
  facet normal 0 0 1
    outer loop
      vertex 58.15 58.15 9.5
      vertex 1.85 61.85 9.5
      vertex 1.85 58.15 9.5
    endloop
  endfacet
  facet normal 0 -1 0
    outer loop
      vertex 0 0 7
      vertex 60 0 40
      vertex 0 0 40
    endloop
  endfacet
  facet normal 0 -1 -0
    outer loop
      vertex 60 0 40
      vertex 0 0 7
      vertex 60 0 7
    endloop
  endfacet
  facet normal -1 0 0
    outer loop
      vertex 0 0 7
      vertex 0 180 40
      vertex 0 180 7
    endloop
  endfacet
  facet normal -1 -0 0
    outer loop
      vertex 0 180 40
      vertex 0 0 7
      vertex 0 0 40
    endloop
  endfacet
  facet normal 1 -0 0
    outer loop
      vertex 60 0 40
      vertex 60 180 7
      vertex 60 180 40
    endloop
  endfacet
  facet normal 1 0 0
    outer loop
      vertex 60 180 7
      vertex 60 0 40
      vertex 60 0 7
    endloop
  endfacet
  facet normal 0 1 -0
    outer loop
      vertex 60 180 7
      vertex 0 180 40
      vertex 60 180 40
    endloop
  endfacet
  facet normal 0 1 0
    outer loop
      vertex 0 180 40
      vertex 60 180 7
      vertex 0 180 7
    endloop
  endfacet
  facet normal -0 0 1
    outer loop
      vertex 17.5 12.5 33
      vertex 45.9783 4.5 33
      vertex 42.5 12.5 33
    endloop
  endfacet
  facet normal 0 0 1
    outer loop
      vertex 45.9783 4.5 33
      vertex 17.5 12.5 33
      vertex 14.0217 4.5 33
    endloop
  endfacet
  facet normal 0 0 1
    outer loop
      vertex 60 180 40
      vertex 59 179 40
      vertex 60 0 40
    endloop
  endfacet
  facet normal 0 0 1
    outer loop
      vertex 60 180 40
      vertex 1 179 40
      vertex 59 179 40
    endloop
  endfacet
  facet normal 0 0 1
    outer loop
      vertex 1 179 40
      vertex 0 180 40
      vertex 1 1 40
    endloop
  endfacet
  facet normal -0 0 1
    outer loop
      vertex 0 180 40
      vertex 1 179 40
      vertex 60 180 40
    endloop
  endfacet
  facet normal -0 0 1
    outer loop
      vertex 59 1 40
      vertex 60 0 40
      vertex 59 179 40
    endloop
  endfacet
  facet normal -0 0 1
    outer loop
      vertex 1 1 40
      vertex 60 0 40
      vertex 59 1 40
    endloop
  endfacet
  facet normal 0 0 1
    outer loop
      vertex 1 1 40
      vertex 0 0 40
      vertex 60 0 40
    endloop
  endfacet
  facet normal 0 0 1
    outer loop
      vertex 0 0 40
      vertex 1 1 40
      vertex 0 180 40
    endloop
  endfacet
  facet normal -0 0.894427 0.447214
    outer loop
      vertex 45.9783 4.5 33
      vertex 59 1 40
      vertex 55.5 4.5 33
    endloop
  endfacet
  facet normal 0 0.894427 0.447214
    outer loop
      vertex 59 1 40
      vertex 45.9783 4.5 33
      vertex 1 1 40
    endloop
  endfacet
  facet normal -0 0.894427 0.447214
    outer loop
      vertex 14.0217 4.5 33
      vertex 1 1 40
      vertex 45.9783 4.5 33
    endloop
  endfacet
  facet normal 0 0.894427 0.447214
    outer loop
      vertex 1 1 40
      vertex 14.0217 4.5 33
      vertex 4.5 4.5 33
    endloop
  endfacet
  facet normal 0 -0.894427 0.447214
    outer loop
      vertex 4.5 175.5 33
      vertex 59 179 40
      vertex 1 179 40
    endloop
  endfacet
  facet normal 0 -0.894427 0.447214
    outer loop
      vertex 59 179 40
      vertex 4.5 175.5 33
      vertex 55.5 175.5 33
    endloop
  endfacet
  facet normal 0.894427 0 0.447214
    outer loop
      vertex 1 179 40
      vertex 4.5 4.5 33
      vertex 4.5 175.5 33
    endloop
  endfacet
  facet normal 0.894427 0 0.447214
    outer loop
      vertex 4.5 4.5 33
      vertex 1 179 40
      vertex 1 1 40
    endloop
  endfacet
  facet normal -0.894427 0 0.447214
    outer loop
      vertex 55.5 4.5 33
      vertex 59 179 40
      vertex 55.5 175.5 33
    endloop
  endfacet
  facet normal -0.894427 0 0.447214
    outer loop
      vertex 59 179 40
      vertex 55.5 4.5 33
      vertex 59 1 40
    endloop
  endfacet
  facet normal 0 0.993702 -0.112056
    outer loop
      vertex 55.5 4.5 33
      vertex 40.461 3.12039 20.7657
      vertex 45.9783 4.5 33
    endloop
  endfacet
  facet normal 0 0.993702 -0.112056
    outer loop
      vertex 40.461 3.12039 20.7657
      vertex 58.15 1.85 9.5
      vertex 19.539 3.12039 20.7657
    endloop
  endfacet
  facet normal 1.54527e-07 0.993702 -0.112056
    outer loop
      vertex 58.15 1.85 9.5
      vertex 40.461 3.12039 20.7657
      vertex 55.5 4.5 33
    endloop
  endfacet
  facet normal 0 0.993702 -0.112056
    outer loop
      vertex 19.539 3.12039 20.7657
      vertex 4.5 4.5 33
      vertex 14.0217 4.5 33
    endloop
  endfacet
  facet normal -1.54527e-07 0.993702 -0.112056
    outer loop
      vertex 19.539 3.12039 20.7657
      vertex 1.85 1.85 9.5
      vertex 4.5 4.5 33
    endloop
  endfacet
  facet normal 0 0.993702 -0.112056
    outer loop
      vertex 1.85 1.85 9.5
      vertex 19.539 3.12039 20.7657
      vertex 58.15 1.85 9.5
    endloop
  endfacet
  facet normal 0 -0.993702 -0.112056
    outer loop
      vertex 1.85 178.15 9.5
      vertex 55.5 175.5 33
      vertex 4.5 175.5 33
    endloop
  endfacet
  facet normal 0 -0.993702 -0.112056
    outer loop
      vertex 55.5 175.5 33
      vertex 1.85 178.15 9.5
      vertex 58.15 178.15 9.5
    endloop
  endfacet
  facet normal 0.993702 0 -0.112056
    outer loop
      vertex 4.5 175.5 33
      vertex 1.85 121.85 9.5
      vertex 1.85 178.15 9.5
    endloop
  endfacet
  facet normal 0.993702 0 -0.112056
    outer loop
      vertex 4.5 175.5 33
      vertex 1.85 118.15 9.5
      vertex 1.85 121.85 9.5
    endloop
  endfacet
  facet normal 0.993702 0 -0.112056
    outer loop
      vertex 4.5 175.5 33
      vertex 1.85 61.85 9.5
      vertex 1.85 118.15 9.5
    endloop
  endfacet
  facet normal 0.993702 0 -0.112056
    outer loop
      vertex 4.5 4.5 33
      vertex 1.85 61.85 9.5
      vertex 4.5 175.5 33
    endloop
  endfacet
  facet normal 0.993702 0 -0.112056
    outer loop
      vertex 1.85 61.85 9.5
      vertex 4.5 4.5 33
      vertex 1.85 58.15 9.5
    endloop
  endfacet
  facet normal 0.993702 0 -0.112056
    outer loop
      vertex 1.85 58.15 9.5
      vertex 4.5 4.5 33
      vertex 1.85 1.85 9.5
    endloop
  endfacet
  facet normal -0.993702 0 -0.112056
    outer loop
      vertex 58.15 121.85 9.5
      vertex 55.5 175.5 33
      vertex 58.15 178.15 9.5
    endloop
  endfacet
  facet normal -0.993702 0 -0.112056
    outer loop
      vertex 58.15 118.15 9.5
      vertex 55.5 175.5 33
      vertex 58.15 121.85 9.5
    endloop
  endfacet
  facet normal -0.993702 0 -0.112056
    outer loop
      vertex 58.15 61.85 9.5
      vertex 55.5 175.5 33
      vertex 58.15 118.15 9.5
    endloop
  endfacet
  facet normal -0.993702 0 -0.112056
    outer loop
      vertex 55.5 4.5 33
      vertex 58.15 61.85 9.5
      vertex 58.15 58.15 9.5
    endloop
  endfacet
  facet normal -0.993702 0 -0.112056
    outer loop
      vertex 58.15 61.85 9.5
      vertex 55.5 4.5 33
      vertex 55.5 175.5 33
    endloop
  endfacet
  facet normal -0.993702 0 -0.112056
    outer loop
      vertex 55.5 4.5 33
      vertex 58.15 58.15 9.5
      vertex 58.15 1.85 9.5
    endloop
  endfacet
  facet normal 0 0.793607 -0.608431
    outer loop
      vertex 40.461 3.12039 20.7657
      vertex 17.5 12.5 33
      vertex 42.5 12.5 33
    endloop
  endfacet
  facet normal 0 0.793607 -0.608431
    outer loop
      vertex 17.5 12.5 33
      vertex 40.461 3.12039 20.7657
      vertex 19.539 3.12039 20.7657
    endloop
  endfacet
  facet normal 0.833612 0.362444 -0.416805
    outer loop
      vertex 45.9783 4.5 33
      vertex 40.461 3.12039 20.7657
      vertex 42.5 12.5 33
    endloop
  endfacet
  facet normal -0.833612 0.362444 -0.416805
    outer loop
      vertex 19.539 3.12039 20.7657
      vertex 14.0217 4.5 33
      vertex 17.5 12.5 33
    endloop
  endfacet
endsolid OpenSCAD_Model
