solid OpenSCAD_Model
  facet normal 0 0 -1
    outer loop
      vertex 4.65 4.65 0
      vertex 55.35 55.35 0
      vertex 55.35 4.65 0
    endloop
  endfacet
  facet normal -0 0 -1
    outer loop
      vertex 55.35 55.35 0
      vertex 4.65 4.65 0
      vertex 4.65 55.35 0
    endloop
  endfacet
  facet normal -0 0 1
    outer loop
      vertex 5.85 54.15 1.5
      vertex 54.15 5.85 1.5
      vertex 54.15 54.15 1.5
    endloop
  endfacet
  facet normal 0 0 1
    outer loop
      vertex 54.15 5.85 1.5
      vertex 5.85 54.15 1.5
      vertex 5.85 5.85 1.5
    endloop
  endfacet
  facet normal 0 0 -1
    outer loop
      vertex 120 0 7
      vertex 118.85 1.15 7
      vertex 120 60 7
    endloop
  endfacet
  facet normal 0 0 -1
    outer loop
      vertex 120 0 7
      vertex 61.15 1.15 7
      vertex 118.85 1.15 7
    endloop
  endfacet
  facet normal 0 0 -1
    outer loop
      vertex 61.15 1.15 7
      vertex 58.85 1.15 7
      vertex 61.15 58.85 7
    endloop
  endfacet
  facet normal 0 0 -1
    outer loop
      vertex 120 0 7
      vertex 58.85 1.15 7
      vertex 61.15 1.15 7
    endloop
  endfacet
  facet normal 0 0 -1
    outer loop
      vertex 0 0 7
      vertex 58.85 1.15 7
      vertex 120 0 7
    endloop
  endfacet
  facet normal -0 0 -1
    outer loop
      vertex 1.15 1.15 7
      vertex 0 0 7
      vertex 1.15 58.85 7
    endloop
  endfacet
  facet normal -0 0 -1
    outer loop
      vertex 58.85 1.15 7
      vertex 0 0 7
      vertex 1.15 1.15 7
    endloop
  endfacet
  facet normal 0 0 -1
    outer loop
      vertex 118.85 58.85 7
      vertex 120 60 7
      vertex 118.85 1.15 7
    endloop
  endfacet
  facet normal 0 0 -1
    outer loop
      vertex 61.15 58.85 7
      vertex 120 60 7
      vertex 118.85 58.85 7
    endloop
  endfacet
  facet normal 0 0 -1
    outer loop
      vertex 58.85 58.85 7
      vertex 61.15 58.85 7
      vertex 58.85 1.15 7
    endloop
  endfacet
  facet normal 0 0 -1
    outer loop
      vertex 58.85 58.85 7
      vertex 120 60 7
      vertex 61.15 58.85 7
    endloop
  endfacet
  facet normal 0 0 -1
    outer loop
      vertex 0 60 7
      vertex 58.85 58.85 7
      vertex 1.15 58.85 7
    endloop
  endfacet
  facet normal 0 0 -1
    outer loop
      vertex 58.85 58.85 7
      vertex 0 60 7
      vertex 120 60 7
    endloop
  endfacet
  facet normal 0 0 -1
    outer loop
      vertex 0 60 7
      vertex 1.15 58.85 7
      vertex 0 0 7
    endloop
  endfacet
  facet normal 0 -0.894427 -0.447214
    outer loop
      vertex 4.65 4.65 0
      vertex 58.85 1.15 7
      vertex 1.15 1.15 7
    endloop
  endfacet
  facet normal 0 -0.894427 -0.447214
    outer loop
      vertex 58.85 1.15 7
      vertex 4.65 4.65 0
      vertex 55.35 4.65 0
    endloop
  endfacet
  facet normal 0 0.894427 -0.447214
    outer loop
      vertex 55.35 55.35 0
      vertex 1.15 58.85 7
      vertex 58.85 58.85 7
    endloop
  endfacet
  facet normal 0 0.894427 -0.447214
    outer loop
      vertex 1.15 58.85 7
      vertex 55.35 55.35 0
      vertex 4.65 55.35 0
    endloop
  endfacet
  facet normal -0.894427 0 -0.447214
    outer loop
      vertex 4.65 4.65 0
      vertex 1.15 58.85 7
      vertex 4.65 55.35 0
    endloop
  endfacet
  facet normal -0.894427 -0 -0.447214
    outer loop
      vertex 1.15 58.85 7
      vertex 4.65 4.65 0
      vertex 1.15 1.15 7
    endloop
  endfacet
  facet normal 0.894427 0 -0.447214
    outer loop
      vertex 58.85 58.85 7
      vertex 55.35 4.65 0
      vertex 55.35 55.35 0
    endloop
  endfacet
  facet normal 0.894427 0 -0.447214
    outer loop
      vertex 55.35 4.65 0
      vertex 58.85 58.85 7
      vertex 58.85 1.15 7
    endloop
  endfacet
  facet normal 0 0.894427 0.447214
    outer loop
      vertex 54.15 5.85 1.5
      vertex 1.85 1.85 9.5
      vertex 58.15 1.85 9.5
    endloop
  endfacet
  facet normal 0 0.894427 0.447214
    outer loop
      vertex 1.85 1.85 9.5
      vertex 54.15 5.85 1.5
      vertex 5.85 5.85 1.5
    endloop
  endfacet
  facet normal 0 -0.894427 0.447214
    outer loop
      vertex 5.85 54.15 1.5
      vertex 58.15 58.15 9.5
      vertex 1.85 58.15 9.5
    endloop
  endfacet
  facet normal 0 -0.894427 0.447214
    outer loop
      vertex 58.15 58.15 9.5
      vertex 5.85 54.15 1.5
      vertex 54.15 54.15 1.5
    endloop
  endfacet
  facet normal 0.894427 0 0.447214
    outer loop
      vertex 1.85 58.15 9.5
      vertex 5.85 5.85 1.5
      vertex 5.85 54.15 1.5
    endloop
  endfacet
  facet normal 0.894427 0 0.447214
    outer loop
      vertex 5.85 5.85 1.5
      vertex 1.85 58.15 9.5
      vertex 1.85 1.85 9.5
    endloop
  endfacet
  facet normal -0.894427 0 0.447214
    outer loop
      vertex 54.15 5.85 1.5
      vertex 58.15 58.15 9.5
      vertex 54.15 54.15 1.5
    endloop
  endfacet
  facet normal -0.894427 0 0.447214
    outer loop
      vertex 58.15 58.15 9.5
      vertex 54.15 5.85 1.5
      vertex 58.15 1.85 9.5
    endloop
  endfacet
  facet normal 0 0 -1
    outer loop
      vertex 64.65 4.65 0
      vertex 115.35 55.35 0
      vertex 115.35 4.65 0
    endloop
  endfacet
  facet normal -0 0 -1
    outer loop
      vertex 115.35 55.35 0
      vertex 64.65 4.65 0
      vertex 64.65 55.35 0
    endloop
  endfacet
  facet normal -0 0 1
    outer loop
      vertex 65.85 54.15 1.5
      vertex 114.15 5.85 1.5
      vertex 114.15 54.15 1.5
    endloop
  endfacet
  facet normal 0 0 1
    outer loop
      vertex 114.15 5.85 1.5
      vertex 65.85 54.15 1.5
      vertex 65.85 5.85 1.5
    endloop
  endfacet
  facet normal 0 -0.894427 -0.447214
    outer loop
      vertex 64.65 4.65 0
      vertex 118.85 1.15 7
      vertex 61.15 1.15 7
    endloop
  endfacet
  facet normal 0 -0.894427 -0.447214
    outer loop
      vertex 118.85 1.15 7
      vertex 64.65 4.65 0
      vertex 115.35 4.65 0
    endloop
  endfacet
  facet normal 0 0.894427 -0.447214
    outer loop
      vertex 115.35 55.35 0
      vertex 61.15 58.85 7
      vertex 118.85 58.85 7
    endloop
  endfacet
  facet normal 0 0.894427 -0.447214
    outer loop
      vertex 61.15 58.85 7
      vertex 115.35 55.35 0
      vertex 64.65 55.35 0
    endloop
  endfacet
  facet normal -0.894427 0 -0.447214
    outer loop
      vertex 64.65 4.65 0
      vertex 61.15 58.85 7
      vertex 64.65 55.35 0
    endloop
  endfacet
  facet normal -0.894427 -0 -0.447214
    outer loop
      vertex 61.15 58.85 7
      vertex 64.65 4.65 0
      vertex 61.15 1.15 7
    endloop
  endfacet
  facet normal 0.894427 0 -0.447214
    outer loop
      vertex 118.85 58.85 7
      vertex 115.35 4.65 0
      vertex 115.35 55.35 0
    endloop
  endfacet
  facet normal 0.894427 0 -0.447214
    outer loop
      vertex 115.35 4.65 0
      vertex 118.85 58.85 7
      vertex 118.85 1.15 7
    endloop
  endfacet
  facet normal 0 0.894427 0.447214
    outer loop
      vertex 114.15 5.85 1.5
      vertex 61.85 1.85 9.5
      vertex 118.15 1.85 9.5
    endloop
  endfacet
  facet normal 0 0.894427 0.447214
    outer loop
      vertex 61.85 1.85 9.5
      vertex 114.15 5.85 1.5
      vertex 65.85 5.85 1.5
    endloop
  endfacet
  facet normal 0 -0.894427 0.447214
    outer loop
      vertex 65.85 54.15 1.5
      vertex 118.15 58.15 9.5
      vertex 61.85 58.15 9.5
    endloop
  endfacet
  facet normal 0 -0.894427 0.447214
    outer loop
      vertex 118.15 58.15 9.5
      vertex 65.85 54.15 1.5
      vertex 114.15 54.15 1.5
    endloop
  endfacet
  facet normal 0.894427 0 0.447214
    outer loop
      vertex 61.85 58.15 9.5
      vertex 65.85 5.85 1.5
      vertex 65.85 54.15 1.5
    endloop
  endfacet
  facet normal 0.894427 0 0.447214
    outer loop
      vertex 65.85 5.85 1.5
      vertex 61.85 58.15 9.5
      vertex 61.85 1.85 9.5
    endloop
  endfacet
  facet normal -0.894427 0 0.447214
    outer loop
      vertex 114.15 5.85 1.5
      vertex 118.15 58.15 9.5
      vertex 114.15 54.15 1.5
    endloop
  endfacet
  facet normal -0.894427 0 0.447214
    outer loop
      vertex 118.15 58.15 9.5
      vertex 114.15 5.85 1.5
      vertex 118.15 1.85 9.5
    endloop
  endfacet
  facet normal -0 0 1
    outer loop
      vertex 58.15 58.15 9.5
      vertex 61.85 1.85 9.5
      vertex 61.85 58.15 9.5
    endloop
  endfacet
  facet normal 0 0 1
    outer loop
      vertex 61.85 1.85 9.5
      vertex 58.15 58.15 9.5
      vertex 58.15 1.85 9.5
    endloop
  endfacet
  facet normal 0 -1 0
    outer loop
      vertex 0 0 7
      vertex 120 0 40
      vertex 0 0 40
    endloop
  endfacet
  facet normal 0 -1 -0
    outer loop
      vertex 120 0 40
      vertex 0 0 7
      vertex 120 0 7
    endloop
  endfacet
  facet normal 0 1 -0
    outer loop
      vertex 120 60 7
      vertex 0 60 40
      vertex 120 60 40
    endloop
  endfacet
  facet normal 0 1 0
    outer loop
      vertex 0 60 40
      vertex 120 60 7
      vertex 0 60 7
    endloop
  endfacet
  facet normal -1 0 0
    outer loop
      vertex 0 0 7
      vertex 0 60 40
      vertex 0 60 7
    endloop
  endfacet
  facet normal -1 -0 0
    outer loop
      vertex 0 60 40
      vertex 0 0 7
      vertex 0 0 40
    endloop
  endfacet
  facet normal 1 -0 0
    outer loop
      vertex 120 0 40
      vertex 120 60 7
      vertex 120 60 40
    endloop
  endfacet
  facet normal 1 0 0
    outer loop
      vertex 120 60 7
      vertex 120 0 40
      vertex 120 0 7
    endloop
  endfacet
  facet normal -0 0 1
    outer loop
      vertex 47.5 12.5 33
      vertex 75.9783 4.5 33
      vertex 72.5 12.5 33
    endloop
  endfacet
  facet normal 0 0 1
    outer loop
      vertex 75.9783 4.5 33
      vertex 47.5 12.5 33
      vertex 44.0217 4.5 33
    endloop
  endfacet
  facet normal 0 0 1
    outer loop
      vertex 120 60 40
      vertex 119 59 40
      vertex 120 0 40
    endloop
  endfacet
  facet normal 0 0 1
    outer loop
      vertex 120 60 40
      vertex 1 59 40
      vertex 119 59 40
    endloop
  endfacet
  facet normal 0 0 1
    outer loop
      vertex 1 59 40
      vertex 0 60 40
      vertex 1 1 40
    endloop
  endfacet
  facet normal -0 0 1
    outer loop
      vertex 0 60 40
      vertex 1 59 40
      vertex 120 60 40
    endloop
  endfacet
  facet normal -0 0 1
    outer loop
      vertex 119 1 40
      vertex 120 0 40
      vertex 119 59 40
    endloop
  endfacet
  facet normal -0 0 1
    outer loop
      vertex 1 1 40
      vertex 120 0 40
      vertex 119 1 40
    endloop
  endfacet
  facet normal 0 0 1
    outer loop
      vertex 1 1 40
      vertex 0 0 40
      vertex 120 0 40
    endloop
  endfacet
  facet normal 0 0 1
    outer loop
      vertex 0 0 40
      vertex 1 1 40
      vertex 0 60 40
    endloop
  endfacet
  facet normal -0 0.894427 0.447214
    outer loop
      vertex 75.9783 4.5 33
      vertex 119 1 40
      vertex 115.5 4.5 33
    endloop
  endfacet
  facet normal 0 0.894427 0.447214
    outer loop
      vertex 119 1 40
      vertex 75.9783 4.5 33
      vertex 1 1 40
    endloop
  endfacet
  facet normal -0 0.894427 0.447214
    outer loop
      vertex 44.0217 4.5 33
      vertex 1 1 40
      vertex 75.9783 4.5 33
    endloop
  endfacet
  facet normal 0 0.894427 0.447214
    outer loop
      vertex 1 1 40
      vertex 44.0217 4.5 33
      vertex 4.5 4.5 33
    endloop
  endfacet
  facet normal 0 -0.894427 0.447214
    outer loop
      vertex 4.5 55.5 33
      vertex 119 59 40
      vertex 1 59 40
    endloop
  endfacet
  facet normal 0 -0.894427 0.447214
    outer loop
      vertex 119 59 40
      vertex 4.5 55.5 33
      vertex 115.5 55.5 33
    endloop
  endfacet
  facet normal 0.894427 0 0.447214
    outer loop
      vertex 1 59 40
      vertex 4.5 4.5 33
      vertex 4.5 55.5 33
    endloop
  endfacet
  facet normal 0.894427 0 0.447214
    outer loop
      vertex 4.5 4.5 33
      vertex 1 59 40
      vertex 1 1 40
    endloop
  endfacet
  facet normal -0.894427 0 0.447214
    outer loop
      vertex 115.5 4.5 33
      vertex 119 59 40
      vertex 115.5 55.5 33
    endloop
  endfacet
  facet normal -0.894427 0 0.447214
    outer loop
      vertex 119 59 40
      vertex 115.5 4.5 33
      vertex 119 1 40
    endloop
  endfacet
  facet normal 0 0.993702 -0.112056
    outer loop
      vertex 118.15 1.85 9.5
      vertex 75.9783 4.5 33
      vertex 115.5 4.5 33
    endloop
  endfacet
  facet normal 0 0.993702 -0.112056
    outer loop
      vertex 61.85 1.85 9.5
      vertex 70.461 3.12039 20.7657
      vertex 118.15 1.85 9.5
    endloop
  endfacet
  facet normal 9.23518e-08 0.993702 -0.112056
    outer loop
      vertex 75.9783 4.5 33
      vertex 118.15 1.85 9.5
      vertex 70.461 3.12039 20.7657
    endloop
  endfacet
  facet normal -9.23518e-08 0.993702 -0.112056
    outer loop
      vertex 1.85 1.85 9.5
      vertex 44.0217 4.5 33
      vertex 49.539 3.12039 20.7657
    endloop
  endfacet
  facet normal 0 0.993702 -0.112056
    outer loop
      vertex 70.461 3.12039 20.7657
      vertex 61.85 1.85 9.5
      vertex 49.539 3.12039 20.7657
    endloop
  endfacet
  facet normal 0 0.993702 -0.112056
    outer loop
      vertex 58.15 1.85 9.5
      vertex 49.539 3.12039 20.7657
      vertex 61.85 1.85 9.5
    endloop
  endfacet
  facet normal 0 0.993702 -0.112056
    outer loop
      vertex 1.85 1.85 9.5
      vertex 49.539 3.12039 20.7657
      vertex 58.15 1.85 9.5
    endloop
  endfacet
  facet normal 0 0.993702 -0.112056
    outer loop
      vertex 44.0217 4.5 33
      vertex 1.85 1.85 9.5
      vertex 4.5 4.5 33
    endloop
  endfacet
  facet normal -0 -0.993702 -0.112056
    outer loop
      vertex 58.15 58.15 9.5
      vertex 4.5 55.5 33
      vertex 1.85 58.15 9.5
    endloop
  endfacet
  facet normal 0 -0.993702 -0.112056
    outer loop
      vertex 4.5 55.5 33
      vertex 58.15 58.15 9.5
      vertex 115.5 55.5 33
    endloop
  endfacet
  facet normal -0 -0.993702 -0.112056
    outer loop
      vertex 61.85 58.15 9.5
      vertex 115.5 55.5 33
      vertex 58.15 58.15 9.5
    endloop
  endfacet
  facet normal 0 -0.993702 -0.112056
    outer loop
      vertex 115.5 55.5 33
      vertex 61.85 58.15 9.5
      vertex 118.15 58.15 9.5
    endloop
  endfacet
  facet normal 0.993702 0 -0.112056
    outer loop
      vertex 4.5 4.5 33
      vertex 1.85 58.15 9.5
      vertex 4.5 55.5 33
    endloop
  endfacet
  facet normal 0.993702 0 -0.112056
    outer loop
      vertex 1.85 58.15 9.5
      vertex 4.5 4.5 33
      vertex 1.85 1.85 9.5
    endloop
  endfacet
  facet normal -0.993702 0 -0.112056
    outer loop
      vertex 118.15 58.15 9.5
      vertex 115.5 4.5 33
      vertex 115.5 55.5 33
    endloop
  endfacet
  facet normal -0.993702 0 -0.112056
    outer loop
      vertex 115.5 4.5 33
      vertex 118.15 58.15 9.5
      vertex 118.15 1.85 9.5
    endloop
  endfacet
  facet normal 0 0.793607 -0.608431
    outer loop
      vertex 70.461 3.12039 20.7657
      vertex 47.5 12.5 33
      vertex 72.5 12.5 33
    endloop
  endfacet
  facet normal 0 0.793607 -0.608431
    outer loop
      vertex 47.5 12.5 33
      vertex 70.461 3.12039 20.7657
      vertex 49.539 3.12039 20.7657
    endloop
  endfacet
  facet normal 0.833612 0.362444 -0.416805
    outer loop
      vertex 75.9783 4.5 33
      vertex 70.461 3.12039 20.7657
      vertex 72.5 12.5 33
    endloop
  endfacet
  facet normal -0.833612 0.362444 -0.416805
    outer loop
      vertex 49.539 3.12039 20.7657
      vertex 44.0217 4.5 33
      vertex 47.5 12.5 33
    endloop
  endfacet
endsolid OpenSCAD_Model
