solid OpenSCAD_Model
  facet normal 0 0 -1
    outer loop
      vertex 4.65 4.65 0
      vertex 55.35 55.35 0
      vertex 55.35 4.65 0
    endloop
  endfacet
  facet normal -0 0 -1
    outer loop
      vertex 55.35 55.35 0
      vertex 4.65 4.65 0
      vertex 4.65 55.35 0
    endloop
  endfacet
  facet normal -0 0 1
    outer loop
      vertex 5.85 54.15 1.5
      vertex 54.15 5.85 1.5
      vertex 54.15 54.15 1.5
    endloop
  endfacet
  facet normal 0 0 1
    outer loop
      vertex 54.15 5.85 1.5
      vertex 5.85 54.15 1.5
      vertex 5.85 5.85 1.5
    endloop
  endfacet
  facet normal 0 0 -1
    outer loop
      vertex 1.15 178.85 7
      vertex 58.85 181.15 7
      vertex 58.85 178.85 7
    endloop
  endfacet
  facet normal -0 0 -1
    outer loop
      vertex 58.85 181.15 7
      vertex 1.15 178.85 7
      vertex 1.15 181.15 7
    endloop
  endfacet
  facet normal 0 0 -1
    outer loop
      vertex 1.15 118.85 7
      vertex 58.85 121.15 7
      vertex 58.85 118.85 7
    endloop
  endfacet
  facet normal -0 0 -1
    outer loop
      vertex 58.85 121.15 7
      vertex 1.15 118.85 7
      vertex 1.15 121.15 7
    endloop
  endfacet
  facet normal 0 0 -1
    outer loop
      vertex 1.15 58.85 7
      vertex 58.85 61.15 7
      vertex 58.85 58.85 7
    endloop
  endfacet
  facet normal -0 0 -1
    outer loop
      vertex 58.85 61.15 7
      vertex 1.15 58.85 7
      vertex 1.15 61.15 7
    endloop
  endfacet
  facet normal 0 0 -1
    outer loop
      vertex 61.15 178.85 7
      vertex 118.85 181.15 7
      vertex 118.85 178.85 7
    endloop
  endfacet
  facet normal -0 0 -1
    outer loop
      vertex 118.85 181.15 7
      vertex 61.15 178.85 7
      vertex 61.15 181.15 7
    endloop
  endfacet
  facet normal 0 0 -1
    outer loop
      vertex 61.15 118.85 7
      vertex 118.85 121.15 7
      vertex 118.85 118.85 7
    endloop
  endfacet
  facet normal -0 0 -1
    outer loop
      vertex 118.85 121.15 7
      vertex 61.15 118.85 7
      vertex 61.15 121.15 7
    endloop
  endfacet
  facet normal 0 0 -1
    outer loop
      vertex 61.15 58.85 7
      vertex 118.85 61.15 7
      vertex 118.85 58.85 7
    endloop
  endfacet
  facet normal -0 0 -1
    outer loop
      vertex 118.85 61.15 7
      vertex 61.15 58.85 7
      vertex 61.15 61.15 7
    endloop
  endfacet
  facet normal 0 0 -1
    outer loop
      vertex 118.85 58.85 7
      vertex 120 0 7
      vertex 118.85 1.15 7
    endloop
  endfacet
  facet normal 0 0 -1
    outer loop
      vertex 120 0 7
      vertex 61.15 1.15 7
      vertex 118.85 1.15 7
    endloop
  endfacet
  facet normal 0 0 -1
    outer loop
      vertex 58.85 58.85 7
      vertex 61.15 58.85 7
      vertex 61.15 1.15 7
    endloop
  endfacet
  facet normal 0 0 -1
    outer loop
      vertex 61.15 58.85 7
      vertex 58.85 58.85 7
      vertex 61.15 61.15 7
    endloop
  endfacet
  facet normal 0 0 -1
    outer loop
      vertex 61.15 61.15 7
      vertex 58.85 61.15 7
      vertex 61.15 118.85 7
    endloop
  endfacet
  facet normal 0 0 -1
    outer loop
      vertex 58.85 118.85 7
      vertex 61.15 118.85 7
      vertex 58.85 61.15 7
    endloop
  endfacet
  facet normal 0 0 -1
    outer loop
      vertex 58.85 121.15 7
      vertex 61.15 121.15 7
      vertex 58.85 118.85 7
    endloop
  endfacet
  facet normal 0 0 -1
    outer loop
      vertex 61.15 121.15 7
      vertex 58.85 121.15 7
      vertex 61.15 178.85 7
    endloop
  endfacet
  facet normal 0 0 -1
    outer loop
      vertex 58.85 58.85 7
      vertex 61.15 1.15 7
      vertex 58.85 1.15 7
    endloop
  endfacet
  facet normal 0 0 -1
    outer loop
      vertex 120 0 7
      vertex 58.85 1.15 7
      vertex 61.15 1.15 7
    endloop
  endfacet
  facet normal 0 0 -1
    outer loop
      vertex 0 0 7
      vertex 58.85 1.15 7
      vertex 120 0 7
    endloop
  endfacet
  facet normal 0 0 -1
    outer loop
      vertex 0 0 7
      vertex 1.15 58.85 7
      vertex 1.15 1.15 7
    endloop
  endfacet
  facet normal -0 0 -1
    outer loop
      vertex 1.15 58.85 7
      vertex 0 0 7
      vertex 1.15 61.15 7
    endloop
  endfacet
  facet normal -0 0 -1
    outer loop
      vertex 1.15 61.15 7
      vertex 0 0 7
      vertex 1.15 118.85 7
    endloop
  endfacet
  facet normal -0 0 -1
    outer loop
      vertex 1.15 118.85 7
      vertex 0 0 7
      vertex 1.15 121.15 7
    endloop
  endfacet
  facet normal -0 0 -1
    outer loop
      vertex 1.15 121.15 7
      vertex 0 0 7
      vertex 1.15 178.85 7
    endloop
  endfacet
  facet normal 0 0 -1
    outer loop
      vertex 0 240 7
      vertex 1.15 178.85 7
      vertex 0 0 7
    endloop
  endfacet
  facet normal 0 0 -1
    outer loop
      vertex 1.15 178.85 7
      vertex 0 240 7
      vertex 1.15 181.15 7
    endloop
  endfacet
  facet normal -0 0 -1
    outer loop
      vertex 58.85 1.15 7
      vertex 0 0 7
      vertex 1.15 1.15 7
    endloop
  endfacet
  facet normal 0 0 -1
    outer loop
      vertex 118.85 61.15 7
      vertex 120 0 7
      vertex 118.85 58.85 7
    endloop
  endfacet
  facet normal 0 0 -1
    outer loop
      vertex 120 0 7
      vertex 118.85 61.15 7
      vertex 120 240 7
    endloop
  endfacet
  facet normal 0 0 -1
    outer loop
      vertex 118.85 118.85 7
      vertex 120 240 7
      vertex 118.85 61.15 7
    endloop
  endfacet
  facet normal 0 0 -1
    outer loop
      vertex 118.85 121.15 7
      vertex 120 240 7
      vertex 118.85 118.85 7
    endloop
  endfacet
  facet normal 0 0 -1
    outer loop
      vertex 118.85 178.85 7
      vertex 120 240 7
      vertex 118.85 121.15 7
    endloop
  endfacet
  facet normal 0 0 -1
    outer loop
      vertex 118.85 181.15 7
      vertex 120 240 7
      vertex 118.85 178.85 7
    endloop
  endfacet
  facet normal 0 0 -1
    outer loop
      vertex 118.85 238.85 7
      vertex 120 240 7
      vertex 118.85 181.15 7
    endloop
  endfacet
  facet normal 0 0 -1
    outer loop
      vertex 61.15 238.85 7
      vertex 120 240 7
      vertex 118.85 238.85 7
    endloop
  endfacet
  facet normal -0 0 -1
    outer loop
      vertex 61.15 61.15 7
      vertex 58.85 58.85 7
      vertex 58.85 61.15 7
    endloop
  endfacet
  facet normal 0 0 -1
    outer loop
      vertex 61.15 118.85 7
      vertex 58.85 118.85 7
      vertex 61.15 121.15 7
    endloop
  endfacet
  facet normal 0 0 -1
    outer loop
      vertex 58.85 178.85 7
      vertex 61.15 178.85 7
      vertex 58.85 121.15 7
    endloop
  endfacet
  facet normal 0 0 -1
    outer loop
      vertex 61.15 178.85 7
      vertex 58.85 178.85 7
      vertex 61.15 181.15 7
    endloop
  endfacet
  facet normal 0 0 -1
    outer loop
      vertex 58.85 181.15 7
      vertex 61.15 181.15 7
      vertex 58.85 178.85 7
    endloop
  endfacet
  facet normal 0 0 -1
    outer loop
      vertex 61.15 181.15 7
      vertex 58.85 181.15 7
      vertex 61.15 238.85 7
    endloop
  endfacet
  facet normal 0 0 -1
    outer loop
      vertex 58.85 238.85 7
      vertex 61.15 238.85 7
      vertex 58.85 181.15 7
    endloop
  endfacet
  facet normal 0 0 -1
    outer loop
      vertex 58.85 238.85 7
      vertex 120 240 7
      vertex 61.15 238.85 7
    endloop
  endfacet
  facet normal 0 0 -1
    outer loop
      vertex 0 240 7
      vertex 58.85 238.85 7
      vertex 1.15 238.85 7
    endloop
  endfacet
  facet normal 0 0 -1
    outer loop
      vertex 58.85 238.85 7
      vertex 0 240 7
      vertex 120 240 7
    endloop
  endfacet
  facet normal 0 0 -1
    outer loop
      vertex 1.15 181.15 7
      vertex 0 240 7
      vertex 1.15 238.85 7
    endloop
  endfacet
  facet normal 0 -0.894427 -0.447214
    outer loop
      vertex 4.65 4.65 0
      vertex 58.85 1.15 7
      vertex 1.15 1.15 7
    endloop
  endfacet
  facet normal 0 -0.894427 -0.447214
    outer loop
      vertex 58.85 1.15 7
      vertex 4.65 4.65 0
      vertex 55.35 4.65 0
    endloop
  endfacet
  facet normal 0 0.894427 -0.447214
    outer loop
      vertex 55.35 55.35 0
      vertex 1.15 58.85 7
      vertex 58.85 58.85 7
    endloop
  endfacet
  facet normal 0 0.894427 -0.447214
    outer loop
      vertex 1.15 58.85 7
      vertex 55.35 55.35 0
      vertex 4.65 55.35 0
    endloop
  endfacet
  facet normal -0.894427 0 -0.447214
    outer loop
      vertex 4.65 4.65 0
      vertex 1.15 58.85 7
      vertex 4.65 55.35 0
    endloop
  endfacet
  facet normal -0.894427 -0 -0.447214
    outer loop
      vertex 1.15 58.85 7
      vertex 4.65 4.65 0
      vertex 1.15 1.15 7
    endloop
  endfacet
  facet normal 0.894427 0 -0.447214
    outer loop
      vertex 58.85 58.85 7
      vertex 55.35 4.65 0
      vertex 55.35 55.35 0
    endloop
  endfacet
  facet normal 0.894427 0 -0.447214
    outer loop
      vertex 55.35 4.65 0
      vertex 58.85 58.85 7
      vertex 58.85 1.15 7
    endloop
  endfacet
  facet normal 0 0.894427 0.447214
    outer loop
      vertex 54.15 5.85 1.5
      vertex 1.85 1.85 9.5
      vertex 58.15 1.85 9.5
    endloop
  endfacet
  facet normal 0 0.894427 0.447214
    outer loop
      vertex 1.85 1.85 9.5
      vertex 54.15 5.85 1.5
      vertex 5.85 5.85 1.5
    endloop
  endfacet
  facet normal 0 -0.894427 0.447214
    outer loop
      vertex 5.85 54.15 1.5
      vertex 58.15 58.15 9.5
      vertex 1.85 58.15 9.5
    endloop
  endfacet
  facet normal 0 -0.894427 0.447214
    outer loop
      vertex 58.15 58.15 9.5
      vertex 5.85 54.15 1.5
      vertex 54.15 54.15 1.5
    endloop
  endfacet
  facet normal 0.894427 0 0.447214
    outer loop
      vertex 1.85 58.15 9.5
      vertex 5.85 5.85 1.5
      vertex 5.85 54.15 1.5
    endloop
  endfacet
  facet normal 0.894427 0 0.447214
    outer loop
      vertex 5.85 5.85 1.5
      vertex 1.85 58.15 9.5
      vertex 1.85 1.85 9.5
    endloop
  endfacet
  facet normal -0.894427 0 0.447214
    outer loop
      vertex 54.15 5.85 1.5
      vertex 58.15 58.15 9.5
      vertex 54.15 54.15 1.5
    endloop
  endfacet
  facet normal -0.894427 0 0.447214
    outer loop
      vertex 58.15 58.15 9.5
      vertex 54.15 5.85 1.5
      vertex 58.15 1.85 9.5
    endloop
  endfacet
  facet normal 0 0 -1
    outer loop
      vertex 4.65 64.65 0
      vertex 55.35 115.35 0
      vertex 55.35 64.65 0
    endloop
  endfacet
  facet normal -0 0 -1
    outer loop
      vertex 55.35 115.35 0
      vertex 4.65 64.65 0
      vertex 4.65 115.35 0
    endloop
  endfacet
  facet normal -0 0 1
    outer loop
      vertex 5.85 114.15 1.5
      vertex 54.15 65.85 1.5
      vertex 54.15 114.15 1.5
    endloop
  endfacet
  facet normal 0 0 1
    outer loop
      vertex 54.15 65.85 1.5
      vertex 5.85 114.15 1.5
      vertex 5.85 65.85 1.5
    endloop
  endfacet
  facet normal 0 -0.894427 -0.447214
    outer loop
      vertex 4.65 64.65 0
      vertex 58.85 61.15 7
      vertex 1.15 61.15 7
    endloop
  endfacet
  facet normal 0 -0.894427 -0.447214
    outer loop
      vertex 58.85 61.15 7
      vertex 4.65 64.65 0
      vertex 55.35 64.65 0
    endloop
  endfacet
  facet normal 0 0.894427 -0.447214
    outer loop
      vertex 55.35 115.35 0
      vertex 1.15 118.85 7
      vertex 58.85 118.85 7
    endloop
  endfacet
  facet normal 0 0.894427 -0.447214
    outer loop
      vertex 1.15 118.85 7
      vertex 55.35 115.35 0
      vertex 4.65 115.35 0
    endloop
  endfacet
  facet normal -0.894427 0 -0.447214
    outer loop
      vertex 4.65 64.65 0
      vertex 1.15 118.85 7
      vertex 4.65 115.35 0
    endloop
  endfacet
  facet normal -0.894427 -0 -0.447214
    outer loop
      vertex 1.15 118.85 7
      vertex 4.65 64.65 0
      vertex 1.15 61.15 7
    endloop
  endfacet
  facet normal 0.894427 0 -0.447214
    outer loop
      vertex 58.85 118.85 7
      vertex 55.35 64.65 0
      vertex 55.35 115.35 0
    endloop
  endfacet
  facet normal 0.894427 0 -0.447214
    outer loop
      vertex 55.35 64.65 0
      vertex 58.85 118.85 7
      vertex 58.85 61.15 7
    endloop
  endfacet
  facet normal 0 0.894427 0.447214
    outer loop
      vertex 54.15 65.85 1.5
      vertex 1.85 61.85 9.5
      vertex 58.15 61.85 9.5
    endloop
  endfacet
  facet normal 0 0.894427 0.447214
    outer loop
      vertex 1.85 61.85 9.5
      vertex 54.15 65.85 1.5
      vertex 5.85 65.85 1.5
    endloop
  endfacet
  facet normal 0 -0.894427 0.447214
    outer loop
      vertex 5.85 114.15 1.5
      vertex 58.15 118.15 9.5
      vertex 1.85 118.15 9.5
    endloop
  endfacet
  facet normal 0 -0.894427 0.447214
    outer loop
      vertex 58.15 118.15 9.5
      vertex 5.85 114.15 1.5
      vertex 54.15 114.15 1.5
    endloop
  endfacet
  facet normal 0.894427 0 0.447214
    outer loop
      vertex 1.85 118.15 9.5
      vertex 5.85 65.85 1.5
      vertex 5.85 114.15 1.5
    endloop
  endfacet
  facet normal 0.894427 0 0.447214
    outer loop
      vertex 5.85 65.85 1.5
      vertex 1.85 118.15 9.5
      vertex 1.85 61.85 9.5
    endloop
  endfacet
  facet normal -0.894427 0 0.447214
    outer loop
      vertex 54.15 65.85 1.5
      vertex 58.15 118.15 9.5
      vertex 54.15 114.15 1.5
    endloop
  endfacet
  facet normal -0.894427 0 0.447214
    outer loop
      vertex 58.15 118.15 9.5
      vertex 54.15 65.85 1.5
      vertex 58.15 61.85 9.5
    endloop
  endfacet
  facet normal 0 0 -1
    outer loop
      vertex 4.65 124.65 0
      vertex 55.35 175.35 0
      vertex 55.35 124.65 0
    endloop
  endfacet
  facet normal -0 0 -1
    outer loop
      vertex 55.35 175.35 0
      vertex 4.65 124.65 0
      vertex 4.65 175.35 0
    endloop
  endfacet
  facet normal -0 0 1
    outer loop
      vertex 5.85 174.15 1.5
      vertex 54.15 125.85 1.5
      vertex 54.15 174.15 1.5
    endloop
  endfacet
  facet normal 0 0 1
    outer loop
      vertex 54.15 125.85 1.5
      vertex 5.85 174.15 1.5
      vertex 5.85 125.85 1.5
    endloop
  endfacet
  facet normal 0 -0.894427 -0.447214
    outer loop
      vertex 4.65 124.65 0
      vertex 58.85 121.15 7
      vertex 1.15 121.15 7
    endloop
  endfacet
  facet normal 0 -0.894427 -0.447214
    outer loop
      vertex 58.85 121.15 7
      vertex 4.65 124.65 0
      vertex 55.35 124.65 0
    endloop
  endfacet
  facet normal 0 0.894427 -0.447214
    outer loop
      vertex 55.35 175.35 0
      vertex 1.15 178.85 7
      vertex 58.85 178.85 7
    endloop
  endfacet
  facet normal 0 0.894427 -0.447214
    outer loop
      vertex 1.15 178.85 7
      vertex 55.35 175.35 0
      vertex 4.65 175.35 0
    endloop
  endfacet
  facet normal -0.894427 0 -0.447214
    outer loop
      vertex 4.65 124.65 0
      vertex 1.15 178.85 7
      vertex 4.65 175.35 0
    endloop
  endfacet
  facet normal -0.894427 -0 -0.447214
    outer loop
      vertex 1.15 178.85 7
      vertex 4.65 124.65 0
      vertex 1.15 121.15 7
    endloop
  endfacet
  facet normal 0.894427 0 -0.447214
    outer loop
      vertex 58.85 178.85 7
      vertex 55.35 124.65 0
      vertex 55.35 175.35 0
    endloop
  endfacet
  facet normal 0.894427 0 -0.447214
    outer loop
      vertex 55.35 124.65 0
      vertex 58.85 178.85 7
      vertex 58.85 121.15 7
    endloop
  endfacet
  facet normal 0 0.894427 0.447214
    outer loop
      vertex 54.15 125.85 1.5
      vertex 1.85 121.85 9.5
      vertex 58.15 121.85 9.5
    endloop
  endfacet
  facet normal 0 0.894427 0.447214
    outer loop
      vertex 1.85 121.85 9.5
      vertex 54.15 125.85 1.5
      vertex 5.85 125.85 1.5
    endloop
  endfacet
  facet normal 0 -0.894427 0.447214
    outer loop
      vertex 5.85 174.15 1.5
      vertex 58.15 178.15 9.5
      vertex 1.85 178.15 9.5
    endloop
  endfacet
  facet normal 0 -0.894427 0.447214
    outer loop
      vertex 58.15 178.15 9.5
      vertex 5.85 174.15 1.5
      vertex 54.15 174.15 1.5
    endloop
  endfacet
  facet normal 0.894427 0 0.447214
    outer loop
      vertex 1.85 178.15 9.5
      vertex 5.85 125.85 1.5
      vertex 5.85 174.15 1.5
    endloop
  endfacet
  facet normal 0.894427 0 0.447214
    outer loop
      vertex 5.85 125.85 1.5
      vertex 1.85 178.15 9.5
      vertex 1.85 121.85 9.5
    endloop
  endfacet
  facet normal -0.894427 0 0.447214
    outer loop
      vertex 54.15 125.85 1.5
      vertex 58.15 178.15 9.5
      vertex 54.15 174.15 1.5
    endloop
  endfacet
  facet normal -0.894427 0 0.447214
    outer loop
      vertex 58.15 178.15 9.5
      vertex 54.15 125.85 1.5
      vertex 58.15 121.85 9.5
    endloop
  endfacet
  facet normal 0 0 -1
    outer loop
      vertex 4.65 184.65 0
      vertex 55.35 235.35 0
      vertex 55.35 184.65 0
    endloop
  endfacet
  facet normal -0 0 -1
    outer loop
      vertex 55.35 235.35 0
      vertex 4.65 184.65 0
      vertex 4.65 235.35 0
    endloop
  endfacet
  facet normal -0 0 1
    outer loop
      vertex 5.85 234.15 1.5
      vertex 54.15 185.85 1.5
      vertex 54.15 234.15 1.5
    endloop
  endfacet
  facet normal 0 0 1
    outer loop
      vertex 54.15 185.85 1.5
      vertex 5.85 234.15 1.5
      vertex 5.85 185.85 1.5
    endloop
  endfacet
  facet normal 0 -0.894427 -0.447214
    outer loop
      vertex 4.65 184.65 0
      vertex 58.85 181.15 7
      vertex 1.15 181.15 7
    endloop
  endfacet
  facet normal 0 -0.894427 -0.447214
    outer loop
      vertex 58.85 181.15 7
      vertex 4.65 184.65 0
      vertex 55.35 184.65 0
    endloop
  endfacet
  facet normal 0 0.894427 -0.447214
    outer loop
      vertex 55.35 235.35 0
      vertex 1.15 238.85 7
      vertex 58.85 238.85 7
    endloop
  endfacet
  facet normal 0 0.894427 -0.447214
    outer loop
      vertex 1.15 238.85 7
      vertex 55.35 235.35 0
      vertex 4.65 235.35 0
    endloop
  endfacet
  facet normal -0.894427 0 -0.447214
    outer loop
      vertex 4.65 184.65 0
      vertex 1.15 238.85 7
      vertex 4.65 235.35 0
    endloop
  endfacet
  facet normal -0.894427 -0 -0.447214
    outer loop
      vertex 1.15 238.85 7
      vertex 4.65 184.65 0
      vertex 1.15 181.15 7
    endloop
  endfacet
  facet normal 0.894427 0 -0.447214
    outer loop
      vertex 58.85 238.85 7
      vertex 55.35 184.65 0
      vertex 55.35 235.35 0
    endloop
  endfacet
  facet normal 0.894427 0 -0.447214
    outer loop
      vertex 55.35 184.65 0
      vertex 58.85 238.85 7
      vertex 58.85 181.15 7
    endloop
  endfacet
  facet normal 0 0.894427 0.447214
    outer loop
      vertex 54.15 185.85 1.5
      vertex 1.85 181.85 9.5
      vertex 58.15 181.85 9.5
    endloop
  endfacet
  facet normal 0 0.894427 0.447214
    outer loop
      vertex 1.85 181.85 9.5
      vertex 54.15 185.85 1.5
      vertex 5.85 185.85 1.5
    endloop
  endfacet
  facet normal 0 -0.894427 0.447214
    outer loop
      vertex 5.85 234.15 1.5
      vertex 58.15 238.15 9.5
      vertex 1.85 238.15 9.5
    endloop
  endfacet
  facet normal 0 -0.894427 0.447214
    outer loop
      vertex 58.15 238.15 9.5
      vertex 5.85 234.15 1.5
      vertex 54.15 234.15 1.5
    endloop
  endfacet
  facet normal 0.894427 0 0.447214
    outer loop
      vertex 1.85 238.15 9.5
      vertex 5.85 185.85 1.5
      vertex 5.85 234.15 1.5
    endloop
  endfacet
  facet normal 0.894427 0 0.447214
    outer loop
      vertex 5.85 185.85 1.5
      vertex 1.85 238.15 9.5
      vertex 1.85 181.85 9.5
    endloop
  endfacet
  facet normal -0.894427 0 0.447214
    outer loop
      vertex 54.15 185.85 1.5
      vertex 58.15 238.15 9.5
      vertex 54.15 234.15 1.5
    endloop
  endfacet
  facet normal -0.894427 0 0.447214
    outer loop
      vertex 58.15 238.15 9.5
      vertex 54.15 185.85 1.5
      vertex 58.15 181.85 9.5
    endloop
  endfacet
  facet normal 0 0 -1
    outer loop
      vertex 64.65 4.65 0
      vertex 115.35 55.35 0
      vertex 115.35 4.65 0
    endloop
  endfacet
  facet normal -0 0 -1
    outer loop
      vertex 115.35 55.35 0
      vertex 64.65 4.65 0
      vertex 64.65 55.35 0
    endloop
  endfacet
  facet normal -0 0 1
    outer loop
      vertex 65.85 54.15 1.5
      vertex 114.15 5.85 1.5
      vertex 114.15 54.15 1.5
    endloop
  endfacet
  facet normal 0 0 1
    outer loop
      vertex 114.15 5.85 1.5
      vertex 65.85 54.15 1.5
      vertex 65.85 5.85 1.5
    endloop
  endfacet
  facet normal 0 -0.894427 -0.447214
    outer loop
      vertex 64.65 4.65 0
      vertex 118.85 1.15 7
      vertex 61.15 1.15 7
    endloop
  endfacet
  facet normal 0 -0.894427 -0.447214
    outer loop
      vertex 118.85 1.15 7
      vertex 64.65 4.65 0
      vertex 115.35 4.65 0
    endloop
  endfacet
  facet normal 0 0.894427 -0.447214
    outer loop
      vertex 115.35 55.35 0
      vertex 61.15 58.85 7
      vertex 118.85 58.85 7
    endloop
  endfacet
  facet normal 0 0.894427 -0.447214
    outer loop
      vertex 61.15 58.85 7
      vertex 115.35 55.35 0
      vertex 64.65 55.35 0
    endloop
  endfacet
  facet normal -0.894427 0 -0.447214
    outer loop
      vertex 64.65 4.65 0
      vertex 61.15 58.85 7
      vertex 64.65 55.35 0
    endloop
  endfacet
  facet normal -0.894427 -0 -0.447214
    outer loop
      vertex 61.15 58.85 7
      vertex 64.65 4.65 0
      vertex 61.15 1.15 7
    endloop
  endfacet
  facet normal 0.894427 0 -0.447214
    outer loop
      vertex 118.85 58.85 7
      vertex 115.35 4.65 0
      vertex 115.35 55.35 0
    endloop
  endfacet
  facet normal 0.894427 0 -0.447214
    outer loop
      vertex 115.35 4.65 0
      vertex 118.85 58.85 7
      vertex 118.85 1.15 7
    endloop
  endfacet
  facet normal 0 0.894427 0.447214
    outer loop
      vertex 114.15 5.85 1.5
      vertex 61.85 1.85 9.5
      vertex 118.15 1.85 9.5
    endloop
  endfacet
  facet normal 0 0.894427 0.447214
    outer loop
      vertex 61.85 1.85 9.5
      vertex 114.15 5.85 1.5
      vertex 65.85 5.85 1.5
    endloop
  endfacet
  facet normal 0 -0.894427 0.447214
    outer loop
      vertex 65.85 54.15 1.5
      vertex 118.15 58.15 9.5
      vertex 61.85 58.15 9.5
    endloop
  endfacet
  facet normal 0 -0.894427 0.447214
    outer loop
      vertex 118.15 58.15 9.5
      vertex 65.85 54.15 1.5
      vertex 114.15 54.15 1.5
    endloop
  endfacet
  facet normal 0.894427 0 0.447214
    outer loop
      vertex 61.85 58.15 9.5
      vertex 65.85 5.85 1.5
      vertex 65.85 54.15 1.5
    endloop
  endfacet
  facet normal 0.894427 0 0.447214
    outer loop
      vertex 65.85 5.85 1.5
      vertex 61.85 58.15 9.5
      vertex 61.85 1.85 9.5
    endloop
  endfacet
  facet normal -0.894427 0 0.447214
    outer loop
      vertex 114.15 5.85 1.5
      vertex 118.15 58.15 9.5
      vertex 114.15 54.15 1.5
    endloop
  endfacet
  facet normal -0.894427 0 0.447214
    outer loop
      vertex 118.15 58.15 9.5
      vertex 114.15 5.85 1.5
      vertex 118.15 1.85 9.5
    endloop
  endfacet
  facet normal 0 0 -1
    outer loop
      vertex 64.65 64.65 0
      vertex 115.35 115.35 0
      vertex 115.35 64.65 0
    endloop
  endfacet
  facet normal -0 0 -1
    outer loop
      vertex 115.35 115.35 0
      vertex 64.65 64.65 0
      vertex 64.65 115.35 0
    endloop
  endfacet
  facet normal -0 0 1
    outer loop
      vertex 65.85 114.15 1.5
      vertex 114.15 65.85 1.5
      vertex 114.15 114.15 1.5
    endloop
  endfacet
  facet normal 0 0 1
    outer loop
      vertex 114.15 65.85 1.5
      vertex 65.85 114.15 1.5
      vertex 65.85 65.85 1.5
    endloop
  endfacet
  facet normal 0 -0.894427 -0.447214
    outer loop
      vertex 64.65 64.65 0
      vertex 118.85 61.15 7
      vertex 61.15 61.15 7
    endloop
  endfacet
  facet normal 0 -0.894427 -0.447214
    outer loop
      vertex 118.85 61.15 7
      vertex 64.65 64.65 0
      vertex 115.35 64.65 0
    endloop
  endfacet
  facet normal 0 0.894427 -0.447214
    outer loop
      vertex 115.35 115.35 0
      vertex 61.15 118.85 7
      vertex 118.85 118.85 7
    endloop
  endfacet
  facet normal 0 0.894427 -0.447214
    outer loop
      vertex 61.15 118.85 7
      vertex 115.35 115.35 0
      vertex 64.65 115.35 0
    endloop
  endfacet
  facet normal -0.894427 0 -0.447214
    outer loop
      vertex 64.65 64.65 0
      vertex 61.15 118.85 7
      vertex 64.65 115.35 0
    endloop
  endfacet
  facet normal -0.894427 -0 -0.447214
    outer loop
      vertex 61.15 118.85 7
      vertex 64.65 64.65 0
      vertex 61.15 61.15 7
    endloop
  endfacet
  facet normal 0.894427 0 -0.447214
    outer loop
      vertex 118.85 118.85 7
      vertex 115.35 64.65 0
      vertex 115.35 115.35 0
    endloop
  endfacet
  facet normal 0.894427 0 -0.447214
    outer loop
      vertex 115.35 64.65 0
      vertex 118.85 118.85 7
      vertex 118.85 61.15 7
    endloop
  endfacet
  facet normal 0 0.894427 0.447214
    outer loop
      vertex 114.15 65.85 1.5
      vertex 61.85 61.85 9.5
      vertex 118.15 61.85 9.5
    endloop
  endfacet
  facet normal 0 0.894427 0.447214
    outer loop
      vertex 61.85 61.85 9.5
      vertex 114.15 65.85 1.5
      vertex 65.85 65.85 1.5
    endloop
  endfacet
  facet normal 0 -0.894427 0.447214
    outer loop
      vertex 65.85 114.15 1.5
      vertex 118.15 118.15 9.5
      vertex 61.85 118.15 9.5
    endloop
  endfacet
  facet normal 0 -0.894427 0.447214
    outer loop
      vertex 118.15 118.15 9.5
      vertex 65.85 114.15 1.5
      vertex 114.15 114.15 1.5
    endloop
  endfacet
  facet normal 0.894427 0 0.447214
    outer loop
      vertex 61.85 118.15 9.5
      vertex 65.85 65.85 1.5
      vertex 65.85 114.15 1.5
    endloop
  endfacet
  facet normal 0.894427 0 0.447214
    outer loop
      vertex 65.85 65.85 1.5
      vertex 61.85 118.15 9.5
      vertex 61.85 61.85 9.5
    endloop
  endfacet
  facet normal -0.894427 0 0.447214
    outer loop
      vertex 114.15 65.85 1.5
      vertex 118.15 118.15 9.5
      vertex 114.15 114.15 1.5
    endloop
  endfacet
  facet normal -0.894427 0 0.447214
    outer loop
      vertex 118.15 118.15 9.5
      vertex 114.15 65.85 1.5
      vertex 118.15 61.85 9.5
    endloop
  endfacet
  facet normal 0 0 -1
    outer loop
      vertex 64.65 124.65 0
      vertex 115.35 175.35 0
      vertex 115.35 124.65 0
    endloop
  endfacet
  facet normal -0 0 -1
    outer loop
      vertex 115.35 175.35 0
      vertex 64.65 124.65 0
      vertex 64.65 175.35 0
    endloop
  endfacet
  facet normal -0 0 1
    outer loop
      vertex 65.85 174.15 1.5
      vertex 114.15 125.85 1.5
      vertex 114.15 174.15 1.5
    endloop
  endfacet
  facet normal 0 0 1
    outer loop
      vertex 114.15 125.85 1.5
      vertex 65.85 174.15 1.5
      vertex 65.85 125.85 1.5
    endloop
  endfacet
  facet normal 0 -0.894427 -0.447214
    outer loop
      vertex 64.65 124.65 0
      vertex 118.85 121.15 7
      vertex 61.15 121.15 7
    endloop
  endfacet
  facet normal 0 -0.894427 -0.447214
    outer loop
      vertex 118.85 121.15 7
      vertex 64.65 124.65 0
      vertex 115.35 124.65 0
    endloop
  endfacet
  facet normal 0 0.894427 -0.447214
    outer loop
      vertex 115.35 175.35 0
      vertex 61.15 178.85 7
      vertex 118.85 178.85 7
    endloop
  endfacet
  facet normal 0 0.894427 -0.447214
    outer loop
      vertex 61.15 178.85 7
      vertex 115.35 175.35 0
      vertex 64.65 175.35 0
    endloop
  endfacet
  facet normal -0.894427 0 -0.447214
    outer loop
      vertex 64.65 124.65 0
      vertex 61.15 178.85 7
      vertex 64.65 175.35 0
    endloop
  endfacet
  facet normal -0.894427 -0 -0.447214
    outer loop
      vertex 61.15 178.85 7
      vertex 64.65 124.65 0
      vertex 61.15 121.15 7
    endloop
  endfacet
  facet normal 0.894427 0 -0.447214
    outer loop
      vertex 118.85 178.85 7
      vertex 115.35 124.65 0
      vertex 115.35 175.35 0
    endloop
  endfacet
  facet normal 0.894427 0 -0.447214
    outer loop
      vertex 115.35 124.65 0
      vertex 118.85 178.85 7
      vertex 118.85 121.15 7
    endloop
  endfacet
  facet normal 0 0.894427 0.447214
    outer loop
      vertex 114.15 125.85 1.5
      vertex 61.85 121.85 9.5
      vertex 118.15 121.85 9.5
    endloop
  endfacet
  facet normal 0 0.894427 0.447214
    outer loop
      vertex 61.85 121.85 9.5
      vertex 114.15 125.85 1.5
      vertex 65.85 125.85 1.5
    endloop
  endfacet
  facet normal 0 -0.894427 0.447214
    outer loop
      vertex 65.85 174.15 1.5
      vertex 118.15 178.15 9.5
      vertex 61.85 178.15 9.5
    endloop
  endfacet
  facet normal 0 -0.894427 0.447214
    outer loop
      vertex 118.15 178.15 9.5
      vertex 65.85 174.15 1.5
      vertex 114.15 174.15 1.5
    endloop
  endfacet
  facet normal 0.894427 0 0.447214
    outer loop
      vertex 61.85 178.15 9.5
      vertex 65.85 125.85 1.5
      vertex 65.85 174.15 1.5
    endloop
  endfacet
  facet normal 0.894427 0 0.447214
    outer loop
      vertex 65.85 125.85 1.5
      vertex 61.85 178.15 9.5
      vertex 61.85 121.85 9.5
    endloop
  endfacet
  facet normal -0.894427 0 0.447214
    outer loop
      vertex 114.15 125.85 1.5
      vertex 118.15 178.15 9.5
      vertex 114.15 174.15 1.5
    endloop
  endfacet
  facet normal -0.894427 0 0.447214
    outer loop
      vertex 118.15 178.15 9.5
      vertex 114.15 125.85 1.5
      vertex 118.15 121.85 9.5
    endloop
  endfacet
  facet normal 0 0 -1
    outer loop
      vertex 64.65 184.65 0
      vertex 115.35 235.35 0
      vertex 115.35 184.65 0
    endloop
  endfacet
  facet normal -0 0 -1
    outer loop
      vertex 115.35 235.35 0
      vertex 64.65 184.65 0
      vertex 64.65 235.35 0
    endloop
  endfacet
  facet normal -0 0 1
    outer loop
      vertex 65.85 234.15 1.5
      vertex 114.15 185.85 1.5
      vertex 114.15 234.15 1.5
    endloop
  endfacet
  facet normal 0 0 1
    outer loop
      vertex 114.15 185.85 1.5
      vertex 65.85 234.15 1.5
      vertex 65.85 185.85 1.5
    endloop
  endfacet
  facet normal 0 -0.894427 -0.447214
    outer loop
      vertex 64.65 184.65 0
      vertex 118.85 181.15 7
      vertex 61.15 181.15 7
    endloop
  endfacet
  facet normal 0 -0.894427 -0.447214
    outer loop
      vertex 118.85 181.15 7
      vertex 64.65 184.65 0
      vertex 115.35 184.65 0
    endloop
  endfacet
  facet normal 0 0.894427 -0.447214
    outer loop
      vertex 115.35 235.35 0
      vertex 61.15 238.85 7
      vertex 118.85 238.85 7
    endloop
  endfacet
  facet normal 0 0.894427 -0.447214
    outer loop
      vertex 61.15 238.85 7
      vertex 115.35 235.35 0
      vertex 64.65 235.35 0
    endloop
  endfacet
  facet normal -0.894427 0 -0.447214
    outer loop
      vertex 64.65 184.65 0
      vertex 61.15 238.85 7
      vertex 64.65 235.35 0
    endloop
  endfacet
  facet normal -0.894427 -0 -0.447214
    outer loop
      vertex 61.15 238.85 7
      vertex 64.65 184.65 0
      vertex 61.15 181.15 7
    endloop
  endfacet
  facet normal 0.894427 0 -0.447214
    outer loop
      vertex 118.85 238.85 7
      vertex 115.35 184.65 0
      vertex 115.35 235.35 0
    endloop
  endfacet
  facet normal 0.894427 0 -0.447214
    outer loop
      vertex 115.35 184.65 0
      vertex 118.85 238.85 7
      vertex 118.85 181.15 7
    endloop
  endfacet
  facet normal 0 0.894427 0.447214
    outer loop
      vertex 114.15 185.85 1.5
      vertex 61.85 181.85 9.5
      vertex 118.15 181.85 9.5
    endloop
  endfacet
  facet normal 0 0.894427 0.447214
    outer loop
      vertex 61.85 181.85 9.5
      vertex 114.15 185.85 1.5
      vertex 65.85 185.85 1.5
    endloop
  endfacet
  facet normal 0 -0.894427 0.447214
    outer loop
      vertex 65.85 234.15 1.5
      vertex 118.15 238.15 9.5
      vertex 61.85 238.15 9.5
    endloop
  endfacet
  facet normal 0 -0.894427 0.447214
    outer loop
      vertex 118.15 238.15 9.5
      vertex 65.85 234.15 1.5
      vertex 114.15 234.15 1.5
    endloop
  endfacet
  facet normal 0.894427 0 0.447214
    outer loop
      vertex 61.85 238.15 9.5
      vertex 65.85 185.85 1.5
      vertex 65.85 234.15 1.5
    endloop
  endfacet
  facet normal 0.894427 0 0.447214
    outer loop
      vertex 65.85 185.85 1.5
      vertex 61.85 238.15 9.5
      vertex 61.85 181.85 9.5
    endloop
  endfacet
  facet normal -0.894427 0 0.447214
    outer loop
      vertex 114.15 185.85 1.5
      vertex 118.15 238.15 9.5
      vertex 114.15 234.15 1.5
    endloop
  endfacet
  facet normal -0.894427 0 0.447214
    outer loop
      vertex 118.15 238.15 9.5
      vertex 114.15 185.85 1.5
      vertex 118.15 181.85 9.5
    endloop
  endfacet
  facet normal -0 0 1
    outer loop
      vertex 1.85 61.85 9.5
      vertex 58.15 58.15 9.5
      vertex 58.15 61.85 9.5
    endloop
  endfacet
  facet normal 0 0 1
    outer loop
      vertex 58.15 58.15 9.5
      vertex 1.85 61.85 9.5
      vertex 1.85 58.15 9.5
    endloop
  endfacet
  facet normal -0 0 1
    outer loop
      vertex 1.85 121.85 9.5
      vertex 58.15 118.15 9.5
      vertex 58.15 121.85 9.5
    endloop
  endfacet
  facet normal 0 0 1
    outer loop
      vertex 58.15 118.15 9.5
      vertex 1.85 121.85 9.5
      vertex 1.85 118.15 9.5
    endloop
  endfacet
  facet normal -0 0 1
    outer loop
      vertex 1.85 181.85 9.5
      vertex 58.15 178.15 9.5
      vertex 58.15 181.85 9.5
    endloop
  endfacet
  facet normal 0 0 1
    outer loop
      vertex 58.15 178.15 9.5
      vertex 1.85 181.85 9.5
      vertex 1.85 178.15 9.5
    endloop
  endfacet
  facet normal 0 0 1
    outer loop
      vertex 58.15 181.85 9.5
      vertex 61.85 181.85 9.5
      vertex 61.85 238.15 9.5
    endloop
  endfacet
  facet normal 0 0 1
    outer loop
      vertex 61.85 181.85 9.5
      vertex 58.15 181.85 9.5
      vertex 61.85 178.15 9.5
    endloop
  endfacet
  facet normal 0 0 1
    outer loop
      vertex 61.85 178.15 9.5
      vertex 58.15 178.15 9.5
      vertex 61.85 121.85 9.5
    endloop
  endfacet
  facet normal 0 0 1
    outer loop
      vertex 58.15 121.85 9.5
      vertex 61.85 121.85 9.5
      vertex 58.15 178.15 9.5
    endloop
  endfacet
  facet normal 0 0 1
    outer loop
      vertex 58.15 118.15 9.5
      vertex 61.85 118.15 9.5
      vertex 58.15 121.85 9.5
    endloop
  endfacet
  facet normal 0 0 1
    outer loop
      vertex 61.85 118.15 9.5
      vertex 58.15 118.15 9.5
      vertex 61.85 61.85 9.5
    endloop
  endfacet
  facet normal 0 0 1
    outer loop
      vertex 58.15 181.85 9.5
      vertex 61.85 238.15 9.5
      vertex 58.15 238.15 9.5
    endloop
  endfacet
  facet normal 0 0 1
    outer loop
      vertex 61.85 178.15 9.5
      vertex 58.15 181.85 9.5
      vertex 58.15 178.15 9.5
    endloop
  endfacet
  facet normal 0 0 1
    outer loop
      vertex 61.85 121.85 9.5
      vertex 58.15 121.85 9.5
      vertex 61.85 118.15 9.5
    endloop
  endfacet
  facet normal 0 0 1
    outer loop
      vertex 58.15 61.85 9.5
      vertex 61.85 61.85 9.5
      vertex 58.15 118.15 9.5
    endloop
  endfacet
  facet normal 0 0 1
    outer loop
      vertex 61.85 61.85 9.5
      vertex 58.15 61.85 9.5
      vertex 61.85 58.15 9.5
    endloop
  endfacet
  facet normal 0 0 1
    outer loop
      vertex 58.15 58.15 9.5
      vertex 61.85 58.15 9.5
      vertex 58.15 61.85 9.5
    endloop
  endfacet
  facet normal 0 0 1
    outer loop
      vertex 61.85 58.15 9.5
      vertex 58.15 58.15 9.5
      vertex 61.85 1.85 9.5
    endloop
  endfacet
  facet normal 0 0 1
    outer loop
      vertex 61.85 1.85 9.5
      vertex 58.15 58.15 9.5
      vertex 58.15 1.85 9.5
    endloop
  endfacet
  facet normal -0 0 1
    outer loop
      vertex 61.85 181.85 9.5
      vertex 118.15 178.15 9.5
      vertex 118.15 181.85 9.5
    endloop
  endfacet
  facet normal 0 0 1
    outer loop
      vertex 118.15 178.15 9.5
      vertex 61.85 181.85 9.5
      vertex 61.85 178.15 9.5
    endloop
  endfacet
  facet normal -0 0 1
    outer loop
      vertex 61.85 121.85 9.5
      vertex 118.15 118.15 9.5
      vertex 118.15 121.85 9.5
    endloop
  endfacet
  facet normal 0 0 1
    outer loop
      vertex 118.15 118.15 9.5
      vertex 61.85 121.85 9.5
      vertex 61.85 118.15 9.5
    endloop
  endfacet
  facet normal -0 0 1
    outer loop
      vertex 61.85 61.85 9.5
      vertex 118.15 58.15 9.5
      vertex 118.15 61.85 9.5
    endloop
  endfacet
  facet normal 0 0 1
    outer loop
      vertex 118.15 58.15 9.5
      vertex 61.85 61.85 9.5
      vertex 61.85 58.15 9.5
    endloop
  endfacet
  facet normal 0 -1 0
    outer loop
      vertex 0 0 7
      vertex 120 0 73
      vertex 0 0 73
    endloop
  endfacet
  facet normal 0 -1 -0
    outer loop
      vertex 120 0 73
      vertex 0 0 7
      vertex 120 0 7
    endloop
  endfacet
  facet normal -1 0 0
    outer loop
      vertex 0 0 7
      vertex 0 240 73
      vertex 0 240 7
    endloop
  endfacet
  facet normal -1 -0 0
    outer loop
      vertex 0 240 73
      vertex 0 0 7
      vertex 0 0 73
    endloop
  endfacet
  facet normal 0 1 -0
    outer loop
      vertex 120 240 7
      vertex 0 240 73
      vertex 120 240 73
    endloop
  endfacet
  facet normal 0 1 0
    outer loop
      vertex 0 240 73
      vertex 120 240 7
      vertex 0 240 7
    endloop
  endfacet
  facet normal 1 -0 0
    outer loop
      vertex 120 0 73
      vertex 120 240 7
      vertex 120 240 73
    endloop
  endfacet
  facet normal 1 0 0
    outer loop
      vertex 120 240 7
      vertex 120 0 73
      vertex 120 0 7
    endloop
  endfacet
  facet normal -0 0 1
    outer loop
      vertex 47.5 12.5 66
      vertex 75.9783 4.5 66
      vertex 72.5 12.5 66
    endloop
  endfacet
  facet normal 0 0 1
    outer loop
      vertex 75.9783 4.5 66
      vertex 47.5 12.5 66
      vertex 44.0217 4.5 66
    endloop
  endfacet
  facet normal 0 0 1
    outer loop
      vertex 120 240 73
      vertex 119 239 73
      vertex 120 0 73
    endloop
  endfacet
  facet normal 0 0 1
    outer loop
      vertex 120 240 73
      vertex 1 239 73
      vertex 119 239 73
    endloop
  endfacet
  facet normal 0 0 1
    outer loop
      vertex 1 239 73
      vertex 0 240 73
      vertex 1 1 73
    endloop
  endfacet
  facet normal -0 0 1
    outer loop
      vertex 0 240 73
      vertex 1 239 73
      vertex 120 240 73
    endloop
  endfacet
  facet normal -0 0 1
    outer loop
      vertex 119 1 73
      vertex 120 0 73
      vertex 119 239 73
    endloop
  endfacet
  facet normal -0 0 1
    outer loop
      vertex 1 1 73
      vertex 120 0 73
      vertex 119 1 73
    endloop
  endfacet
  facet normal 0 0 1
    outer loop
      vertex 1 1 73
      vertex 0 0 73
      vertex 120 0 73
    endloop
  endfacet
  facet normal 0 0 1
    outer loop
      vertex 0 0 73
      vertex 1 1 73
      vertex 0 240 73
    endloop
  endfacet
  facet normal -0 0.894427 0.447214
    outer loop
      vertex 75.9783 4.5 66
      vertex 119 1 73
      vertex 115.5 4.5 66
    endloop
  endfacet
  facet normal 0 0.894427 0.447214
    outer loop
      vertex 119 1 73
      vertex 75.9783 4.5 66
      vertex 1 1 73
    endloop
  endfacet
  facet normal -0 0.894427 0.447214
    outer loop
      vertex 44.0217 4.5 66
      vertex 1 1 73
      vertex 75.9783 4.5 66
    endloop
  endfacet
  facet normal 0 0.894427 0.447214
    outer loop
      vertex 1 1 73
      vertex 44.0217 4.5 66
      vertex 4.5 4.5 66
    endloop
  endfacet
  facet normal 0 -0.894427 0.447214
    outer loop
      vertex 4.5 235.5 66
      vertex 119 239 73
      vertex 1 239 73
    endloop
  endfacet
  facet normal 0 -0.894427 0.447214
    outer loop
      vertex 119 239 73
      vertex 4.5 235.5 66
      vertex 115.5 235.5 66
    endloop
  endfacet
  facet normal 0.894427 0 0.447214
    outer loop
      vertex 1 239 73
      vertex 4.5 4.5 66
      vertex 4.5 235.5 66
    endloop
  endfacet
  facet normal 0.894427 0 0.447214
    outer loop
      vertex 4.5 4.5 66
      vertex 1 239 73
      vertex 1 1 73
    endloop
  endfacet
  facet normal -0.894427 0 0.447214
    outer loop
      vertex 115.5 4.5 66
      vertex 119 239 73
      vertex 115.5 235.5 66
    endloop
  endfacet
  facet normal -0.894427 0 0.447214
    outer loop
      vertex 119 239 73
      vertex 115.5 4.5 66
      vertex 119 1 73
    endloop
  endfacet
  facet normal 0 0.998902 -0.0468508
    outer loop
      vertex 115.5 4.5 66
      vertex 70.6475 3.97869 54.8852
      vertex 75.9783 4.5 66
    endloop
  endfacet
  facet normal 0 0.998902 -0.0468512
    outer loop
      vertex 61.85 1.85 9.5
      vertex 70.6475 3.97869 54.8852
      vertex 118.15 1.85 9.5
    endloop
  endfacet
  facet normal 7.98772e-08 0.998902 -0.0468511
    outer loop
      vertex 118.15 1.85 9.5
      vertex 70.6475 3.97869 54.8852
      vertex 115.5 4.5 66
    endloop
  endfacet
  facet normal 0 0.998902 -0.0468508
    outer loop
      vertex 49.3525 3.97869 54.8852
      vertex 4.5 4.5 66
      vertex 44.0217 4.5 66
    endloop
  endfacet
  facet normal 0 0.998902 -0.0468512
    outer loop
      vertex 70.6475 3.97869 54.8852
      vertex 61.85 1.85 9.5
      vertex 49.3525 3.97869 54.8852
    endloop
  endfacet
  facet normal 0 0.998902 -0.0468512
    outer loop
      vertex 58.15 1.85 9.5
      vertex 49.3525 3.97869 54.8852
      vertex 61.85 1.85 9.5
    endloop
  endfacet
  facet normal 0 0.998902 -0.0468512
    outer loop
      vertex 1.85 1.85 9.5
      vertex 49.3525 3.97869 54.8852
      vertex 58.15 1.85 9.5
    endloop
  endfacet
  facet normal -7.98772e-08 0.998902 -0.0468511
    outer loop
      vertex 49.3525 3.97869 54.8852
      vertex 1.85 1.85 9.5
      vertex 4.5 4.5 66
    endloop
  endfacet
  facet normal -0 -0.998902 -0.0468512
    outer loop
      vertex 58.15 238.15 9.5
      vertex 4.5 235.5 66
      vertex 1.85 238.15 9.5
    endloop
  endfacet
  facet normal 0 -0.998902 -0.0468512
    outer loop
      vertex 4.5 235.5 66
      vertex 58.15 238.15 9.5
      vertex 115.5 235.5 66
    endloop
  endfacet
  facet normal -0 -0.998902 -0.0468512
    outer loop
      vertex 61.85 238.15 9.5
      vertex 115.5 235.5 66
      vertex 58.15 238.15 9.5
    endloop
  endfacet
  facet normal 0 -0.998902 -0.0468512
    outer loop
      vertex 115.5 235.5 66
      vertex 61.85 238.15 9.5
      vertex 118.15 238.15 9.5
    endloop
  endfacet
  facet normal 0.998902 0 -0.0468512
    outer loop
      vertex 4.5 235.5 66
      vertex 1.85 181.85 9.5
      vertex 1.85 238.15 9.5
    endloop
  endfacet
  facet normal 0.998902 0 -0.0468512
    outer loop
      vertex 4.5 235.5 66
      vertex 1.85 178.15 9.5
      vertex 1.85 181.85 9.5
    endloop
  endfacet
  facet normal 0.998902 0 -0.0468512
    outer loop
      vertex 4.5 235.5 66
      vertex 1.85 121.85 9.5
      vertex 1.85 178.15 9.5
    endloop
  endfacet
  facet normal 0.998902 0 -0.0468512
    outer loop
      vertex 4.5 235.5 66
      vertex 1.85 118.15 9.5
      vertex 1.85 121.85 9.5
    endloop
  endfacet
  facet normal 0.998902 0 -0.0468512
    outer loop
      vertex 4.5 4.5 66
      vertex 1.85 118.15 9.5
      vertex 4.5 235.5 66
    endloop
  endfacet
  facet normal 0.998902 0 -0.0468512
    outer loop
      vertex 1.85 118.15 9.5
      vertex 4.5 4.5 66
      vertex 1.85 61.85 9.5
    endloop
  endfacet
  facet normal 0.998902 0 -0.0468512
    outer loop
      vertex 1.85 61.85 9.5
      vertex 4.5 4.5 66
      vertex 1.85 58.15 9.5
    endloop
  endfacet
  facet normal 0.998902 0 -0.0468512
    outer loop
      vertex 1.85 58.15 9.5
      vertex 4.5 4.5 66
      vertex 1.85 1.85 9.5
    endloop
  endfacet
  facet normal -0.998902 0 -0.0468512
    outer loop
      vertex 118.15 181.85 9.5
      vertex 115.5 235.5 66
      vertex 118.15 238.15 9.5
    endloop
  endfacet
  facet normal -0.998902 0 -0.0468512
    outer loop
      vertex 118.15 178.15 9.5
      vertex 115.5 235.5 66
      vertex 118.15 181.85 9.5
    endloop
  endfacet
  facet normal -0.998902 0 -0.0468512
    outer loop
      vertex 118.15 121.85 9.5
      vertex 115.5 235.5 66
      vertex 118.15 178.15 9.5
    endloop
  endfacet
  facet normal -0.998902 0 -0.0468512
    outer loop
      vertex 118.15 118.15 9.5
      vertex 115.5 235.5 66
      vertex 118.15 121.85 9.5
    endloop
  endfacet
  facet normal -0.998902 0 -0.0468512
    outer loop
      vertex 115.5 4.5 66
      vertex 118.15 118.15 9.5
      vertex 118.15 61.85 9.5
    endloop
  endfacet
  facet normal -0.998902 0 -0.0468512
    outer loop
      vertex 115.5 4.5 66
      vertex 118.15 61.85 9.5
      vertex 118.15 58.15 9.5
    endloop
  endfacet
  facet normal -0.998902 0 -0.0468512
    outer loop
      vertex 118.15 118.15 9.5
      vertex 115.5 4.5 66
      vertex 115.5 235.5 66
    endloop
  endfacet
  facet normal -0.998902 0 -0.0468512
    outer loop
      vertex 115.5 4.5 66
      vertex 118.15 58.15 9.5
      vertex 118.15 1.85 9.5
    endloop
  endfacet
  facet normal 0 0.793608 -0.60843
    outer loop
      vertex 70.6475 3.97869 54.8852
      vertex 47.5 12.5 66
      vertex 72.5 12.5 66
    endloop
  endfacet
  facet normal 0 0.793608 -0.60843
    outer loop
      vertex 47.5 12.5 66
      vertex 70.6475 3.97869 54.8852
      vertex 49.3525 3.97869 54.8852
    endloop
  endfacet
  facet normal 0.83361 0.362443 -0.416809
    outer loop
      vertex 75.9783 4.5 66
      vertex 70.6475 3.97869 54.8852
      vertex 72.5 12.5 66
    endloop
  endfacet
  facet normal -0.83361 0.362443 -0.416809
    outer loop
      vertex 49.3525 3.97869 54.8852
      vertex 44.0217 4.5 66
      vertex 47.5 12.5 66
    endloop
  endfacet
endsolid OpenSCAD_Model
