solid OpenSCAD_Model
  facet normal 0 0 -1
    outer loop
      vertex 4.6 4.6 0
      vertex 55.4 55.4 0
      vertex 55.4 4.6 0
    endloop
  endfacet
  facet normal -0 0 -1
    outer loop
      vertex 55.4 55.4 0
      vertex 4.6 4.6 0
      vertex 4.6 55.4 0
    endloop
  endfacet
  facet normal -0 0 1
    outer loop
      vertex 5.8 54.2 1.5
      vertex 54.2 5.8 1.5
      vertex 54.2 54.2 1.5
    endloop
  endfacet
  facet normal 0 0 1
    outer loop
      vertex 54.2 5.8 1.5
      vertex 5.8 54.2 1.5
      vertex 5.8 5.8 1.5
    endloop
  endfacet
  facet normal 0 0 -1
    outer loop
      vertex 1.1 178.9 7
      vertex 58.9 181.1 7
      vertex 58.9 178.9 7
    endloop
  endfacet
  facet normal -0 0 -1
    outer loop
      vertex 58.9 181.1 7
      vertex 1.1 178.9 7
      vertex 1.1 181.1 7
    endloop
  endfacet
  facet normal 0 0 -1
    outer loop
      vertex 1.1 118.9 7
      vertex 58.9 121.1 7
      vertex 58.9 118.9 7
    endloop
  endfacet
  facet normal -0 0 -1
    outer loop
      vertex 58.9 121.1 7
      vertex 1.1 118.9 7
      vertex 1.1 121.1 7
    endloop
  endfacet
  facet normal 0 0 -1
    outer loop
      vertex 1.1 58.9 7
      vertex 58.9 61.1 7
      vertex 58.9 58.9 7
    endloop
  endfacet
  facet normal -0 0 -1
    outer loop
      vertex 58.9 61.1 7
      vertex 1.1 58.9 7
      vertex 1.1 61.1 7
    endloop
  endfacet
  facet normal 0 0 -1
    outer loop
      vertex 61.1 178.9 7
      vertex 118.9 181.1 7
      vertex 118.9 178.9 7
    endloop
  endfacet
  facet normal -0 0 -1
    outer loop
      vertex 118.9 181.1 7
      vertex 61.1 178.9 7
      vertex 61.1 181.1 7
    endloop
  endfacet
  facet normal 0 0 -1
    outer loop
      vertex 61.1 118.9 7
      vertex 118.9 121.1 7
      vertex 118.9 118.9 7
    endloop
  endfacet
  facet normal -0 0 -1
    outer loop
      vertex 118.9 121.1 7
      vertex 61.1 118.9 7
      vertex 61.1 121.1 7
    endloop
  endfacet
  facet normal 0 0 -1
    outer loop
      vertex 61.1 58.9 7
      vertex 118.9 61.1 7
      vertex 118.9 58.9 7
    endloop
  endfacet
  facet normal -0 0 -1
    outer loop
      vertex 118.9 61.1 7
      vertex 61.1 58.9 7
      vertex 61.1 61.1 7
    endloop
  endfacet
  facet normal 0 0 -1
    outer loop
      vertex 121.1 178.9 7
      vertex 178.9 181.1 7
      vertex 178.9 178.9 7
    endloop
  endfacet
  facet normal -0 0 -1
    outer loop
      vertex 178.9 181.1 7
      vertex 121.1 178.9 7
      vertex 121.1 181.1 7
    endloop
  endfacet
  facet normal 0 0 -1
    outer loop
      vertex 121.1 118.9 7
      vertex 178.9 121.1 7
      vertex 178.9 118.9 7
    endloop
  endfacet
  facet normal -0 0 -1
    outer loop
      vertex 178.9 121.1 7
      vertex 121.1 118.9 7
      vertex 121.1 121.1 7
    endloop
  endfacet
  facet normal 0 0 -1
    outer loop
      vertex 121.1 58.9 7
      vertex 178.9 61.1 7
      vertex 178.9 58.9 7
    endloop
  endfacet
  facet normal -0 0 -1
    outer loop
      vertex 178.9 61.1 7
      vertex 121.1 58.9 7
      vertex 121.1 61.1 7
    endloop
  endfacet
  facet normal 0 0 -1
    outer loop
      vertex 181.1 178.9 7
      vertex 238.9 181.1 7
      vertex 238.9 178.9 7
    endloop
  endfacet
  facet normal -0 0 -1
    outer loop
      vertex 238.9 181.1 7
      vertex 181.1 178.9 7
      vertex 181.1 181.1 7
    endloop
  endfacet
  facet normal 0 0 -1
    outer loop
      vertex 181.1 118.9 7
      vertex 238.9 121.1 7
      vertex 238.9 118.9 7
    endloop
  endfacet
  facet normal -0 0 -1
    outer loop
      vertex 238.9 121.1 7
      vertex 181.1 118.9 7
      vertex 181.1 121.1 7
    endloop
  endfacet
  facet normal 0 0 -1
    outer loop
      vertex 181.1 58.9 7
      vertex 238.9 61.1 7
      vertex 238.9 58.9 7
    endloop
  endfacet
  facet normal -0 0 -1
    outer loop
      vertex 238.9 61.1 7
      vertex 181.1 58.9 7
      vertex 181.1 61.1 7
    endloop
  endfacet
  facet normal 0 0 -1
    outer loop
      vertex 238.9 58.9 7
      vertex 240 0 7
      vertex 238.9 1.1 7
    endloop
  endfacet
  facet normal 0 0 -1
    outer loop
      vertex 240 0 7
      vertex 181.1 1.1 7
      vertex 238.9 1.1 7
    endloop
  endfacet
  facet normal 0 0 -1
    outer loop
      vertex 178.9 58.9 7
      vertex 181.1 58.9 7
      vertex 181.1 1.1 7
    endloop
  endfacet
  facet normal 0 0 -1
    outer loop
      vertex 181.1 58.9 7
      vertex 178.9 58.9 7
      vertex 181.1 61.1 7
    endloop
  endfacet
  facet normal 0 0 -1
    outer loop
      vertex 181.1 61.1 7
      vertex 178.9 61.1 7
      vertex 181.1 118.9 7
    endloop
  endfacet
  facet normal 0 0 -1
    outer loop
      vertex 178.9 118.9 7
      vertex 181.1 118.9 7
      vertex 178.9 61.1 7
    endloop
  endfacet
  facet normal 0 0 -1
    outer loop
      vertex 178.9 121.1 7
      vertex 181.1 121.1 7
      vertex 178.9 118.9 7
    endloop
  endfacet
  facet normal 0 0 -1
    outer loop
      vertex 181.1 121.1 7
      vertex 178.9 121.1 7
      vertex 181.1 178.9 7
    endloop
  endfacet
  facet normal 0 0 -1
    outer loop
      vertex 178.9 58.9 7
      vertex 181.1 1.1 7
      vertex 178.9 1.1 7
    endloop
  endfacet
  facet normal 0 0 -1
    outer loop
      vertex 240 0 7
      vertex 178.9 1.1 7
      vertex 181.1 1.1 7
    endloop
  endfacet
  facet normal 0 0 -1
    outer loop
      vertex 240 0 7
      vertex 121.1 1.1 7
      vertex 178.9 1.1 7
    endloop
  endfacet
  facet normal 0 0 -1
    outer loop
      vertex 118.9 58.9 7
      vertex 121.1 58.9 7
      vertex 121.1 1.1 7
    endloop
  endfacet
  facet normal 0 0 -1
    outer loop
      vertex 121.1 58.9 7
      vertex 118.9 58.9 7
      vertex 121.1 61.1 7
    endloop
  endfacet
  facet normal 0 0 -1
    outer loop
      vertex 121.1 61.1 7
      vertex 118.9 61.1 7
      vertex 121.1 118.9 7
    endloop
  endfacet
  facet normal 0 0 -1
    outer loop
      vertex 118.9 118.9 7
      vertex 121.1 118.9 7
      vertex 118.9 61.1 7
    endloop
  endfacet
  facet normal 0 0 -1
    outer loop
      vertex 118.9 121.1 7
      vertex 121.1 121.1 7
      vertex 118.9 118.9 7
    endloop
  endfacet
  facet normal 0 0 -1
    outer loop
      vertex 121.1 121.1 7
      vertex 118.9 121.1 7
      vertex 121.1 178.9 7
    endloop
  endfacet
  facet normal 0 0 -1
    outer loop
      vertex 118.9 58.9 7
      vertex 121.1 1.1 7
      vertex 118.9 1.1 7
    endloop
  endfacet
  facet normal 0 0 -1
    outer loop
      vertex 240 0 7
      vertex 118.9 1.1 7
      vertex 121.1 1.1 7
    endloop
  endfacet
  facet normal 0 0 -1
    outer loop
      vertex 240 0 7
      vertex 61.1 1.1 7
      vertex 118.9 1.1 7
    endloop
  endfacet
  facet normal 0 0 -1
    outer loop
      vertex 58.9 58.9 7
      vertex 61.1 58.9 7
      vertex 61.1 1.1 7
    endloop
  endfacet
  facet normal 0 0 -1
    outer loop
      vertex 61.1 58.9 7
      vertex 58.9 58.9 7
      vertex 61.1 61.1 7
    endloop
  endfacet
  facet normal 0 0 -1
    outer loop
      vertex 61.1 61.1 7
      vertex 58.9 61.1 7
      vertex 61.1 118.9 7
    endloop
  endfacet
  facet normal 0 0 -1
    outer loop
      vertex 58.9 118.9 7
      vertex 61.1 118.9 7
      vertex 58.9 61.1 7
    endloop
  endfacet
  facet normal 0 0 -1
    outer loop
      vertex 58.9 121.1 7
      vertex 61.1 121.1 7
      vertex 58.9 118.9 7
    endloop
  endfacet
  facet normal 0 0 -1
    outer loop
      vertex 61.1 121.1 7
      vertex 58.9 121.1 7
      vertex 61.1 178.9 7
    endloop
  endfacet
  facet normal 0 0 -1
    outer loop
      vertex 58.9 58.9 7
      vertex 61.1 1.1 7
      vertex 58.9 1.1 7
    endloop
  endfacet
  facet normal 0 0 -1
    outer loop
      vertex 0 0 7
      vertex 61.1 1.1 7
      vertex 240 0 7
    endloop
  endfacet
  facet normal -0 0 -1
    outer loop
      vertex 61.1 1.1 7
      vertex 0 0 7
      vertex 58.9 1.1 7
    endloop
  endfacet
  facet normal 0 0 -1
    outer loop
      vertex 0 0 7
      vertex 1.1 58.9 7
      vertex 1.1 1.1 7
    endloop
  endfacet
  facet normal -0 0 -1
    outer loop
      vertex 1.1 58.9 7
      vertex 0 0 7
      vertex 1.1 61.1 7
    endloop
  endfacet
  facet normal -0 0 -1
    outer loop
      vertex 1.1 61.1 7
      vertex 0 0 7
      vertex 1.1 118.9 7
    endloop
  endfacet
  facet normal -0 0 -1
    outer loop
      vertex 1.1 118.9 7
      vertex 0 0 7
      vertex 1.1 121.1 7
    endloop
  endfacet
  facet normal -0 0 -1
    outer loop
      vertex 1.1 121.1 7
      vertex 0 0 7
      vertex 1.1 178.9 7
    endloop
  endfacet
  facet normal 0 0 -1
    outer loop
      vertex 0 240 7
      vertex 1.1 178.9 7
      vertex 0 0 7
    endloop
  endfacet
  facet normal 0 0 -1
    outer loop
      vertex 1.1 178.9 7
      vertex 0 240 7
      vertex 1.1 181.1 7
    endloop
  endfacet
  facet normal -0 0 -1
    outer loop
      vertex 58.9 1.1 7
      vertex 0 0 7
      vertex 1.1 1.1 7
    endloop
  endfacet
  facet normal 0 0 -1
    outer loop
      vertex 238.9 61.1 7
      vertex 240 0 7
      vertex 238.9 58.9 7
    endloop
  endfacet
  facet normal 0 0 -1
    outer loop
      vertex 240 0 7
      vertex 238.9 61.1 7
      vertex 240 240 7
    endloop
  endfacet
  facet normal 0 0 -1
    outer loop
      vertex 238.9 118.9 7
      vertex 240 240 7
      vertex 238.9 61.1 7
    endloop
  endfacet
  facet normal 0 0 -1
    outer loop
      vertex 238.9 121.1 7
      vertex 240 240 7
      vertex 238.9 118.9 7
    endloop
  endfacet
  facet normal 0 0 -1
    outer loop
      vertex 238.9 178.9 7
      vertex 240 240 7
      vertex 238.9 121.1 7
    endloop
  endfacet
  facet normal 0 0 -1
    outer loop
      vertex 238.9 181.1 7
      vertex 240 240 7
      vertex 238.9 178.9 7
    endloop
  endfacet
  facet normal 0 0 -1
    outer loop
      vertex 238.9 238.9 7
      vertex 240 240 7
      vertex 238.9 181.1 7
    endloop
  endfacet
  facet normal 0 0 -1
    outer loop
      vertex 181.1 238.9 7
      vertex 240 240 7
      vertex 238.9 238.9 7
    endloop
  endfacet
  facet normal -0 0 -1
    outer loop
      vertex 181.1 61.1 7
      vertex 178.9 58.9 7
      vertex 178.9 61.1 7
    endloop
  endfacet
  facet normal 0 0 -1
    outer loop
      vertex 181.1 118.9 7
      vertex 178.9 118.9 7
      vertex 181.1 121.1 7
    endloop
  endfacet
  facet normal 0 0 -1
    outer loop
      vertex 178.9 178.9 7
      vertex 181.1 178.9 7
      vertex 178.9 121.1 7
    endloop
  endfacet
  facet normal 0 0 -1
    outer loop
      vertex 181.1 178.9 7
      vertex 178.9 178.9 7
      vertex 181.1 181.1 7
    endloop
  endfacet
  facet normal 0 0 -1
    outer loop
      vertex 178.9 181.1 7
      vertex 181.1 181.1 7
      vertex 178.9 178.9 7
    endloop
  endfacet
  facet normal 0 0 -1
    outer loop
      vertex 181.1 181.1 7
      vertex 178.9 181.1 7
      vertex 181.1 238.9 7
    endloop
  endfacet
  facet normal 0 0 -1
    outer loop
      vertex 178.9 238.9 7
      vertex 181.1 238.9 7
      vertex 178.9 181.1 7
    endloop
  endfacet
  facet normal 0 0 -1
    outer loop
      vertex 178.9 238.9 7
      vertex 240 240 7
      vertex 181.1 238.9 7
    endloop
  endfacet
  facet normal 0 0 -1
    outer loop
      vertex 121.1 238.9 7
      vertex 240 240 7
      vertex 178.9 238.9 7
    endloop
  endfacet
  facet normal -0 0 -1
    outer loop
      vertex 121.1 61.1 7
      vertex 118.9 58.9 7
      vertex 118.9 61.1 7
    endloop
  endfacet
  facet normal 0 0 -1
    outer loop
      vertex 121.1 118.9 7
      vertex 118.9 118.9 7
      vertex 121.1 121.1 7
    endloop
  endfacet
  facet normal 0 0 -1
    outer loop
      vertex 118.9 178.9 7
      vertex 121.1 178.9 7
      vertex 118.9 121.1 7
    endloop
  endfacet
  facet normal 0 0 -1
    outer loop
      vertex 121.1 178.9 7
      vertex 118.9 178.9 7
      vertex 121.1 181.1 7
    endloop
  endfacet
  facet normal 0 0 -1
    outer loop
      vertex 118.9 181.1 7
      vertex 121.1 181.1 7
      vertex 118.9 178.9 7
    endloop
  endfacet
  facet normal 0 0 -1
    outer loop
      vertex 121.1 181.1 7
      vertex 118.9 181.1 7
      vertex 121.1 238.9 7
    endloop
  endfacet
  facet normal 0 0 -1
    outer loop
      vertex 118.9 238.9 7
      vertex 121.1 238.9 7
      vertex 118.9 181.1 7
    endloop
  endfacet
  facet normal 0 0 -1
    outer loop
      vertex 118.9 238.9 7
      vertex 240 240 7
      vertex 121.1 238.9 7
    endloop
  endfacet
  facet normal 0 0 -1
    outer loop
      vertex 61.1 238.9 7
      vertex 240 240 7
      vertex 118.9 238.9 7
    endloop
  endfacet
  facet normal -0 0 -1
    outer loop
      vertex 61.1 61.1 7
      vertex 58.9 58.9 7
      vertex 58.9 61.1 7
    endloop
  endfacet
  facet normal 0 0 -1
    outer loop
      vertex 61.1 118.9 7
      vertex 58.9 118.9 7
      vertex 61.1 121.1 7
    endloop
  endfacet
  facet normal 0 0 -1
    outer loop
      vertex 58.9 178.9 7
      vertex 61.1 178.9 7
      vertex 58.9 121.1 7
    endloop
  endfacet
  facet normal 0 0 -1
    outer loop
      vertex 61.1 178.9 7
      vertex 58.9 178.9 7
      vertex 61.1 181.1 7
    endloop
  endfacet
  facet normal 0 0 -1
    outer loop
      vertex 58.9 181.1 7
      vertex 61.1 181.1 7
      vertex 58.9 178.9 7
    endloop
  endfacet
  facet normal 0 0 -1
    outer loop
      vertex 61.1 181.1 7
      vertex 58.9 181.1 7
      vertex 61.1 238.9 7
    endloop
  endfacet
  facet normal 0 0 -1
    outer loop
      vertex 58.9 238.9 7
      vertex 61.1 238.9 7
      vertex 58.9 181.1 7
    endloop
  endfacet
  facet normal 0 0 -1
    outer loop
      vertex 0 240 7
      vertex 61.1 238.9 7
      vertex 58.9 238.9 7
    endloop
  endfacet
  facet normal 0 0 -1
    outer loop
      vertex 0 240 7
      vertex 58.9 238.9 7
      vertex 1.1 238.9 7
    endloop
  endfacet
  facet normal 0 0 -1
    outer loop
      vertex 61.1 238.9 7
      vertex 0 240 7
      vertex 240 240 7
    endloop
  endfacet
  facet normal 0 0 -1
    outer loop
      vertex 1.1 181.1 7
      vertex 0 240 7
      vertex 1.1 238.9 7
    endloop
  endfacet
  facet normal 0 -0.894427 -0.447214
    outer loop
      vertex 4.6 4.6 0
      vertex 58.9 1.1 7
      vertex 1.1 1.1 7
    endloop
  endfacet
  facet normal 0 -0.894427 -0.447214
    outer loop
      vertex 58.9 1.1 7
      vertex 4.6 4.6 0
      vertex 55.4 4.6 0
    endloop
  endfacet
  facet normal 0 0.894427 -0.447214
    outer loop
      vertex 55.4 55.4 0
      vertex 1.1 58.9 7
      vertex 58.9 58.9 7
    endloop
  endfacet
  facet normal 0 0.894427 -0.447214
    outer loop
      vertex 1.1 58.9 7
      vertex 55.4 55.4 0
      vertex 4.6 55.4 0
    endloop
  endfacet
  facet normal -0.894427 0 -0.447214
    outer loop
      vertex 4.6 4.6 0
      vertex 1.1 58.9 7
      vertex 4.6 55.4 0
    endloop
  endfacet
  facet normal -0.894427 -0 -0.447214
    outer loop
      vertex 1.1 58.9 7
      vertex 4.6 4.6 0
      vertex 1.1 1.1 7
    endloop
  endfacet
  facet normal 0.894427 0 -0.447214
    outer loop
      vertex 58.9 58.9 7
      vertex 55.4 4.6 0
      vertex 55.4 55.4 0
    endloop
  endfacet
  facet normal 0.894427 0 -0.447214
    outer loop
      vertex 55.4 4.6 0
      vertex 58.9 58.9 7
      vertex 58.9 1.1 7
    endloop
  endfacet
  facet normal 0 0.894427 0.447214
    outer loop
      vertex 54.2 5.8 1.5
      vertex 1.8 1.8 9.5
      vertex 58.2 1.8 9.5
    endloop
  endfacet
  facet normal 0 0.894427 0.447214
    outer loop
      vertex 1.8 1.8 9.5
      vertex 54.2 5.8 1.5
      vertex 5.8 5.8 1.5
    endloop
  endfacet
  facet normal 0 -0.894427 0.447214
    outer loop
      vertex 5.8 54.2 1.5
      vertex 58.2 58.2 9.5
      vertex 1.8 58.2 9.5
    endloop
  endfacet
  facet normal 0 -0.894427 0.447214
    outer loop
      vertex 58.2 58.2 9.5
      vertex 5.8 54.2 1.5
      vertex 54.2 54.2 1.5
    endloop
  endfacet
  facet normal 0.894427 0 0.447214
    outer loop
      vertex 1.8 58.2 9.5
      vertex 5.8 5.8 1.5
      vertex 5.8 54.2 1.5
    endloop
  endfacet
  facet normal 0.894427 0 0.447214
    outer loop
      vertex 5.8 5.8 1.5
      vertex 1.8 58.2 9.5
      vertex 1.8 1.8 9.5
    endloop
  endfacet
  facet normal -0.894427 0 0.447214
    outer loop
      vertex 54.2 5.8 1.5
      vertex 58.2 58.2 9.5
      vertex 54.2 54.2 1.5
    endloop
  endfacet
  facet normal -0.894427 0 0.447214
    outer loop
      vertex 58.2 58.2 9.5
      vertex 54.2 5.8 1.5
      vertex 58.2 1.8 9.5
    endloop
  endfacet
  facet normal 0 0 -1
    outer loop
      vertex 4.6 64.6 0
      vertex 55.4 115.4 0
      vertex 55.4 64.6 0
    endloop
  endfacet
  facet normal -0 0 -1
    outer loop
      vertex 55.4 115.4 0
      vertex 4.6 64.6 0
      vertex 4.6 115.4 0
    endloop
  endfacet
  facet normal -0 0 1
    outer loop
      vertex 5.8 114.2 1.5
      vertex 54.2 65.8 1.5
      vertex 54.2 114.2 1.5
    endloop
  endfacet
  facet normal 0 0 1
    outer loop
      vertex 54.2 65.8 1.5
      vertex 5.8 114.2 1.5
      vertex 5.8 65.8 1.5
    endloop
  endfacet
  facet normal 0 -0.894427 -0.447214
    outer loop
      vertex 4.6 64.6 0
      vertex 58.9 61.1 7
      vertex 1.1 61.1 7
    endloop
  endfacet
  facet normal 0 -0.894427 -0.447214
    outer loop
      vertex 58.9 61.1 7
      vertex 4.6 64.6 0
      vertex 55.4 64.6 0
    endloop
  endfacet
  facet normal 0 0.894427 -0.447214
    outer loop
      vertex 55.4 115.4 0
      vertex 1.1 118.9 7
      vertex 58.9 118.9 7
    endloop
  endfacet
  facet normal 0 0.894427 -0.447214
    outer loop
      vertex 1.1 118.9 7
      vertex 55.4 115.4 0
      vertex 4.6 115.4 0
    endloop
  endfacet
  facet normal -0.894427 0 -0.447214
    outer loop
      vertex 4.6 64.6 0
      vertex 1.1 118.9 7
      vertex 4.6 115.4 0
    endloop
  endfacet
  facet normal -0.894427 -0 -0.447214
    outer loop
      vertex 1.1 118.9 7
      vertex 4.6 64.6 0
      vertex 1.1 61.1 7
    endloop
  endfacet
  facet normal 0.894427 0 -0.447214
    outer loop
      vertex 58.9 118.9 7
      vertex 55.4 64.6 0
      vertex 55.4 115.4 0
    endloop
  endfacet
  facet normal 0.894427 0 -0.447214
    outer loop
      vertex 55.4 64.6 0
      vertex 58.9 118.9 7
      vertex 58.9 61.1 7
    endloop
  endfacet
  facet normal 0 0.894427 0.447214
    outer loop
      vertex 54.2 65.8 1.5
      vertex 1.8 61.8 9.5
      vertex 58.2 61.8 9.5
    endloop
  endfacet
  facet normal 0 0.894427 0.447214
    outer loop
      vertex 1.8 61.8 9.5
      vertex 54.2 65.8 1.5
      vertex 5.8 65.8 1.5
    endloop
  endfacet
  facet normal 0 -0.894427 0.447214
    outer loop
      vertex 5.8 114.2 1.5
      vertex 58.2 118.2 9.5
      vertex 1.8 118.2 9.5
    endloop
  endfacet
  facet normal 0 -0.894427 0.447214
    outer loop
      vertex 58.2 118.2 9.5
      vertex 5.8 114.2 1.5
      vertex 54.2 114.2 1.5
    endloop
  endfacet
  facet normal 0.894427 0 0.447214
    outer loop
      vertex 1.8 118.2 9.5
      vertex 5.8 65.8 1.5
      vertex 5.8 114.2 1.5
    endloop
  endfacet
  facet normal 0.894427 0 0.447214
    outer loop
      vertex 5.8 65.8 1.5
      vertex 1.8 118.2 9.5
      vertex 1.8 61.8 9.5
    endloop
  endfacet
  facet normal -0.894427 0 0.447214
    outer loop
      vertex 54.2 65.8 1.5
      vertex 58.2 118.2 9.5
      vertex 54.2 114.2 1.5
    endloop
  endfacet
  facet normal -0.894427 0 0.447214
    outer loop
      vertex 58.2 118.2 9.5
      vertex 54.2 65.8 1.5
      vertex 58.2 61.8 9.5
    endloop
  endfacet
  facet normal 0 0 -1
    outer loop
      vertex 4.6 124.6 0
      vertex 55.4 175.4 0
      vertex 55.4 124.6 0
    endloop
  endfacet
  facet normal -0 0 -1
    outer loop
      vertex 55.4 175.4 0
      vertex 4.6 124.6 0
      vertex 4.6 175.4 0
    endloop
  endfacet
  facet normal -0 0 1
    outer loop
      vertex 5.8 174.2 1.5
      vertex 54.2 125.8 1.5
      vertex 54.2 174.2 1.5
    endloop
  endfacet
  facet normal 0 0 1
    outer loop
      vertex 54.2 125.8 1.5
      vertex 5.8 174.2 1.5
      vertex 5.8 125.8 1.5
    endloop
  endfacet
  facet normal 0 -0.894427 -0.447214
    outer loop
      vertex 4.6 124.6 0
      vertex 58.9 121.1 7
      vertex 1.1 121.1 7
    endloop
  endfacet
  facet normal 0 -0.894427 -0.447214
    outer loop
      vertex 58.9 121.1 7
      vertex 4.6 124.6 0
      vertex 55.4 124.6 0
    endloop
  endfacet
  facet normal 0 0.894427 -0.447214
    outer loop
      vertex 55.4 175.4 0
      vertex 1.1 178.9 7
      vertex 58.9 178.9 7
    endloop
  endfacet
  facet normal 0 0.894427 -0.447214
    outer loop
      vertex 1.1 178.9 7
      vertex 55.4 175.4 0
      vertex 4.6 175.4 0
    endloop
  endfacet
  facet normal -0.894427 0 -0.447214
    outer loop
      vertex 4.6 124.6 0
      vertex 1.1 178.9 7
      vertex 4.6 175.4 0
    endloop
  endfacet
  facet normal -0.894427 -0 -0.447214
    outer loop
      vertex 1.1 178.9 7
      vertex 4.6 124.6 0
      vertex 1.1 121.1 7
    endloop
  endfacet
  facet normal 0.894427 0 -0.447214
    outer loop
      vertex 58.9 178.9 7
      vertex 55.4 124.6 0
      vertex 55.4 175.4 0
    endloop
  endfacet
  facet normal 0.894427 0 -0.447214
    outer loop
      vertex 55.4 124.6 0
      vertex 58.9 178.9 7
      vertex 58.9 121.1 7
    endloop
  endfacet
  facet normal 0 0.894427 0.447214
    outer loop
      vertex 54.2 125.8 1.5
      vertex 1.8 121.8 9.5
      vertex 58.2 121.8 9.5
    endloop
  endfacet
  facet normal 0 0.894427 0.447214
    outer loop
      vertex 1.8 121.8 9.5
      vertex 54.2 125.8 1.5
      vertex 5.8 125.8 1.5
    endloop
  endfacet
  facet normal 0 -0.894427 0.447214
    outer loop
      vertex 5.8 174.2 1.5
      vertex 58.2 178.2 9.5
      vertex 1.8 178.2 9.5
    endloop
  endfacet
  facet normal 0 -0.894427 0.447214
    outer loop
      vertex 58.2 178.2 9.5
      vertex 5.8 174.2 1.5
      vertex 54.2 174.2 1.5
    endloop
  endfacet
  facet normal 0.894427 0 0.447214
    outer loop
      vertex 1.8 178.2 9.5
      vertex 5.8 125.8 1.5
      vertex 5.8 174.2 1.5
    endloop
  endfacet
  facet normal 0.894427 0 0.447214
    outer loop
      vertex 5.8 125.8 1.5
      vertex 1.8 178.2 9.5
      vertex 1.8 121.8 9.5
    endloop
  endfacet
  facet normal -0.894427 0 0.447214
    outer loop
      vertex 54.2 125.8 1.5
      vertex 58.2 178.2 9.5
      vertex 54.2 174.2 1.5
    endloop
  endfacet
  facet normal -0.894427 0 0.447214
    outer loop
      vertex 58.2 178.2 9.5
      vertex 54.2 125.8 1.5
      vertex 58.2 121.8 9.5
    endloop
  endfacet
  facet normal 0 0 -1
    outer loop
      vertex 4.6 184.6 0
      vertex 55.4 235.4 0
      vertex 55.4 184.6 0
    endloop
  endfacet
  facet normal -0 0 -1
    outer loop
      vertex 55.4 235.4 0
      vertex 4.6 184.6 0
      vertex 4.6 235.4 0
    endloop
  endfacet
  facet normal -0 0 1
    outer loop
      vertex 5.8 234.2 1.5
      vertex 54.2 185.8 1.5
      vertex 54.2 234.2 1.5
    endloop
  endfacet
  facet normal 0 0 1
    outer loop
      vertex 54.2 185.8 1.5
      vertex 5.8 234.2 1.5
      vertex 5.8 185.8 1.5
    endloop
  endfacet
  facet normal 0 -0.894427 -0.447214
    outer loop
      vertex 4.6 184.6 0
      vertex 58.9 181.1 7
      vertex 1.1 181.1 7
    endloop
  endfacet
  facet normal 0 -0.894427 -0.447214
    outer loop
      vertex 58.9 181.1 7
      vertex 4.6 184.6 0
      vertex 55.4 184.6 0
    endloop
  endfacet
  facet normal 0 0.894427 -0.447214
    outer loop
      vertex 55.4 235.4 0
      vertex 1.1 238.9 7
      vertex 58.9 238.9 7
    endloop
  endfacet
  facet normal 0 0.894427 -0.447214
    outer loop
      vertex 1.1 238.9 7
      vertex 55.4 235.4 0
      vertex 4.6 235.4 0
    endloop
  endfacet
  facet normal -0.894427 0 -0.447214
    outer loop
      vertex 4.6 184.6 0
      vertex 1.1 238.9 7
      vertex 4.6 235.4 0
    endloop
  endfacet
  facet normal -0.894427 -0 -0.447214
    outer loop
      vertex 1.1 238.9 7
      vertex 4.6 184.6 0
      vertex 1.1 181.1 7
    endloop
  endfacet
  facet normal 0.894427 0 -0.447214
    outer loop
      vertex 58.9 238.9 7
      vertex 55.4 184.6 0
      vertex 55.4 235.4 0
    endloop
  endfacet
  facet normal 0.894427 0 -0.447214
    outer loop
      vertex 55.4 184.6 0
      vertex 58.9 238.9 7
      vertex 58.9 181.1 7
    endloop
  endfacet
  facet normal 0 0.894427 0.447214
    outer loop
      vertex 54.2 185.8 1.5
      vertex 1.8 181.8 9.5
      vertex 58.2 181.8 9.5
    endloop
  endfacet
  facet normal 0 0.894427 0.447214
    outer loop
      vertex 1.8 181.8 9.5
      vertex 54.2 185.8 1.5
      vertex 5.8 185.8 1.5
    endloop
  endfacet
  facet normal 0 -0.894427 0.447214
    outer loop
      vertex 5.8 234.2 1.5
      vertex 58.2 238.2 9.5
      vertex 1.8 238.2 9.5
    endloop
  endfacet
  facet normal 0 -0.894427 0.447214
    outer loop
      vertex 58.2 238.2 9.5
      vertex 5.8 234.2 1.5
      vertex 54.2 234.2 1.5
    endloop
  endfacet
  facet normal 0.894427 0 0.447214
    outer loop
      vertex 1.8 238.2 9.5
      vertex 5.8 185.8 1.5
      vertex 5.8 234.2 1.5
    endloop
  endfacet
  facet normal 0.894427 0 0.447214
    outer loop
      vertex 5.8 185.8 1.5
      vertex 1.8 238.2 9.5
      vertex 1.8 181.8 9.5
    endloop
  endfacet
  facet normal -0.894427 0 0.447214
    outer loop
      vertex 54.2 185.8 1.5
      vertex 58.2 238.2 9.5
      vertex 54.2 234.2 1.5
    endloop
  endfacet
  facet normal -0.894427 0 0.447214
    outer loop
      vertex 58.2 238.2 9.5
      vertex 54.2 185.8 1.5
      vertex 58.2 181.8 9.5
    endloop
  endfacet
  facet normal 0 0 -1
    outer loop
      vertex 64.6 4.6 0
      vertex 115.4 55.4 0
      vertex 115.4 4.6 0
    endloop
  endfacet
  facet normal -0 0 -1
    outer loop
      vertex 115.4 55.4 0
      vertex 64.6 4.6 0
      vertex 64.6 55.4 0
    endloop
  endfacet
  facet normal -0 0 1
    outer loop
      vertex 65.8 54.2 1.5
      vertex 114.2 5.8 1.5
      vertex 114.2 54.2 1.5
    endloop
  endfacet
  facet normal 0 0 1
    outer loop
      vertex 114.2 5.8 1.5
      vertex 65.8 54.2 1.5
      vertex 65.8 5.8 1.5
    endloop
  endfacet
  facet normal 0 -0.894427 -0.447214
    outer loop
      vertex 64.6 4.6 0
      vertex 118.9 1.1 7
      vertex 61.1 1.1 7
    endloop
  endfacet
  facet normal 0 -0.894427 -0.447214
    outer loop
      vertex 118.9 1.1 7
      vertex 64.6 4.6 0
      vertex 115.4 4.6 0
    endloop
  endfacet
  facet normal 0 0.894427 -0.447214
    outer loop
      vertex 115.4 55.4 0
      vertex 61.1 58.9 7
      vertex 118.9 58.9 7
    endloop
  endfacet
  facet normal 0 0.894427 -0.447214
    outer loop
      vertex 61.1 58.9 7
      vertex 115.4 55.4 0
      vertex 64.6 55.4 0
    endloop
  endfacet
  facet normal -0.894427 0 -0.447214
    outer loop
      vertex 64.6 4.6 0
      vertex 61.1 58.9 7
      vertex 64.6 55.4 0
    endloop
  endfacet
  facet normal -0.894427 -0 -0.447214
    outer loop
      vertex 61.1 58.9 7
      vertex 64.6 4.6 0
      vertex 61.1 1.1 7
    endloop
  endfacet
  facet normal 0.894427 0 -0.447214
    outer loop
      vertex 118.9 58.9 7
      vertex 115.4 4.6 0
      vertex 115.4 55.4 0
    endloop
  endfacet
  facet normal 0.894427 0 -0.447214
    outer loop
      vertex 115.4 4.6 0
      vertex 118.9 58.9 7
      vertex 118.9 1.1 7
    endloop
  endfacet
  facet normal 0 0.894427 0.447214
    outer loop
      vertex 114.2 5.8 1.5
      vertex 61.8 1.8 9.5
      vertex 118.2 1.8 9.5
    endloop
  endfacet
  facet normal 0 0.894427 0.447214
    outer loop
      vertex 61.8 1.8 9.5
      vertex 114.2 5.8 1.5
      vertex 65.8 5.8 1.5
    endloop
  endfacet
  facet normal 0 -0.894427 0.447214
    outer loop
      vertex 65.8 54.2 1.5
      vertex 118.2 58.2 9.5
      vertex 61.8 58.2 9.5
    endloop
  endfacet
  facet normal 0 -0.894427 0.447214
    outer loop
      vertex 118.2 58.2 9.5
      vertex 65.8 54.2 1.5
      vertex 114.2 54.2 1.5
    endloop
  endfacet
  facet normal 0.894427 0 0.447214
    outer loop
      vertex 61.8 58.2 9.5
      vertex 65.8 5.8 1.5
      vertex 65.8 54.2 1.5
    endloop
  endfacet
  facet normal 0.894427 0 0.447214
    outer loop
      vertex 65.8 5.8 1.5
      vertex 61.8 58.2 9.5
      vertex 61.8 1.8 9.5
    endloop
  endfacet
  facet normal -0.894427 0 0.447214
    outer loop
      vertex 114.2 5.8 1.5
      vertex 118.2 58.2 9.5
      vertex 114.2 54.2 1.5
    endloop
  endfacet
  facet normal -0.894427 0 0.447214
    outer loop
      vertex 118.2 58.2 9.5
      vertex 114.2 5.8 1.5
      vertex 118.2 1.8 9.5
    endloop
  endfacet
  facet normal 0 0 -1
    outer loop
      vertex 64.6 64.6 0
      vertex 115.4 115.4 0
      vertex 115.4 64.6 0
    endloop
  endfacet
  facet normal -0 0 -1
    outer loop
      vertex 115.4 115.4 0
      vertex 64.6 64.6 0
      vertex 64.6 115.4 0
    endloop
  endfacet
  facet normal -0 0 1
    outer loop
      vertex 65.8 114.2 1.5
      vertex 114.2 65.8 1.5
      vertex 114.2 114.2 1.5
    endloop
  endfacet
  facet normal 0 0 1
    outer loop
      vertex 114.2 65.8 1.5
      vertex 65.8 114.2 1.5
      vertex 65.8 65.8 1.5
    endloop
  endfacet
  facet normal 0 -0.894427 -0.447214
    outer loop
      vertex 64.6 64.6 0
      vertex 118.9 61.1 7
      vertex 61.1 61.1 7
    endloop
  endfacet
  facet normal 0 -0.894427 -0.447214
    outer loop
      vertex 118.9 61.1 7
      vertex 64.6 64.6 0
      vertex 115.4 64.6 0
    endloop
  endfacet
  facet normal 0 0.894427 -0.447214
    outer loop
      vertex 115.4 115.4 0
      vertex 61.1 118.9 7
      vertex 118.9 118.9 7
    endloop
  endfacet
  facet normal 0 0.894427 -0.447214
    outer loop
      vertex 61.1 118.9 7
      vertex 115.4 115.4 0
      vertex 64.6 115.4 0
    endloop
  endfacet
  facet normal -0.894427 0 -0.447214
    outer loop
      vertex 64.6 64.6 0
      vertex 61.1 118.9 7
      vertex 64.6 115.4 0
    endloop
  endfacet
  facet normal -0.894427 -0 -0.447214
    outer loop
      vertex 61.1 118.9 7
      vertex 64.6 64.6 0
      vertex 61.1 61.1 7
    endloop
  endfacet
  facet normal 0.894427 0 -0.447214
    outer loop
      vertex 118.9 118.9 7
      vertex 115.4 64.6 0
      vertex 115.4 115.4 0
    endloop
  endfacet
  facet normal 0.894427 0 -0.447214
    outer loop
      vertex 115.4 64.6 0
      vertex 118.9 118.9 7
      vertex 118.9 61.1 7
    endloop
  endfacet
  facet normal 0 0.894427 0.447214
    outer loop
      vertex 114.2 65.8 1.5
      vertex 61.8 61.8 9.5
      vertex 118.2 61.8 9.5
    endloop
  endfacet
  facet normal 0 0.894427 0.447214
    outer loop
      vertex 61.8 61.8 9.5
      vertex 114.2 65.8 1.5
      vertex 65.8 65.8 1.5
    endloop
  endfacet
  facet normal 0 -0.894427 0.447214
    outer loop
      vertex 65.8 114.2 1.5
      vertex 118.2 118.2 9.5
      vertex 61.8 118.2 9.5
    endloop
  endfacet
  facet normal 0 -0.894427 0.447214
    outer loop
      vertex 118.2 118.2 9.5
      vertex 65.8 114.2 1.5
      vertex 114.2 114.2 1.5
    endloop
  endfacet
  facet normal 0.894427 0 0.447214
    outer loop
      vertex 61.8 118.2 9.5
      vertex 65.8 65.8 1.5
      vertex 65.8 114.2 1.5
    endloop
  endfacet
  facet normal 0.894427 0 0.447214
    outer loop
      vertex 65.8 65.8 1.5
      vertex 61.8 118.2 9.5
      vertex 61.8 61.8 9.5
    endloop
  endfacet
  facet normal -0.894427 0 0.447214
    outer loop
      vertex 114.2 65.8 1.5
      vertex 118.2 118.2 9.5
      vertex 114.2 114.2 1.5
    endloop
  endfacet
  facet normal -0.894427 0 0.447214
    outer loop
      vertex 118.2 118.2 9.5
      vertex 114.2 65.8 1.5
      vertex 118.2 61.8 9.5
    endloop
  endfacet
  facet normal 0 0 -1
    outer loop
      vertex 64.6 124.6 0
      vertex 115.4 175.4 0
      vertex 115.4 124.6 0
    endloop
  endfacet
  facet normal -0 0 -1
    outer loop
      vertex 115.4 175.4 0
      vertex 64.6 124.6 0
      vertex 64.6 175.4 0
    endloop
  endfacet
  facet normal -0 0 1
    outer loop
      vertex 65.8 174.2 1.5
      vertex 114.2 125.8 1.5
      vertex 114.2 174.2 1.5
    endloop
  endfacet
  facet normal 0 0 1
    outer loop
      vertex 114.2 125.8 1.5
      vertex 65.8 174.2 1.5
      vertex 65.8 125.8 1.5
    endloop
  endfacet
  facet normal 0 -0.894427 -0.447214
    outer loop
      vertex 64.6 124.6 0
      vertex 118.9 121.1 7
      vertex 61.1 121.1 7
    endloop
  endfacet
  facet normal 0 -0.894427 -0.447214
    outer loop
      vertex 118.9 121.1 7
      vertex 64.6 124.6 0
      vertex 115.4 124.6 0
    endloop
  endfacet
  facet normal 0 0.894427 -0.447214
    outer loop
      vertex 115.4 175.4 0
      vertex 61.1 178.9 7
      vertex 118.9 178.9 7
    endloop
  endfacet
  facet normal 0 0.894427 -0.447214
    outer loop
      vertex 61.1 178.9 7
      vertex 115.4 175.4 0
      vertex 64.6 175.4 0
    endloop
  endfacet
  facet normal -0.894427 0 -0.447214
    outer loop
      vertex 64.6 124.6 0
      vertex 61.1 178.9 7
      vertex 64.6 175.4 0
    endloop
  endfacet
  facet normal -0.894427 -0 -0.447214
    outer loop
      vertex 61.1 178.9 7
      vertex 64.6 124.6 0
      vertex 61.1 121.1 7
    endloop
  endfacet
  facet normal 0.894427 0 -0.447214
    outer loop
      vertex 118.9 178.9 7
      vertex 115.4 124.6 0
      vertex 115.4 175.4 0
    endloop
  endfacet
  facet normal 0.894427 0 -0.447214
    outer loop
      vertex 115.4 124.6 0
      vertex 118.9 178.9 7
      vertex 118.9 121.1 7
    endloop
  endfacet
  facet normal 0 0.894427 0.447214
    outer loop
      vertex 114.2 125.8 1.5
      vertex 61.8 121.8 9.5
      vertex 118.2 121.8 9.5
    endloop
  endfacet
  facet normal 0 0.894427 0.447214
    outer loop
      vertex 61.8 121.8 9.5
      vertex 114.2 125.8 1.5
      vertex 65.8 125.8 1.5
    endloop
  endfacet
  facet normal 0 -0.894427 0.447214
    outer loop
      vertex 65.8 174.2 1.5
      vertex 118.2 178.2 9.5
      vertex 61.8 178.2 9.5
    endloop
  endfacet
  facet normal 0 -0.894427 0.447214
    outer loop
      vertex 118.2 178.2 9.5
      vertex 65.8 174.2 1.5
      vertex 114.2 174.2 1.5
    endloop
  endfacet
  facet normal 0.894427 0 0.447214
    outer loop
      vertex 61.8 178.2 9.5
      vertex 65.8 125.8 1.5
      vertex 65.8 174.2 1.5
    endloop
  endfacet
  facet normal 0.894427 0 0.447214
    outer loop
      vertex 65.8 125.8 1.5
      vertex 61.8 178.2 9.5
      vertex 61.8 121.8 9.5
    endloop
  endfacet
  facet normal -0.894427 0 0.447214
    outer loop
      vertex 114.2 125.8 1.5
      vertex 118.2 178.2 9.5
      vertex 114.2 174.2 1.5
    endloop
  endfacet
  facet normal -0.894427 0 0.447214
    outer loop
      vertex 118.2 178.2 9.5
      vertex 114.2 125.8 1.5
      vertex 118.2 121.8 9.5
    endloop
  endfacet
  facet normal 0 0 -1
    outer loop
      vertex 64.6 184.6 0
      vertex 115.4 235.4 0
      vertex 115.4 184.6 0
    endloop
  endfacet
  facet normal -0 0 -1
    outer loop
      vertex 115.4 235.4 0
      vertex 64.6 184.6 0
      vertex 64.6 235.4 0
    endloop
  endfacet
  facet normal -0 0 1
    outer loop
      vertex 65.8 234.2 1.5
      vertex 114.2 185.8 1.5
      vertex 114.2 234.2 1.5
    endloop
  endfacet
  facet normal 0 0 1
    outer loop
      vertex 114.2 185.8 1.5
      vertex 65.8 234.2 1.5
      vertex 65.8 185.8 1.5
    endloop
  endfacet
  facet normal 0 -0.894427 -0.447214
    outer loop
      vertex 64.6 184.6 0
      vertex 118.9 181.1 7
      vertex 61.1 181.1 7
    endloop
  endfacet
  facet normal 0 -0.894427 -0.447214
    outer loop
      vertex 118.9 181.1 7
      vertex 64.6 184.6 0
      vertex 115.4 184.6 0
    endloop
  endfacet
  facet normal 0 0.894427 -0.447214
    outer loop
      vertex 115.4 235.4 0
      vertex 61.1 238.9 7
      vertex 118.9 238.9 7
    endloop
  endfacet
  facet normal 0 0.894427 -0.447214
    outer loop
      vertex 61.1 238.9 7
      vertex 115.4 235.4 0
      vertex 64.6 235.4 0
    endloop
  endfacet
  facet normal -0.894427 0 -0.447214
    outer loop
      vertex 64.6 184.6 0
      vertex 61.1 238.9 7
      vertex 64.6 235.4 0
    endloop
  endfacet
  facet normal -0.894427 -0 -0.447214
    outer loop
      vertex 61.1 238.9 7
      vertex 64.6 184.6 0
      vertex 61.1 181.1 7
    endloop
  endfacet
  facet normal 0.894427 0 -0.447214
    outer loop
      vertex 118.9 238.9 7
      vertex 115.4 184.6 0
      vertex 115.4 235.4 0
    endloop
  endfacet
  facet normal 0.894427 0 -0.447214
    outer loop
      vertex 115.4 184.6 0
      vertex 118.9 238.9 7
      vertex 118.9 181.1 7
    endloop
  endfacet
  facet normal 0 0.894427 0.447214
    outer loop
      vertex 114.2 185.8 1.5
      vertex 61.8 181.8 9.5
      vertex 118.2 181.8 9.5
    endloop
  endfacet
  facet normal 0 0.894427 0.447214
    outer loop
      vertex 61.8 181.8 9.5
      vertex 114.2 185.8 1.5
      vertex 65.8 185.8 1.5
    endloop
  endfacet
  facet normal 0 -0.894427 0.447214
    outer loop
      vertex 65.8 234.2 1.5
      vertex 118.2 238.2 9.5
      vertex 61.8 238.2 9.5
    endloop
  endfacet
  facet normal 0 -0.894427 0.447214
    outer loop
      vertex 118.2 238.2 9.5
      vertex 65.8 234.2 1.5
      vertex 114.2 234.2 1.5
    endloop
  endfacet
  facet normal 0.894427 0 0.447214
    outer loop
      vertex 61.8 238.2 9.5
      vertex 65.8 185.8 1.5
      vertex 65.8 234.2 1.5
    endloop
  endfacet
  facet normal 0.894427 0 0.447214
    outer loop
      vertex 65.8 185.8 1.5
      vertex 61.8 238.2 9.5
      vertex 61.8 181.8 9.5
    endloop
  endfacet
  facet normal -0.894427 0 0.447214
    outer loop
      vertex 114.2 185.8 1.5
      vertex 118.2 238.2 9.5
      vertex 114.2 234.2 1.5
    endloop
  endfacet
  facet normal -0.894427 0 0.447214
    outer loop
      vertex 118.2 238.2 9.5
      vertex 114.2 185.8 1.5
      vertex 118.2 181.8 9.5
    endloop
  endfacet
  facet normal 0 0 -1
    outer loop
      vertex 124.6 4.6 0
      vertex 175.4 55.4 0
      vertex 175.4 4.6 0
    endloop
  endfacet
  facet normal -0 0 -1
    outer loop
      vertex 175.4 55.4 0
      vertex 124.6 4.6 0
      vertex 124.6 55.4 0
    endloop
  endfacet
  facet normal -0 0 1
    outer loop
      vertex 125.8 54.2 1.5
      vertex 174.2 5.8 1.5
      vertex 174.2 54.2 1.5
    endloop
  endfacet
  facet normal 0 0 1
    outer loop
      vertex 174.2 5.8 1.5
      vertex 125.8 54.2 1.5
      vertex 125.8 5.8 1.5
    endloop
  endfacet
  facet normal 0 -0.894427 -0.447214
    outer loop
      vertex 124.6 4.6 0
      vertex 178.9 1.1 7
      vertex 121.1 1.1 7
    endloop
  endfacet
  facet normal 0 -0.894427 -0.447214
    outer loop
      vertex 178.9 1.1 7
      vertex 124.6 4.6 0
      vertex 175.4 4.6 0
    endloop
  endfacet
  facet normal 0 0.894427 -0.447214
    outer loop
      vertex 175.4 55.4 0
      vertex 121.1 58.9 7
      vertex 178.9 58.9 7
    endloop
  endfacet
  facet normal 0 0.894427 -0.447214
    outer loop
      vertex 121.1 58.9 7
      vertex 175.4 55.4 0
      vertex 124.6 55.4 0
    endloop
  endfacet
  facet normal -0.894427 0 -0.447214
    outer loop
      vertex 124.6 4.6 0
      vertex 121.1 58.9 7
      vertex 124.6 55.4 0
    endloop
  endfacet
  facet normal -0.894427 -0 -0.447214
    outer loop
      vertex 121.1 58.9 7
      vertex 124.6 4.6 0
      vertex 121.1 1.1 7
    endloop
  endfacet
  facet normal 0.894427 0 -0.447214
    outer loop
      vertex 178.9 58.9 7
      vertex 175.4 4.6 0
      vertex 175.4 55.4 0
    endloop
  endfacet
  facet normal 0.894427 0 -0.447214
    outer loop
      vertex 175.4 4.6 0
      vertex 178.9 58.9 7
      vertex 178.9 1.1 7
    endloop
  endfacet
  facet normal 0 0.894427 0.447214
    outer loop
      vertex 174.2 5.8 1.5
      vertex 121.8 1.8 9.5
      vertex 178.2 1.8 9.5
    endloop
  endfacet
  facet normal 0 0.894427 0.447214
    outer loop
      vertex 121.8 1.8 9.5
      vertex 174.2 5.8 1.5
      vertex 125.8 5.8 1.5
    endloop
  endfacet
  facet normal 0 -0.894427 0.447214
    outer loop
      vertex 125.8 54.2 1.5
      vertex 178.2 58.2 9.5
      vertex 121.8 58.2 9.5
    endloop
  endfacet
  facet normal 0 -0.894427 0.447214
    outer loop
      vertex 178.2 58.2 9.5
      vertex 125.8 54.2 1.5
      vertex 174.2 54.2 1.5
    endloop
  endfacet
  facet normal 0.894427 0 0.447214
    outer loop
      vertex 121.8 58.2 9.5
      vertex 125.8 5.8 1.5
      vertex 125.8 54.2 1.5
    endloop
  endfacet
  facet normal 0.894427 0 0.447214
    outer loop
      vertex 125.8 5.8 1.5
      vertex 121.8 58.2 9.5
      vertex 121.8 1.8 9.5
    endloop
  endfacet
  facet normal -0.894427 0 0.447214
    outer loop
      vertex 174.2 5.8 1.5
      vertex 178.2 58.2 9.5
      vertex 174.2 54.2 1.5
    endloop
  endfacet
  facet normal -0.894427 0 0.447214
    outer loop
      vertex 178.2 58.2 9.5
      vertex 174.2 5.8 1.5
      vertex 178.2 1.8 9.5
    endloop
  endfacet
  facet normal 0 0 -1
    outer loop
      vertex 124.6 64.6 0
      vertex 175.4 115.4 0
      vertex 175.4 64.6 0
    endloop
  endfacet
  facet normal -0 0 -1
    outer loop
      vertex 175.4 115.4 0
      vertex 124.6 64.6 0
      vertex 124.6 115.4 0
    endloop
  endfacet
  facet normal -0 0 1
    outer loop
      vertex 125.8 114.2 1.5
      vertex 174.2 65.8 1.5
      vertex 174.2 114.2 1.5
    endloop
  endfacet
  facet normal 0 0 1
    outer loop
      vertex 174.2 65.8 1.5
      vertex 125.8 114.2 1.5
      vertex 125.8 65.8 1.5
    endloop
  endfacet
  facet normal 0 -0.894427 -0.447214
    outer loop
      vertex 124.6 64.6 0
      vertex 178.9 61.1 7
      vertex 121.1 61.1 7
    endloop
  endfacet
  facet normal 0 -0.894427 -0.447214
    outer loop
      vertex 178.9 61.1 7
      vertex 124.6 64.6 0
      vertex 175.4 64.6 0
    endloop
  endfacet
  facet normal 0 0.894427 -0.447214
    outer loop
      vertex 175.4 115.4 0
      vertex 121.1 118.9 7
      vertex 178.9 118.9 7
    endloop
  endfacet
  facet normal 0 0.894427 -0.447214
    outer loop
      vertex 121.1 118.9 7
      vertex 175.4 115.4 0
      vertex 124.6 115.4 0
    endloop
  endfacet
  facet normal -0.894427 0 -0.447214
    outer loop
      vertex 124.6 64.6 0
      vertex 121.1 118.9 7
      vertex 124.6 115.4 0
    endloop
  endfacet
  facet normal -0.894427 -0 -0.447214
    outer loop
      vertex 121.1 118.9 7
      vertex 124.6 64.6 0
      vertex 121.1 61.1 7
    endloop
  endfacet
  facet normal 0.894427 0 -0.447214
    outer loop
      vertex 178.9 118.9 7
      vertex 175.4 64.6 0
      vertex 175.4 115.4 0
    endloop
  endfacet
  facet normal 0.894427 0 -0.447214
    outer loop
      vertex 175.4 64.6 0
      vertex 178.9 118.9 7
      vertex 178.9 61.1 7
    endloop
  endfacet
  facet normal 0 0.894427 0.447214
    outer loop
      vertex 174.2 65.8 1.5
      vertex 121.8 61.8 9.5
      vertex 178.2 61.8 9.5
    endloop
  endfacet
  facet normal 0 0.894427 0.447214
    outer loop
      vertex 121.8 61.8 9.5
      vertex 174.2 65.8 1.5
      vertex 125.8 65.8 1.5
    endloop
  endfacet
  facet normal 0 -0.894427 0.447214
    outer loop
      vertex 125.8 114.2 1.5
      vertex 178.2 118.2 9.5
      vertex 121.8 118.2 9.5
    endloop
  endfacet
  facet normal 0 -0.894427 0.447214
    outer loop
      vertex 178.2 118.2 9.5
      vertex 125.8 114.2 1.5
      vertex 174.2 114.2 1.5
    endloop
  endfacet
  facet normal 0.894427 0 0.447214
    outer loop
      vertex 121.8 118.2 9.5
      vertex 125.8 65.8 1.5
      vertex 125.8 114.2 1.5
    endloop
  endfacet
  facet normal 0.894427 0 0.447214
    outer loop
      vertex 125.8 65.8 1.5
      vertex 121.8 118.2 9.5
      vertex 121.8 61.8 9.5
    endloop
  endfacet
  facet normal -0.894427 0 0.447214
    outer loop
      vertex 174.2 65.8 1.5
      vertex 178.2 118.2 9.5
      vertex 174.2 114.2 1.5
    endloop
  endfacet
  facet normal -0.894427 0 0.447214
    outer loop
      vertex 178.2 118.2 9.5
      vertex 174.2 65.8 1.5
      vertex 178.2 61.8 9.5
    endloop
  endfacet
  facet normal 0 0 -1
    outer loop
      vertex 124.6 124.6 0
      vertex 175.4 175.4 0
      vertex 175.4 124.6 0
    endloop
  endfacet
  facet normal -0 0 -1
    outer loop
      vertex 175.4 175.4 0
      vertex 124.6 124.6 0
      vertex 124.6 175.4 0
    endloop
  endfacet
  facet normal -0 0 1
    outer loop
      vertex 125.8 174.2 1.5
      vertex 174.2 125.8 1.5
      vertex 174.2 174.2 1.5
    endloop
  endfacet
  facet normal 0 0 1
    outer loop
      vertex 174.2 125.8 1.5
      vertex 125.8 174.2 1.5
      vertex 125.8 125.8 1.5
    endloop
  endfacet
  facet normal 0 -0.894427 -0.447214
    outer loop
      vertex 124.6 124.6 0
      vertex 178.9 121.1 7
      vertex 121.1 121.1 7
    endloop
  endfacet
  facet normal 0 -0.894427 -0.447214
    outer loop
      vertex 178.9 121.1 7
      vertex 124.6 124.6 0
      vertex 175.4 124.6 0
    endloop
  endfacet
  facet normal 0 0.894427 -0.447214
    outer loop
      vertex 175.4 175.4 0
      vertex 121.1 178.9 7
      vertex 178.9 178.9 7
    endloop
  endfacet
  facet normal 0 0.894427 -0.447214
    outer loop
      vertex 121.1 178.9 7
      vertex 175.4 175.4 0
      vertex 124.6 175.4 0
    endloop
  endfacet
  facet normal -0.894427 0 -0.447214
    outer loop
      vertex 124.6 124.6 0
      vertex 121.1 178.9 7
      vertex 124.6 175.4 0
    endloop
  endfacet
  facet normal -0.894427 -0 -0.447214
    outer loop
      vertex 121.1 178.9 7
      vertex 124.6 124.6 0
      vertex 121.1 121.1 7
    endloop
  endfacet
  facet normal 0.894427 0 -0.447214
    outer loop
      vertex 178.9 178.9 7
      vertex 175.4 124.6 0
      vertex 175.4 175.4 0
    endloop
  endfacet
  facet normal 0.894427 0 -0.447214
    outer loop
      vertex 175.4 124.6 0
      vertex 178.9 178.9 7
      vertex 178.9 121.1 7
    endloop
  endfacet
  facet normal 0 0.894427 0.447214
    outer loop
      vertex 174.2 125.8 1.5
      vertex 121.8 121.8 9.5
      vertex 178.2 121.8 9.5
    endloop
  endfacet
  facet normal 0 0.894427 0.447214
    outer loop
      vertex 121.8 121.8 9.5
      vertex 174.2 125.8 1.5
      vertex 125.8 125.8 1.5
    endloop
  endfacet
  facet normal 0 -0.894427 0.447214
    outer loop
      vertex 125.8 174.2 1.5
      vertex 178.2 178.2 9.5
      vertex 121.8 178.2 9.5
    endloop
  endfacet
  facet normal 0 -0.894427 0.447214
    outer loop
      vertex 178.2 178.2 9.5
      vertex 125.8 174.2 1.5
      vertex 174.2 174.2 1.5
    endloop
  endfacet
  facet normal 0.894427 0 0.447214
    outer loop
      vertex 121.8 178.2 9.5
      vertex 125.8 125.8 1.5
      vertex 125.8 174.2 1.5
    endloop
  endfacet
  facet normal 0.894427 0 0.447214
    outer loop
      vertex 125.8 125.8 1.5
      vertex 121.8 178.2 9.5
      vertex 121.8 121.8 9.5
    endloop
  endfacet
  facet normal -0.894427 0 0.447214
    outer loop
      vertex 174.2 125.8 1.5
      vertex 178.2 178.2 9.5
      vertex 174.2 174.2 1.5
    endloop
  endfacet
  facet normal -0.894427 0 0.447214
    outer loop
      vertex 178.2 178.2 9.5
      vertex 174.2 125.8 1.5
      vertex 178.2 121.8 9.5
    endloop
  endfacet
  facet normal 0 0 -1
    outer loop
      vertex 124.6 184.6 0
      vertex 175.4 235.4 0
      vertex 175.4 184.6 0
    endloop
  endfacet
  facet normal -0 0 -1
    outer loop
      vertex 175.4 235.4 0
      vertex 124.6 184.6 0
      vertex 124.6 235.4 0
    endloop
  endfacet
  facet normal -0 0 1
    outer loop
      vertex 125.8 234.2 1.5
      vertex 174.2 185.8 1.5
      vertex 174.2 234.2 1.5
    endloop
  endfacet
  facet normal 0 0 1
    outer loop
      vertex 174.2 185.8 1.5
      vertex 125.8 234.2 1.5
      vertex 125.8 185.8 1.5
    endloop
  endfacet
  facet normal 0 -0.894427 -0.447214
    outer loop
      vertex 124.6 184.6 0
      vertex 178.9 181.1 7
      vertex 121.1 181.1 7
    endloop
  endfacet
  facet normal 0 -0.894427 -0.447214
    outer loop
      vertex 178.9 181.1 7
      vertex 124.6 184.6 0
      vertex 175.4 184.6 0
    endloop
  endfacet
  facet normal 0 0.894427 -0.447214
    outer loop
      vertex 175.4 235.4 0
      vertex 121.1 238.9 7
      vertex 178.9 238.9 7
    endloop
  endfacet
  facet normal 0 0.894427 -0.447214
    outer loop
      vertex 121.1 238.9 7
      vertex 175.4 235.4 0
      vertex 124.6 235.4 0
    endloop
  endfacet
  facet normal -0.894427 0 -0.447214
    outer loop
      vertex 124.6 184.6 0
      vertex 121.1 238.9 7
      vertex 124.6 235.4 0
    endloop
  endfacet
  facet normal -0.894427 -0 -0.447214
    outer loop
      vertex 121.1 238.9 7
      vertex 124.6 184.6 0
      vertex 121.1 181.1 7
    endloop
  endfacet
  facet normal 0.894427 0 -0.447214
    outer loop
      vertex 178.9 238.9 7
      vertex 175.4 184.6 0
      vertex 175.4 235.4 0
    endloop
  endfacet
  facet normal 0.894427 0 -0.447214
    outer loop
      vertex 175.4 184.6 0
      vertex 178.9 238.9 7
      vertex 178.9 181.1 7
    endloop
  endfacet
  facet normal 0 0.894427 0.447214
    outer loop
      vertex 174.2 185.8 1.5
      vertex 121.8 181.8 9.5
      vertex 178.2 181.8 9.5
    endloop
  endfacet
  facet normal 0 0.894427 0.447214
    outer loop
      vertex 121.8 181.8 9.5
      vertex 174.2 185.8 1.5
      vertex 125.8 185.8 1.5
    endloop
  endfacet
  facet normal 0 -0.894427 0.447214
    outer loop
      vertex 125.8 234.2 1.5
      vertex 178.2 238.2 9.5
      vertex 121.8 238.2 9.5
    endloop
  endfacet
  facet normal 0 -0.894427 0.447214
    outer loop
      vertex 178.2 238.2 9.5
      vertex 125.8 234.2 1.5
      vertex 174.2 234.2 1.5
    endloop
  endfacet
  facet normal 0.894427 0 0.447214
    outer loop
      vertex 121.8 238.2 9.5
      vertex 125.8 185.8 1.5
      vertex 125.8 234.2 1.5
    endloop
  endfacet
  facet normal 0.894427 0 0.447214
    outer loop
      vertex 125.8 185.8 1.5
      vertex 121.8 238.2 9.5
      vertex 121.8 181.8 9.5
    endloop
  endfacet
  facet normal -0.894427 0 0.447214
    outer loop
      vertex 174.2 185.8 1.5
      vertex 178.2 238.2 9.5
      vertex 174.2 234.2 1.5
    endloop
  endfacet
  facet normal -0.894427 0 0.447214
    outer loop
      vertex 178.2 238.2 9.5
      vertex 174.2 185.8 1.5
      vertex 178.2 181.8 9.5
    endloop
  endfacet
  facet normal 0 0 -1
    outer loop
      vertex 184.6 4.6 0
      vertex 235.4 55.4 0
      vertex 235.4 4.6 0
    endloop
  endfacet
  facet normal -0 0 -1
    outer loop
      vertex 235.4 55.4 0
      vertex 184.6 4.6 0
      vertex 184.6 55.4 0
    endloop
  endfacet
  facet normal -0 0 1
    outer loop
      vertex 185.8 54.2 1.5
      vertex 234.2 5.8 1.5
      vertex 234.2 54.2 1.5
    endloop
  endfacet
  facet normal 0 0 1
    outer loop
      vertex 234.2 5.8 1.5
      vertex 185.8 54.2 1.5
      vertex 185.8 5.8 1.5
    endloop
  endfacet
  facet normal 0 -0.894427 -0.447214
    outer loop
      vertex 184.6 4.6 0
      vertex 238.9 1.1 7
      vertex 181.1 1.1 7
    endloop
  endfacet
  facet normal 0 -0.894427 -0.447214
    outer loop
      vertex 238.9 1.1 7
      vertex 184.6 4.6 0
      vertex 235.4 4.6 0
    endloop
  endfacet
  facet normal 0 0.894427 -0.447214
    outer loop
      vertex 235.4 55.4 0
      vertex 181.1 58.9 7
      vertex 238.9 58.9 7
    endloop
  endfacet
  facet normal 0 0.894427 -0.447214
    outer loop
      vertex 181.1 58.9 7
      vertex 235.4 55.4 0
      vertex 184.6 55.4 0
    endloop
  endfacet
  facet normal -0.894427 0 -0.447214
    outer loop
      vertex 184.6 4.6 0
      vertex 181.1 58.9 7
      vertex 184.6 55.4 0
    endloop
  endfacet
  facet normal -0.894427 -0 -0.447214
    outer loop
      vertex 181.1 58.9 7
      vertex 184.6 4.6 0
      vertex 181.1 1.1 7
    endloop
  endfacet
  facet normal 0.894427 0 -0.447214
    outer loop
      vertex 238.9 58.9 7
      vertex 235.4 4.6 0
      vertex 235.4 55.4 0
    endloop
  endfacet
  facet normal 0.894427 0 -0.447214
    outer loop
      vertex 235.4 4.6 0
      vertex 238.9 58.9 7
      vertex 238.9 1.1 7
    endloop
  endfacet
  facet normal 0 0.894427 0.447214
    outer loop
      vertex 234.2 5.8 1.5
      vertex 181.8 1.8 9.5
      vertex 238.2 1.8 9.5
    endloop
  endfacet
  facet normal 0 0.894427 0.447214
    outer loop
      vertex 181.8 1.8 9.5
      vertex 234.2 5.8 1.5
      vertex 185.8 5.8 1.5
    endloop
  endfacet
  facet normal 0 -0.894427 0.447214
    outer loop
      vertex 185.8 54.2 1.5
      vertex 238.2 58.2 9.5
      vertex 181.8 58.2 9.5
    endloop
  endfacet
  facet normal 0 -0.894427 0.447214
    outer loop
      vertex 238.2 58.2 9.5
      vertex 185.8 54.2 1.5
      vertex 234.2 54.2 1.5
    endloop
  endfacet
  facet normal 0.894427 0 0.447214
    outer loop
      vertex 181.8 58.2 9.5
      vertex 185.8 5.8 1.5
      vertex 185.8 54.2 1.5
    endloop
  endfacet
  facet normal 0.894427 0 0.447214
    outer loop
      vertex 185.8 5.8 1.5
      vertex 181.8 58.2 9.5
      vertex 181.8 1.8 9.5
    endloop
  endfacet
  facet normal -0.894427 0 0.447214
    outer loop
      vertex 234.2 5.8 1.5
      vertex 238.2 58.2 9.5
      vertex 234.2 54.2 1.5
    endloop
  endfacet
  facet normal -0.894427 0 0.447214
    outer loop
      vertex 238.2 58.2 9.5
      vertex 234.2 5.8 1.5
      vertex 238.2 1.8 9.5
    endloop
  endfacet
  facet normal 0 0 -1
    outer loop
      vertex 184.6 64.6 0
      vertex 235.4 115.4 0
      vertex 235.4 64.6 0
    endloop
  endfacet
  facet normal -0 0 -1
    outer loop
      vertex 235.4 115.4 0
      vertex 184.6 64.6 0
      vertex 184.6 115.4 0
    endloop
  endfacet
  facet normal -0 0 1
    outer loop
      vertex 185.8 114.2 1.5
      vertex 234.2 65.8 1.5
      vertex 234.2 114.2 1.5
    endloop
  endfacet
  facet normal 0 0 1
    outer loop
      vertex 234.2 65.8 1.5
      vertex 185.8 114.2 1.5
      vertex 185.8 65.8 1.5
    endloop
  endfacet
  facet normal 0 -0.894427 -0.447214
    outer loop
      vertex 184.6 64.6 0
      vertex 238.9 61.1 7
      vertex 181.1 61.1 7
    endloop
  endfacet
  facet normal 0 -0.894427 -0.447214
    outer loop
      vertex 238.9 61.1 7
      vertex 184.6 64.6 0
      vertex 235.4 64.6 0
    endloop
  endfacet
  facet normal 0 0.894427 -0.447214
    outer loop
      vertex 235.4 115.4 0
      vertex 181.1 118.9 7
      vertex 238.9 118.9 7
    endloop
  endfacet
  facet normal 0 0.894427 -0.447214
    outer loop
      vertex 181.1 118.9 7
      vertex 235.4 115.4 0
      vertex 184.6 115.4 0
    endloop
  endfacet
  facet normal -0.894427 0 -0.447214
    outer loop
      vertex 184.6 64.6 0
      vertex 181.1 118.9 7
      vertex 184.6 115.4 0
    endloop
  endfacet
  facet normal -0.894427 -0 -0.447214
    outer loop
      vertex 181.1 118.9 7
      vertex 184.6 64.6 0
      vertex 181.1 61.1 7
    endloop
  endfacet
  facet normal 0.894427 0 -0.447214
    outer loop
      vertex 238.9 118.9 7
      vertex 235.4 64.6 0
      vertex 235.4 115.4 0
    endloop
  endfacet
  facet normal 0.894427 0 -0.447214
    outer loop
      vertex 235.4 64.6 0
      vertex 238.9 118.9 7
      vertex 238.9 61.1 7
    endloop
  endfacet
  facet normal 0 0.894427 0.447214
    outer loop
      vertex 234.2 65.8 1.5
      vertex 181.8 61.8 9.5
      vertex 238.2 61.8 9.5
    endloop
  endfacet
  facet normal 0 0.894427 0.447214
    outer loop
      vertex 181.8 61.8 9.5
      vertex 234.2 65.8 1.5
      vertex 185.8 65.8 1.5
    endloop
  endfacet
  facet normal 0 -0.894427 0.447214
    outer loop
      vertex 185.8 114.2 1.5
      vertex 238.2 118.2 9.5
      vertex 181.8 118.2 9.5
    endloop
  endfacet
  facet normal 0 -0.894427 0.447214
    outer loop
      vertex 238.2 118.2 9.5
      vertex 185.8 114.2 1.5
      vertex 234.2 114.2 1.5
    endloop
  endfacet
  facet normal 0.894427 0 0.447214
    outer loop
      vertex 181.8 118.2 9.5
      vertex 185.8 65.8 1.5
      vertex 185.8 114.2 1.5
    endloop
  endfacet
  facet normal 0.894427 0 0.447214
    outer loop
      vertex 185.8 65.8 1.5
      vertex 181.8 118.2 9.5
      vertex 181.8 61.8 9.5
    endloop
  endfacet
  facet normal -0.894427 0 0.447214
    outer loop
      vertex 234.2 65.8 1.5
      vertex 238.2 118.2 9.5
      vertex 234.2 114.2 1.5
    endloop
  endfacet
  facet normal -0.894427 0 0.447214
    outer loop
      vertex 238.2 118.2 9.5
      vertex 234.2 65.8 1.5
      vertex 238.2 61.8 9.5
    endloop
  endfacet
  facet normal 0 0 -1
    outer loop
      vertex 184.6 124.6 0
      vertex 235.4 175.4 0
      vertex 235.4 124.6 0
    endloop
  endfacet
  facet normal -0 0 -1
    outer loop
      vertex 235.4 175.4 0
      vertex 184.6 124.6 0
      vertex 184.6 175.4 0
    endloop
  endfacet
  facet normal -0 0 1
    outer loop
      vertex 185.8 174.2 1.5
      vertex 234.2 125.8 1.5
      vertex 234.2 174.2 1.5
    endloop
  endfacet
  facet normal 0 0 1
    outer loop
      vertex 234.2 125.8 1.5
      vertex 185.8 174.2 1.5
      vertex 185.8 125.8 1.5
    endloop
  endfacet
  facet normal 0 -0.894427 -0.447214
    outer loop
      vertex 184.6 124.6 0
      vertex 238.9 121.1 7
      vertex 181.1 121.1 7
    endloop
  endfacet
  facet normal 0 -0.894427 -0.447214
    outer loop
      vertex 238.9 121.1 7
      vertex 184.6 124.6 0
      vertex 235.4 124.6 0
    endloop
  endfacet
  facet normal 0 0.894427 -0.447214
    outer loop
      vertex 235.4 175.4 0
      vertex 181.1 178.9 7
      vertex 238.9 178.9 7
    endloop
  endfacet
  facet normal 0 0.894427 -0.447214
    outer loop
      vertex 181.1 178.9 7
      vertex 235.4 175.4 0
      vertex 184.6 175.4 0
    endloop
  endfacet
  facet normal -0.894427 0 -0.447214
    outer loop
      vertex 184.6 124.6 0
      vertex 181.1 178.9 7
      vertex 184.6 175.4 0
    endloop
  endfacet
  facet normal -0.894427 -0 -0.447214
    outer loop
      vertex 181.1 178.9 7
      vertex 184.6 124.6 0
      vertex 181.1 121.1 7
    endloop
  endfacet
  facet normal 0.894427 0 -0.447214
    outer loop
      vertex 238.9 178.9 7
      vertex 235.4 124.6 0
      vertex 235.4 175.4 0
    endloop
  endfacet
  facet normal 0.894427 0 -0.447214
    outer loop
      vertex 235.4 124.6 0
      vertex 238.9 178.9 7
      vertex 238.9 121.1 7
    endloop
  endfacet
  facet normal 0 0.894427 0.447214
    outer loop
      vertex 234.2 125.8 1.5
      vertex 181.8 121.8 9.5
      vertex 238.2 121.8 9.5
    endloop
  endfacet
  facet normal 0 0.894427 0.447214
    outer loop
      vertex 181.8 121.8 9.5
      vertex 234.2 125.8 1.5
      vertex 185.8 125.8 1.5
    endloop
  endfacet
  facet normal 0 -0.894427 0.447214
    outer loop
      vertex 185.8 174.2 1.5
      vertex 238.2 178.2 9.5
      vertex 181.8 178.2 9.5
    endloop
  endfacet
  facet normal 0 -0.894427 0.447214
    outer loop
      vertex 238.2 178.2 9.5
      vertex 185.8 174.2 1.5
      vertex 234.2 174.2 1.5
    endloop
  endfacet
  facet normal 0.894427 0 0.447214
    outer loop
      vertex 181.8 178.2 9.5
      vertex 185.8 125.8 1.5
      vertex 185.8 174.2 1.5
    endloop
  endfacet
  facet normal 0.894427 0 0.447214
    outer loop
      vertex 185.8 125.8 1.5
      vertex 181.8 178.2 9.5
      vertex 181.8 121.8 9.5
    endloop
  endfacet
  facet normal -0.894427 0 0.447214
    outer loop
      vertex 234.2 125.8 1.5
      vertex 238.2 178.2 9.5
      vertex 234.2 174.2 1.5
    endloop
  endfacet
  facet normal -0.894427 0 0.447214
    outer loop
      vertex 238.2 178.2 9.5
      vertex 234.2 125.8 1.5
      vertex 238.2 121.8 9.5
    endloop
  endfacet
  facet normal 0 0 -1
    outer loop
      vertex 184.6 184.6 0
      vertex 235.4 235.4 0
      vertex 235.4 184.6 0
    endloop
  endfacet
  facet normal -0 0 -1
    outer loop
      vertex 235.4 235.4 0
      vertex 184.6 184.6 0
      vertex 184.6 235.4 0
    endloop
  endfacet
  facet normal -0 0 1
    outer loop
      vertex 185.8 234.2 1.5
      vertex 234.2 185.8 1.5
      vertex 234.2 234.2 1.5
    endloop
  endfacet
  facet normal 0 0 1
    outer loop
      vertex 234.2 185.8 1.5
      vertex 185.8 234.2 1.5
      vertex 185.8 185.8 1.5
    endloop
  endfacet
  facet normal 0 -0.894427 -0.447214
    outer loop
      vertex 184.6 184.6 0
      vertex 238.9 181.1 7
      vertex 181.1 181.1 7
    endloop
  endfacet
  facet normal 0 -0.894427 -0.447214
    outer loop
      vertex 238.9 181.1 7
      vertex 184.6 184.6 0
      vertex 235.4 184.6 0
    endloop
  endfacet
  facet normal 0 0.894427 -0.447214
    outer loop
      vertex 235.4 235.4 0
      vertex 181.1 238.9 7
      vertex 238.9 238.9 7
    endloop
  endfacet
  facet normal 0 0.894427 -0.447214
    outer loop
      vertex 181.1 238.9 7
      vertex 235.4 235.4 0
      vertex 184.6 235.4 0
    endloop
  endfacet
  facet normal -0.894427 0 -0.447214
    outer loop
      vertex 184.6 184.6 0
      vertex 181.1 238.9 7
      vertex 184.6 235.4 0
    endloop
  endfacet
  facet normal -0.894427 -0 -0.447214
    outer loop
      vertex 181.1 238.9 7
      vertex 184.6 184.6 0
      vertex 181.1 181.1 7
    endloop
  endfacet
  facet normal 0.894427 0 -0.447214
    outer loop
      vertex 238.9 238.9 7
      vertex 235.4 184.6 0
      vertex 235.4 235.4 0
    endloop
  endfacet
  facet normal 0.894427 0 -0.447214
    outer loop
      vertex 235.4 184.6 0
      vertex 238.9 238.9 7
      vertex 238.9 181.1 7
    endloop
  endfacet
  facet normal 0 0.894427 0.447214
    outer loop
      vertex 234.2 185.8 1.5
      vertex 181.8 181.8 9.5
      vertex 238.2 181.8 9.5
    endloop
  endfacet
  facet normal 0 0.894427 0.447214
    outer loop
      vertex 181.8 181.8 9.5
      vertex 234.2 185.8 1.5
      vertex 185.8 185.8 1.5
    endloop
  endfacet
  facet normal 0 -0.894427 0.447214
    outer loop
      vertex 185.8 234.2 1.5
      vertex 238.2 238.2 9.5
      vertex 181.8 238.2 9.5
    endloop
  endfacet
  facet normal 0 -0.894427 0.447214
    outer loop
      vertex 238.2 238.2 9.5
      vertex 185.8 234.2 1.5
      vertex 234.2 234.2 1.5
    endloop
  endfacet
  facet normal 0.894427 0 0.447214
    outer loop
      vertex 181.8 238.2 9.5
      vertex 185.8 185.8 1.5
      vertex 185.8 234.2 1.5
    endloop
  endfacet
  facet normal 0.894427 0 0.447214
    outer loop
      vertex 185.8 185.8 1.5
      vertex 181.8 238.2 9.5
      vertex 181.8 181.8 9.5
    endloop
  endfacet
  facet normal -0.894427 0 0.447214
    outer loop
      vertex 234.2 185.8 1.5
      vertex 238.2 238.2 9.5
      vertex 234.2 234.2 1.5
    endloop
  endfacet
  facet normal -0.894427 0 0.447214
    outer loop
      vertex 238.2 238.2 9.5
      vertex 234.2 185.8 1.5
      vertex 238.2 181.8 9.5
    endloop
  endfacet
  facet normal -0 0 1
    outer loop
      vertex 1.8 61.8 9.5
      vertex 58.2 58.2 9.5
      vertex 58.2 61.8 9.5
    endloop
  endfacet
  facet normal 0 0 1
    outer loop
      vertex 58.2 58.2 9.5
      vertex 1.8 61.8 9.5
      vertex 1.8 58.2 9.5
    endloop
  endfacet
  facet normal -0 0 1
    outer loop
      vertex 1.8 121.8 9.5
      vertex 58.2 118.2 9.5
      vertex 58.2 121.8 9.5
    endloop
  endfacet
  facet normal 0 0 1
    outer loop
      vertex 58.2 118.2 9.5
      vertex 1.8 121.8 9.5
      vertex 1.8 118.2 9.5
    endloop
  endfacet
  facet normal -0 0 1
    outer loop
      vertex 1.8 181.8 9.5
      vertex 58.2 178.2 9.5
      vertex 58.2 181.8 9.5
    endloop
  endfacet
  facet normal 0 0 1
    outer loop
      vertex 58.2 178.2 9.5
      vertex 1.8 181.8 9.5
      vertex 1.8 178.2 9.5
    endloop
  endfacet
  facet normal 0 0 1
    outer loop
      vertex 58.2 181.8 9.5
      vertex 61.8 181.8 9.5
      vertex 61.8 238.2 9.5
    endloop
  endfacet
  facet normal 0 0 1
    outer loop
      vertex 61.8 181.8 9.5
      vertex 58.2 181.8 9.5
      vertex 61.8 178.2 9.5
    endloop
  endfacet
  facet normal 0 0 1
    outer loop
      vertex 61.8 178.2 9.5
      vertex 58.2 178.2 9.5
      vertex 61.8 121.8 9.5
    endloop
  endfacet
  facet normal 0 0 1
    outer loop
      vertex 58.2 121.8 9.5
      vertex 61.8 121.8 9.5
      vertex 58.2 178.2 9.5
    endloop
  endfacet
  facet normal 0 0 1
    outer loop
      vertex 58.2 118.2 9.5
      vertex 61.8 118.2 9.5
      vertex 58.2 121.8 9.5
    endloop
  endfacet
  facet normal 0 0 1
    outer loop
      vertex 61.8 118.2 9.5
      vertex 58.2 118.2 9.5
      vertex 61.8 61.8 9.5
    endloop
  endfacet
  facet normal 0 0 1
    outer loop
      vertex 58.2 181.8 9.5
      vertex 61.8 238.2 9.5
      vertex 58.2 238.2 9.5
    endloop
  endfacet
  facet normal 0 0 1
    outer loop
      vertex 61.8 178.2 9.5
      vertex 58.2 181.8 9.5
      vertex 58.2 178.2 9.5
    endloop
  endfacet
  facet normal 0 0 1
    outer loop
      vertex 61.8 121.8 9.5
      vertex 58.2 121.8 9.5
      vertex 61.8 118.2 9.5
    endloop
  endfacet
  facet normal 0 0 1
    outer loop
      vertex 58.2 61.8 9.5
      vertex 61.8 61.8 9.5
      vertex 58.2 118.2 9.5
    endloop
  endfacet
  facet normal 0 0 1
    outer loop
      vertex 61.8 61.8 9.5
      vertex 58.2 61.8 9.5
      vertex 61.8 58.2 9.5
    endloop
  endfacet
  facet normal 0 0 1
    outer loop
      vertex 58.2 58.2 9.5
      vertex 61.8 58.2 9.5
      vertex 58.2 61.8 9.5
    endloop
  endfacet
  facet normal 0 0 1
    outer loop
      vertex 61.8 58.2 9.5
      vertex 58.2 58.2 9.5
      vertex 61.8 1.8 9.5
    endloop
  endfacet
  facet normal 0 0 1
    outer loop
      vertex 61.8 1.8 9.5
      vertex 58.2 58.2 9.5
      vertex 58.2 1.8 9.5
    endloop
  endfacet
  facet normal -0 0 1
    outer loop
      vertex 61.8 61.8 9.5
      vertex 118.2 58.2 9.5
      vertex 118.2 61.8 9.5
    endloop
  endfacet
  facet normal 0 0 1
    outer loop
      vertex 118.2 58.2 9.5
      vertex 61.8 61.8 9.5
      vertex 61.8 58.2 9.5
    endloop
  endfacet
  facet normal -0 0 1
    outer loop
      vertex 61.8 121.8 9.5
      vertex 118.2 118.2 9.5
      vertex 118.2 121.8 9.5
    endloop
  endfacet
  facet normal 0 0 1
    outer loop
      vertex 118.2 118.2 9.5
      vertex 61.8 121.8 9.5
      vertex 61.8 118.2 9.5
    endloop
  endfacet
  facet normal -0 0 1
    outer loop
      vertex 61.8 181.8 9.5
      vertex 118.2 178.2 9.5
      vertex 118.2 181.8 9.5
    endloop
  endfacet
  facet normal 0 0 1
    outer loop
      vertex 118.2 178.2 9.5
      vertex 61.8 181.8 9.5
      vertex 61.8 178.2 9.5
    endloop
  endfacet
  facet normal 0 0 1
    outer loop
      vertex 118.2 181.8 9.5
      vertex 121.8 181.8 9.5
      vertex 121.8 238.2 9.5
    endloop
  endfacet
  facet normal 0 0 1
    outer loop
      vertex 121.8 181.8 9.5
      vertex 118.2 181.8 9.5
      vertex 121.8 178.2 9.5
    endloop
  endfacet
  facet normal 0 0 1
    outer loop
      vertex 121.8 178.2 9.5
      vertex 118.2 178.2 9.5
      vertex 121.8 121.8 9.5
    endloop
  endfacet
  facet normal 0 0 1
    outer loop
      vertex 118.2 121.8 9.5
      vertex 121.8 121.8 9.5
      vertex 118.2 178.2 9.5
    endloop
  endfacet
  facet normal 0 0 1
    outer loop
      vertex 118.2 118.2 9.5
      vertex 121.8 118.2 9.5
      vertex 118.2 121.8 9.5
    endloop
  endfacet
  facet normal 0 0 1
    outer loop
      vertex 121.8 118.2 9.5
      vertex 118.2 118.2 9.5
      vertex 121.8 61.8 9.5
    endloop
  endfacet
  facet normal 0 0 1
    outer loop
      vertex 118.2 181.8 9.5
      vertex 121.8 238.2 9.5
      vertex 118.2 238.2 9.5
    endloop
  endfacet
  facet normal 0 0 1
    outer loop
      vertex 121.8 178.2 9.5
      vertex 118.2 181.8 9.5
      vertex 118.2 178.2 9.5
    endloop
  endfacet
  facet normal 0 0 1
    outer loop
      vertex 121.8 121.8 9.5
      vertex 118.2 121.8 9.5
      vertex 121.8 118.2 9.5
    endloop
  endfacet
  facet normal 0 0 1
    outer loop
      vertex 118.2 61.8 9.5
      vertex 121.8 61.8 9.5
      vertex 118.2 118.2 9.5
    endloop
  endfacet
  facet normal 0 0 1
    outer loop
      vertex 121.8 61.8 9.5
      vertex 118.2 61.8 9.5
      vertex 121.8 58.2 9.5
    endloop
  endfacet
  facet normal 0 0 1
    outer loop
      vertex 118.2 58.2 9.5
      vertex 121.8 58.2 9.5
      vertex 118.2 61.8 9.5
    endloop
  endfacet
  facet normal 0 0 1
    outer loop
      vertex 121.8 58.2 9.5
      vertex 118.2 58.2 9.5
      vertex 121.8 1.8 9.5
    endloop
  endfacet
  facet normal 0 0 1
    outer loop
      vertex 121.8 1.8 9.5
      vertex 118.2 58.2 9.5
      vertex 118.2 1.8 9.5
    endloop
  endfacet
  facet normal -0 0 1
    outer loop
      vertex 121.8 61.8 9.5
      vertex 178.2 58.2 9.5
      vertex 178.2 61.8 9.5
    endloop
  endfacet
  facet normal 0 0 1
    outer loop
      vertex 178.2 58.2 9.5
      vertex 121.8 61.8 9.5
      vertex 121.8 58.2 9.5
    endloop
  endfacet
  facet normal -0 0 1
    outer loop
      vertex 121.8 121.8 9.5
      vertex 178.2 118.2 9.5
      vertex 178.2 121.8 9.5
    endloop
  endfacet
  facet normal 0 0 1
    outer loop
      vertex 178.2 118.2 9.5
      vertex 121.8 121.8 9.5
      vertex 121.8 118.2 9.5
    endloop
  endfacet
  facet normal -0 0 1
    outer loop
      vertex 121.8 181.8 9.5
      vertex 178.2 178.2 9.5
      vertex 178.2 181.8 9.5
    endloop
  endfacet
  facet normal 0 0 1
    outer loop
      vertex 178.2 178.2 9.5
      vertex 121.8 181.8 9.5
      vertex 121.8 178.2 9.5
    endloop
  endfacet
  facet normal 0 0 1
    outer loop
      vertex 178.2 181.8 9.5
      vertex 181.8 181.8 9.5
      vertex 181.8 238.2 9.5
    endloop
  endfacet
  facet normal 0 0 1
    outer loop
      vertex 181.8 181.8 9.5
      vertex 178.2 181.8 9.5
      vertex 181.8 178.2 9.5
    endloop
  endfacet
  facet normal 0 0 1
    outer loop
      vertex 181.8 178.2 9.5
      vertex 178.2 178.2 9.5
      vertex 181.8 121.8 9.5
    endloop
  endfacet
  facet normal 0 0 1
    outer loop
      vertex 178.2 121.8 9.5
      vertex 181.8 121.8 9.5
      vertex 178.2 178.2 9.5
    endloop
  endfacet
  facet normal 0 0 1
    outer loop
      vertex 178.2 118.2 9.5
      vertex 181.8 118.2 9.5
      vertex 178.2 121.8 9.5
    endloop
  endfacet
  facet normal 0 0 1
    outer loop
      vertex 181.8 118.2 9.5
      vertex 178.2 118.2 9.5
      vertex 181.8 61.8 9.5
    endloop
  endfacet
  facet normal 0 0 1
    outer loop
      vertex 178.2 181.8 9.5
      vertex 181.8 238.2 9.5
      vertex 178.2 238.2 9.5
    endloop
  endfacet
  facet normal 0 0 1
    outer loop
      vertex 181.8 178.2 9.5
      vertex 178.2 181.8 9.5
      vertex 178.2 178.2 9.5
    endloop
  endfacet
  facet normal 0 0 1
    outer loop
      vertex 181.8 121.8 9.5
      vertex 178.2 121.8 9.5
      vertex 181.8 118.2 9.5
    endloop
  endfacet
  facet normal 0 0 1
    outer loop
      vertex 178.2 61.8 9.5
      vertex 181.8 61.8 9.5
      vertex 178.2 118.2 9.5
    endloop
  endfacet
  facet normal 0 0 1
    outer loop
      vertex 181.8 61.8 9.5
      vertex 178.2 61.8 9.5
      vertex 181.8 58.2 9.5
    endloop
  endfacet
  facet normal 0 0 1
    outer loop
      vertex 178.2 58.2 9.5
      vertex 181.8 58.2 9.5
      vertex 178.2 61.8 9.5
    endloop
  endfacet
  facet normal 0 0 1
    outer loop
      vertex 181.8 58.2 9.5
      vertex 178.2 58.2 9.5
      vertex 181.8 1.8 9.5
    endloop
  endfacet
  facet normal 0 0 1
    outer loop
      vertex 181.8 1.8 9.5
      vertex 178.2 58.2 9.5
      vertex 178.2 1.8 9.5
    endloop
  endfacet
  facet normal -0 0 1
    outer loop
      vertex 181.8 181.8 9.5
      vertex 238.2 178.2 9.5
      vertex 238.2 181.8 9.5
    endloop
  endfacet
  facet normal 0 0 1
    outer loop
      vertex 238.2 178.2 9.5
      vertex 181.8 181.8 9.5
      vertex 181.8 178.2 9.5
    endloop
  endfacet
  facet normal -0 0 1
    outer loop
      vertex 181.8 121.8 9.5
      vertex 238.2 118.2 9.5
      vertex 238.2 121.8 9.5
    endloop
  endfacet
  facet normal 0 0 1
    outer loop
      vertex 238.2 118.2 9.5
      vertex 181.8 121.8 9.5
      vertex 181.8 118.2 9.5
    endloop
  endfacet
  facet normal -0 0 1
    outer loop
      vertex 181.8 61.8 9.5
      vertex 238.2 58.2 9.5
      vertex 238.2 61.8 9.5
    endloop
  endfacet
  facet normal 0 0 1
    outer loop
      vertex 238.2 58.2 9.5
      vertex 181.8 61.8 9.5
      vertex 181.8 58.2 9.5
    endloop
  endfacet
  facet normal 0 -1 0
    outer loop
      vertex 0 0 7
      vertex 240 0 120
      vertex 0 0 120
    endloop
  endfacet
  facet normal 0 -1 -0
    outer loop
      vertex 240 0 120
      vertex 0 0 7
      vertex 240 0 7
    endloop
  endfacet
  facet normal -1 0 0
    outer loop
      vertex 0 0 7
      vertex 0 240 120
      vertex 0 240 7
    endloop
  endfacet
  facet normal -1 -0 0
    outer loop
      vertex 0 240 120
      vertex 0 0 7
      vertex 0 0 120
    endloop
  endfacet
  facet normal 0 1 -0
    outer loop
      vertex 240 240 7
      vertex 0 240 120
      vertex 240 240 120
    endloop
  endfacet
  facet normal 0 1 0
    outer loop
      vertex 0 240 120
      vertex 240 240 7
      vertex 0 240 7
    endloop
  endfacet
  facet normal 1 -0 0
    outer loop
      vertex 240 0 120
      vertex 240 240 7
      vertex 240 240 120
    endloop
  endfacet
  facet normal 1 0 0
    outer loop
      vertex 240 240 7
      vertex 240 0 120
      vertex 240 0 7
    endloop
  endfacet
  facet normal -0 0 1
    outer loop
      vertex 107.5 12.5 113
      vertex 135.978 4.5 113
      vertex 132.5 12.5 113
    endloop
  endfacet
  facet normal 0 0 1
    outer loop
      vertex 135.978 4.5 113
      vertex 107.5 12.5 113
      vertex 104.022 4.5 113
    endloop
  endfacet
  facet normal 0 0 1
    outer loop
      vertex 240 240 120
      vertex 239 239 120
      vertex 240 0 120
    endloop
  endfacet
  facet normal 0 0 1
    outer loop
      vertex 240 240 120
      vertex 1 239 120
      vertex 239 239 120
    endloop
  endfacet
  facet normal 0 0 1
    outer loop
      vertex 1 239 120
      vertex 0 240 120
      vertex 1 1 120
    endloop
  endfacet
  facet normal -0 0 1
    outer loop
      vertex 0 240 120
      vertex 1 239 120
      vertex 240 240 120
    endloop
  endfacet
  facet normal -0 0 1
    outer loop
      vertex 239 1 120
      vertex 240 0 120
      vertex 239 239 120
    endloop
  endfacet
  facet normal -0 0 1
    outer loop
      vertex 1 1 120
      vertex 240 0 120
      vertex 239 1 120
    endloop
  endfacet
  facet normal 0 0 1
    outer loop
      vertex 1 1 120
      vertex 0 0 120
      vertex 240 0 120
    endloop
  endfacet
  facet normal 0 0 1
    outer loop
      vertex 0 0 120
      vertex 1 1 120
      vertex 0 240 120
    endloop
  endfacet
  facet normal -0 0.894427 0.447214
    outer loop
      vertex 135.978 4.5 113
      vertex 239 1 120
      vertex 235.5 4.5 113
    endloop
  endfacet
  facet normal 0 0.894427 0.447214
    outer loop
      vertex 239 1 120
      vertex 135.978 4.5 113
      vertex 1 1 120
    endloop
  endfacet
  facet normal -0 0.894427 0.447214
    outer loop
      vertex 104.022 4.5 113
      vertex 1 1 120
      vertex 135.978 4.5 113
    endloop
  endfacet
  facet normal 0 0.894427 0.447214
    outer loop
      vertex 1 1 120
      vertex 104.022 4.5 113
      vertex 4.5 4.5 113
    endloop
  endfacet
  facet normal 0 -0.894427 0.447214
    outer loop
      vertex 4.5 235.5 113
      vertex 239 239 120
      vertex 1 239 120
    endloop
  endfacet
  facet normal 0 -0.894427 0.447214
    outer loop
      vertex 239 239 120
      vertex 4.5 235.5 113
      vertex 235.5 235.5 113
    endloop
  endfacet
  facet normal 0.894427 0 0.447214
    outer loop
      vertex 1 239 120
      vertex 4.5 4.5 113
      vertex 4.5 235.5 113
    endloop
  endfacet
  facet normal 0.894427 0 0.447214
    outer loop
      vertex 4.5 4.5 113
      vertex 1 239 120
      vertex 1 1 120
    endloop
  endfacet
  facet normal -0.894427 0 0.447214
    outer loop
      vertex 235.5 4.5 113
      vertex 239 239 120
      vertex 235.5 235.5 113
    endloop
  endfacet
  facet normal -0.894427 0 0.447214
    outer loop
      vertex 239 239 120
      vertex 235.5 4.5 113
      vertex 239 1 120
    endloop
  endfacet
  facet normal 0 0.99966 -0.0260789
    outer loop
      vertex 235.5 4.5 113
      vertex 130.7 4.2182 102.198
      vertex 135.978 4.5 113
    endloop
  endfacet
  facet normal -8.7632e-08 0.99966 -0.026078
    outer loop
      vertex 235.5 4.5 113
      vertex 181.8 1.8 9.5
      vertex 130.7 4.2182 102.198
    endloop
  endfacet
  facet normal 0 0.99966 -0.0260781
    outer loop
      vertex 181.8 1.8 9.5
      vertex 235.5 4.5 113
      vertex 238.2 1.8 9.5
    endloop
  endfacet
  facet normal 0 0.99966 -0.0260789
    outer loop
      vertex 109.3 4.2182 102.198
      vertex 4.5 4.5 113
      vertex 104.022 4.5 113
    endloop
  endfacet
  facet normal 0 0.99966 -0.026078
    outer loop
      vertex 178.2 1.8 9.5
      vertex 130.7 4.2182 102.198
      vertex 181.8 1.8 9.5
    endloop
  endfacet
  facet normal 0 0.99966 -0.026078
    outer loop
      vertex 121.8 1.8 9.5
      vertex 130.7 4.2182 102.198
      vertex 178.2 1.8 9.5
    endloop
  endfacet
  facet normal 0 0.99966 -0.026078
    outer loop
      vertex 130.7 4.2182 102.198
      vertex 121.8 1.8 9.5
      vertex 109.3 4.2182 102.198
    endloop
  endfacet
  facet normal 0 0.99966 -0.026078
    outer loop
      vertex 118.2 1.8 9.5
      vertex 109.3 4.2182 102.198
      vertex 121.8 1.8 9.5
    endloop
  endfacet
  facet normal 0 0.99966 -0.026078
    outer loop
      vertex 61.8 1.8 9.5
      vertex 109.3 4.2182 102.198
      vertex 118.2 1.8 9.5
    endloop
  endfacet
  facet normal 0 0.99966 -0.026078
    outer loop
      vertex 58.2 1.8 9.5
      vertex 109.3 4.2182 102.198
      vertex 61.8 1.8 9.5
    endloop
  endfacet
  facet normal 8.7632e-08 0.99966 -0.026078
    outer loop
      vertex 109.3 4.2182 102.198
      vertex 58.2 1.8 9.5
      vertex 4.5 4.5 113
    endloop
  endfacet
  facet normal 0 0.99966 -0.0260781
    outer loop
      vertex 4.5 4.5 113
      vertex 58.2 1.8 9.5
      vertex 1.8 1.8 9.5
    endloop
  endfacet
  facet normal -0 -0.99966 -0.0260781
    outer loop
      vertex 58.2 238.2 9.5
      vertex 4.5 235.5 113
      vertex 1.8 238.2 9.5
    endloop
  endfacet
  facet normal -0 -0.99966 -0.0260781
    outer loop
      vertex 61.8 238.2 9.5
      vertex 4.5 235.5 113
      vertex 58.2 238.2 9.5
    endloop
  endfacet
  facet normal -0 -0.99966 -0.0260781
    outer loop
      vertex 118.2 238.2 9.5
      vertex 4.5 235.5 113
      vertex 61.8 238.2 9.5
    endloop
  endfacet
  facet normal 0 -0.99966 -0.0260781
    outer loop
      vertex 4.5 235.5 113
      vertex 118.2 238.2 9.5
      vertex 235.5 235.5 113
    endloop
  endfacet
  facet normal -0 -0.99966 -0.0260781
    outer loop
      vertex 121.8 238.2 9.5
      vertex 235.5 235.5 113
      vertex 118.2 238.2 9.5
    endloop
  endfacet
  facet normal -0 -0.99966 -0.0260781
    outer loop
      vertex 178.2 238.2 9.5
      vertex 235.5 235.5 113
      vertex 121.8 238.2 9.5
    endloop
  endfacet
  facet normal -0 -0.99966 -0.0260781
    outer loop
      vertex 181.8 238.2 9.5
      vertex 235.5 235.5 113
      vertex 178.2 238.2 9.5
    endloop
  endfacet
  facet normal 0 -0.99966 -0.0260781
    outer loop
      vertex 235.5 235.5 113
      vertex 181.8 238.2 9.5
      vertex 238.2 238.2 9.5
    endloop
  endfacet
  facet normal 0.99966 0 -0.0260781
    outer loop
      vertex 4.5 235.5 113
      vertex 1.8 181.8 9.5
      vertex 1.8 238.2 9.5
    endloop
  endfacet
  facet normal 0.99966 0 -0.0260781
    outer loop
      vertex 4.5 235.5 113
      vertex 1.8 178.2 9.5
      vertex 1.8 181.8 9.5
    endloop
  endfacet
  facet normal 0.99966 0 -0.0260781
    outer loop
      vertex 4.5 235.5 113
      vertex 1.8 121.8 9.5
      vertex 1.8 178.2 9.5
    endloop
  endfacet
  facet normal 0.99966 0 -0.0260781
    outer loop
      vertex 4.5 235.5 113
      vertex 1.8 118.2 9.5
      vertex 1.8 121.8 9.5
    endloop
  endfacet
  facet normal 0.99966 0 -0.0260781
    outer loop
      vertex 4.5 4.5 113
      vertex 1.8 118.2 9.5
      vertex 4.5 235.5 113
    endloop
  endfacet
  facet normal 0.99966 0 -0.0260781
    outer loop
      vertex 1.8 118.2 9.5
      vertex 4.5 4.5 113
      vertex 1.8 61.8 9.5
    endloop
  endfacet
  facet normal 0.99966 0 -0.0260781
    outer loop
      vertex 1.8 61.8 9.5
      vertex 4.5 4.5 113
      vertex 1.8 58.2 9.5
    endloop
  endfacet
  facet normal 0.99966 0 -0.0260781
    outer loop
      vertex 1.8 58.2 9.5
      vertex 4.5 4.5 113
      vertex 1.8 1.8 9.5
    endloop
  endfacet
  facet normal -0.99966 0 -0.0260781
    outer loop
      vertex 238.2 181.8 9.5
      vertex 235.5 235.5 113
      vertex 238.2 238.2 9.5
    endloop
  endfacet
  facet normal -0.99966 0 -0.0260781
    outer loop
      vertex 238.2 178.2 9.5
      vertex 235.5 235.5 113
      vertex 238.2 181.8 9.5
    endloop
  endfacet
  facet normal -0.99966 0 -0.0260781
    outer loop
      vertex 238.2 121.8 9.5
      vertex 235.5 235.5 113
      vertex 238.2 178.2 9.5
    endloop
  endfacet
  facet normal -0.99966 0 -0.0260781
    outer loop
      vertex 238.2 118.2 9.5
      vertex 235.5 235.5 113
      vertex 238.2 121.8 9.5
    endloop
  endfacet
  facet normal -0.99966 0 -0.0260781
    outer loop
      vertex 235.5 4.5 113
      vertex 238.2 118.2 9.5
      vertex 238.2 61.8 9.5
    endloop
  endfacet
  facet normal -0.99966 0 -0.0260781
    outer loop
      vertex 235.5 4.5 113
      vertex 238.2 61.8 9.5
      vertex 238.2 58.2 9.5
    endloop
  endfacet
  facet normal -0.99966 0 -0.0260781
    outer loop
      vertex 238.2 118.2 9.5
      vertex 235.5 4.5 113
      vertex 235.5 235.5 113
    endloop
  endfacet
  facet normal -0.99966 0 -0.0260781
    outer loop
      vertex 235.5 4.5 113
      vertex 238.2 58.2 9.5
      vertex 238.2 1.8 9.5
    endloop
  endfacet
  facet normal 0 0.793597 -0.608444
    outer loop
      vertex 130.7 4.2182 102.198
      vertex 107.5 12.5 113
      vertex 132.5 12.5 113
    endloop
  endfacet
  facet normal 0 0.793597 -0.608444
    outer loop
      vertex 107.5 12.5 113
      vertex 130.7 4.2182 102.198
      vertex 109.3 4.2182 102.198
    endloop
  endfacet
  facet normal 0.833634 0.362422 -0.416779
    outer loop
      vertex 135.978 4.5 113
      vertex 130.7 4.2182 102.198
      vertex 132.5 12.5 113
    endloop
  endfacet
  facet normal -0.833634 0.362422 -0.416779
    outer loop
      vertex 109.3 4.2182 102.198
      vertex 104.022 4.5 113
      vertex 107.5 12.5 113
    endloop
  endfacet
endsolid OpenSCAD_Model
