solid OpenSCAD_Model
  facet normal -0 0 1
    outer loop
      vertex 17.5 12.5 99
      vertex 45.9783 4.5 99
      vertex 42.5 12.5 99
    endloop
  endfacet
  facet normal 0 0 1
    outer loop
      vertex 45.9783 4.5 99
      vertex 17.5 12.5 99
      vertex 14.0217 4.5 99
    endloop
  endfacet
  facet normal 0 0 1
    outer loop
      vertex 60 60 106
      vertex 59 59 106
      vertex 60 0 106
    endloop
  endfacet
  facet normal 0 0 1
    outer loop
      vertex 60 60 106
      vertex 1 59 106
      vertex 59 59 106
    endloop
  endfacet
  facet normal 0 0 1
    outer loop
      vertex 1 59 106
      vertex 0 60 106
      vertex 1 1 106
    endloop
  endfacet
  facet normal -0 0 1
    outer loop
      vertex 0 60 106
      vertex 1 59 106
      vertex 60 60 106
    endloop
  endfacet
  facet normal -0 0 1
    outer loop
      vertex 59 1 106
      vertex 60 0 106
      vertex 59 59 106
    endloop
  endfacet
  facet normal -0 0 1
    outer loop
      vertex 1 1 106
      vertex 60 0 106
      vertex 59 1 106
    endloop
  endfacet
  facet normal 0 0 1
    outer loop
      vertex 1 1 106
      vertex 0 0 106
      vertex 60 0 106
    endloop
  endfacet
  facet normal 0 0 1
    outer loop
      vertex 0 0 106
      vertex 1 1 106
      vertex 0 60 106
    endloop
  endfacet
  facet normal 0 1 -0
    outer loop
      vertex 60 60 7
      vertex 0 60 106
      vertex 60 60 106
    endloop
  endfacet
  facet normal 0 1 0
    outer loop
      vertex 0 60 106
      vertex 60 60 7
      vertex 0 60 7
    endloop
  endfacet
  facet normal -1 0 0
    outer loop
      vertex 0 0 7
      vertex 0 60 106
      vertex 0 60 7
    endloop
  endfacet
  facet normal -1 -0 0
    outer loop
      vertex 0 60 106
      vertex 0 0 7
      vertex 0 0 106
    endloop
  endfacet
  facet normal 0 -1 0
    outer loop
      vertex 0 0 7
      vertex 60 0 106
      vertex 0 0 106
    endloop
  endfacet
  facet normal 0 -1 -0
    outer loop
      vertex 60 0 106
      vertex 0 0 7
      vertex 60 0 7
    endloop
  endfacet
  facet normal 1 -0 0
    outer loop
      vertex 60 0 106
      vertex 60 60 7
      vertex 60 60 106
    endloop
  endfacet
  facet normal 1 0 0
    outer loop
      vertex 60 60 7
      vertex 60 0 106
      vertex 60 0 7
    endloop
  endfacet
  facet normal -0 0.894427 0.447214
    outer loop
      vertex 45.9783 4.5 99
      vertex 59 1 106
      vertex 55.5 4.5 99
    endloop
  endfacet
  facet normal 0 0.894427 0.447214
    outer loop
      vertex 59 1 106
      vertex 45.9783 4.5 99
      vertex 1 1 106
    endloop
  endfacet
  facet normal -0 0.894427 0.447214
    outer loop
      vertex 14.0217 4.5 99
      vertex 1 1 106
      vertex 45.9783 4.5 99
    endloop
  endfacet
  facet normal 0 0.894427 0.447214
    outer loop
      vertex 1 1 106
      vertex 14.0217 4.5 99
      vertex 4.5 4.5 99
    endloop
  endfacet
  facet normal 0 -0.894427 0.447214
    outer loop
      vertex 4.5 55.5 99
      vertex 59 59 106
      vertex 1 59 106
    endloop
  endfacet
  facet normal 0 -0.894427 0.447214
    outer loop
      vertex 59 59 106
      vertex 4.5 55.5 99
      vertex 55.5 55.5 99
    endloop
  endfacet
  facet normal 0.894427 0 0.447214
    outer loop
      vertex 1 59 106
      vertex 4.5 4.5 99
      vertex 4.5 55.5 99
    endloop
  endfacet
  facet normal 0.894427 0 0.447214
    outer loop
      vertex 4.5 4.5 99
      vertex 1 59 106
      vertex 1 1 106
    endloop
  endfacet
  facet normal -0.894427 0 0.447214
    outer loop
      vertex 55.5 4.5 99
      vertex 59 59 106
      vertex 55.5 55.5 99
    endloop
  endfacet
  facet normal -0.894427 0 0.447214
    outer loop
      vertex 59 59 106
      vertex 55.5 4.5 99
      vertex 59 1 106
    endloop
  endfacet
  facet normal 0 0 -1
    outer loop
      vertex 4.65 4.65 0
      vertex 55.35 55.35 0
      vertex 55.35 4.65 0
    endloop
  endfacet
  facet normal -0 0 -1
    outer loop
      vertex 55.35 55.35 0
      vertex 4.65 4.65 0
      vertex 4.65 55.35 0
    endloop
  endfacet
  facet normal -0 0 1
    outer loop
      vertex 5.85 54.15 1.5
      vertex 54.15 5.85 1.5
      vertex 54.15 54.15 1.5
    endloop
  endfacet
  facet normal 0 0 1
    outer loop
      vertex 54.15 5.85 1.5
      vertex 5.85 54.15 1.5
      vertex 5.85 5.85 1.5
    endloop
  endfacet
  facet normal 0 0 -1
    outer loop
      vertex 60 0 7
      vertex 58.85 1.15 7
      vertex 60 60 7
    endloop
  endfacet
  facet normal 0 0 -1
    outer loop
      vertex 60 0 7
      vertex 1.15 1.15 7
      vertex 58.85 1.15 7
    endloop
  endfacet
  facet normal -0 0 -1
    outer loop
      vertex 1.15 1.15 7
      vertex 0 0 7
      vertex 1.15 58.85 7
    endloop
  endfacet
  facet normal 0 0 -1
    outer loop
      vertex 0 0 7
      vertex 1.15 1.15 7
      vertex 60 0 7
    endloop
  endfacet
  facet normal 0 0 -1
    outer loop
      vertex 58.85 58.85 7
      vertex 60 60 7
      vertex 58.85 1.15 7
    endloop
  endfacet
  facet normal 0 0 -1
    outer loop
      vertex 1.15 58.85 7
      vertex 60 60 7
      vertex 58.85 58.85 7
    endloop
  endfacet
  facet normal 0 0 -1
    outer loop
      vertex 1.15 58.85 7
      vertex 0 60 7
      vertex 60 60 7
    endloop
  endfacet
  facet normal 0 0 -1
    outer loop
      vertex 0 60 7
      vertex 1.15 58.85 7
      vertex 0 0 7
    endloop
  endfacet
  facet normal 0 -0.894427 -0.447214
    outer loop
      vertex 4.65 4.65 0
      vertex 58.85 1.15 7
      vertex 1.15 1.15 7
    endloop
  endfacet
  facet normal 0 -0.894427 -0.447214
    outer loop
      vertex 58.85 1.15 7
      vertex 4.65 4.65 0
      vertex 55.35 4.65 0
    endloop
  endfacet
  facet normal 0 0.894427 -0.447214
    outer loop
      vertex 55.35 55.35 0
      vertex 1.15 58.85 7
      vertex 58.85 58.85 7
    endloop
  endfacet
  facet normal 0 0.894427 -0.447214
    outer loop
      vertex 1.15 58.85 7
      vertex 55.35 55.35 0
      vertex 4.65 55.35 0
    endloop
  endfacet
  facet normal -0.894427 0 -0.447214
    outer loop
      vertex 4.65 4.65 0
      vertex 1.15 58.85 7
      vertex 4.65 55.35 0
    endloop
  endfacet
  facet normal -0.894427 -0 -0.447214
    outer loop
      vertex 1.15 58.85 7
      vertex 4.65 4.65 0
      vertex 1.15 1.15 7
    endloop
  endfacet
  facet normal 0.894427 0 -0.447214
    outer loop
      vertex 58.85 58.85 7
      vertex 55.35 4.65 0
      vertex 55.35 55.35 0
    endloop
  endfacet
  facet normal 0.894427 0 -0.447214
    outer loop
      vertex 55.35 4.65 0
      vertex 58.85 58.85 7
      vertex 58.85 1.15 7
    endloop
  endfacet
  facet normal 0 0.894427 0.447214
    outer loop
      vertex 54.15 5.85 1.5
      vertex 1.85 1.85 9.5
      vertex 58.15 1.85 9.5
    endloop
  endfacet
  facet normal 0 0.894427 0.447214
    outer loop
      vertex 1.85 1.85 9.5
      vertex 54.15 5.85 1.5
      vertex 5.85 5.85 1.5
    endloop
  endfacet
  facet normal 0 -0.894427 0.447214
    outer loop
      vertex 5.85 54.15 1.5
      vertex 58.15 58.15 9.5
      vertex 1.85 58.15 9.5
    endloop
  endfacet
  facet normal 0 -0.894427 0.447214
    outer loop
      vertex 58.15 58.15 9.5
      vertex 5.85 54.15 1.5
      vertex 54.15 54.15 1.5
    endloop
  endfacet
  facet normal 0.894427 0 0.447214
    outer loop
      vertex 1.85 58.15 9.5
      vertex 5.85 5.85 1.5
      vertex 5.85 54.15 1.5
    endloop
  endfacet
  facet normal 0.894427 0 0.447214
    outer loop
      vertex 5.85 5.85 1.5
      vertex 1.85 58.15 9.5
      vertex 1.85 1.85 9.5
    endloop
  endfacet
  facet normal -0.894427 0 0.447214
    outer loop
      vertex 54.15 5.85 1.5
      vertex 58.15 58.15 9.5
      vertex 54.15 54.15 1.5
    endloop
  endfacet
  facet normal -0.894427 0 0.447214
    outer loop
      vertex 58.15 58.15 9.5
      vertex 54.15 5.85 1.5
      vertex 58.15 1.85 9.5
    endloop
  endfacet
  facet normal 0 0.999562 -0.0295955
    outer loop
      vertex 55.5 4.5 99
      vertex 40.691 4.17863 88.146
      vertex 45.9783 4.5 99
    endloop
  endfacet
  facet normal 0 0.999562 -0.029596
    outer loop
      vertex 40.691 4.17863 88.146
      vertex 58.15 1.85 9.5
      vertex 19.309 4.17863 88.146
    endloop
  endfacet
  facet normal 3.57996e-07 0.999562 -0.029596
    outer loop
      vertex 58.15 1.85 9.5
      vertex 40.691 4.17863 88.146
      vertex 55.5 4.5 99
    endloop
  endfacet
  facet normal 0 0.999562 -0.0295955
    outer loop
      vertex 19.309 4.17863 88.146
      vertex 4.5 4.5 99
      vertex 14.0217 4.5 99
    endloop
  endfacet
  facet normal 0 0.999562 -0.029596
    outer loop
      vertex 1.85 1.85 9.5
      vertex 19.309 4.17863 88.146
      vertex 58.15 1.85 9.5
    endloop
  endfacet
  facet normal -3.57996e-07 0.999562 -0.029596
    outer loop
      vertex 19.309 4.17863 88.146
      vertex 1.85 1.85 9.5
      vertex 4.5 4.5 99
    endloop
  endfacet
  facet normal 0 -0.999562 -0.029596
    outer loop
      vertex 1.85 58.15 9.5
      vertex 55.5 55.5 99
      vertex 4.5 55.5 99
    endloop
  endfacet
  facet normal 0 -0.999562 -0.029596
    outer loop
      vertex 55.5 55.5 99
      vertex 1.85 58.15 9.5
      vertex 58.15 58.15 9.5
    endloop
  endfacet
  facet normal 0.999562 0 -0.029596
    outer loop
      vertex 4.5 4.5 99
      vertex 1.85 58.15 9.5
      vertex 4.5 55.5 99
    endloop
  endfacet
  facet normal 0.999562 0 -0.029596
    outer loop
      vertex 1.85 58.15 9.5
      vertex 4.5 4.5 99
      vertex 1.85 1.85 9.5
    endloop
  endfacet
  facet normal -0.999562 0 -0.029596
    outer loop
      vertex 58.15 58.15 9.5
      vertex 55.5 4.5 99
      vertex 55.5 55.5 99
    endloop
  endfacet
  facet normal -0.999562 0 -0.029596
    outer loop
      vertex 55.5 4.5 99
      vertex 58.15 58.15 9.5
      vertex 58.15 1.85 9.5
    endloop
  endfacet
  facet normal 0 0.793607 -0.60843
    outer loop
      vertex 40.691 4.17863 88.146
      vertex 17.5 12.5 99
      vertex 42.5 12.5 99
    endloop
  endfacet
  facet normal 0 0.793607 -0.60843
    outer loop
      vertex 17.5 12.5 99
      vertex 40.691 4.17863 88.146
      vertex 19.309 4.17863 88.146
    endloop
  endfacet
  facet normal 0.83361 0.362443 -0.416807
    outer loop
      vertex 45.9783 4.5 99
      vertex 40.691 4.17863 88.146
      vertex 42.5 12.5 99
    endloop
  endfacet
  facet normal -0.83361 0.362443 -0.416807
    outer loop
      vertex 19.309 4.17863 88.146
      vertex 14.0217 4.5 99
      vertex 17.5 12.5 99
    endloop
  endfacet
endsolid OpenSCAD_Model
