solid OpenSCAD_Model
  facet normal 0 0 -1
    outer loop
      vertex 56.5 3.5 0
      vertex 55.5 4.5 0
      vertex 56.5 56.5 0
    endloop
  endfacet
  facet normal 0 0 -1
    outer loop
      vertex 56.5 3.5 0
      vertex 4.5 4.5 0
      vertex 55.5 4.5 0
    endloop
  endfacet
  facet normal -0 0 -1
    outer loop
      vertex 4.5 4.5 0
      vertex 3.5 3.5 0
      vertex 4.5 55.5 0
    endloop
  endfacet
  facet normal 0 0 -1
    outer loop
      vertex 3.5 3.5 0
      vertex 4.5 4.5 0
      vertex 56.5 3.5 0
    endloop
  endfacet
  facet normal 0 0 -1
    outer loop
      vertex 55.5 55.5 0
      vertex 56.5 56.5 0
      vertex 55.5 4.5 0
    endloop
  endfacet
  facet normal 0 0 -1
    outer loop
      vertex 4.5 55.5 0
      vertex 56.5 56.5 0
      vertex 55.5 55.5 0
    endloop
  endfacet
  facet normal 0 0 -1
    outer loop
      vertex 4.5 55.5 0
      vertex 3.5 56.5 0
      vertex 56.5 56.5 0
    endloop
  endfacet
  facet normal 0 0 -1
    outer loop
      vertex 3.5 56.5 0
      vertex 4.5 55.5 0
      vertex 3.5 3.5 0
    endloop
  endfacet
  facet normal 0 0 1
    outer loop
      vertex 60 60 7
      vertex 59 59 7
      vertex 60 0 7
    endloop
  endfacet
  facet normal 0 0 1
    outer loop
      vertex 60 60 7
      vertex 1 59 7
      vertex 59 59 7
    endloop
  endfacet
  facet normal 0 0 1
    outer loop
      vertex 1 59 7
      vertex 0 60 7
      vertex 1 1 7
    endloop
  endfacet
  facet normal -0 0 1
    outer loop
      vertex 0 60 7
      vertex 1 59 7
      vertex 60 60 7
    endloop
  endfacet
  facet normal -0 0 1
    outer loop
      vertex 59 1 7
      vertex 60 0 7
      vertex 59 59 7
    endloop
  endfacet
  facet normal -0 0 1
    outer loop
      vertex 1 1 7
      vertex 60 0 7
      vertex 59 1 7
    endloop
  endfacet
  facet normal 0 0 1
    outer loop
      vertex 1 1 7
      vertex 0 0 7
      vertex 60 0 7
    endloop
  endfacet
  facet normal 0 0 1
    outer loop
      vertex 0 0 7
      vertex 1 1 7
      vertex 0 60 7
    endloop
  endfacet
  facet normal 0 1 -0
    outer loop
      vertex 60 60 3.5
      vertex 0 60 7
      vertex 60 60 7
    endloop
  endfacet
  facet normal 0 1 0
    outer loop
      vertex 0 60 7
      vertex 60 60 3.5
      vertex 0 60 3.5
    endloop
  endfacet
  facet normal -1 0 0
    outer loop
      vertex 0 0 3.5
      vertex 0 60 7
      vertex 0 60 3.5
    endloop
  endfacet
  facet normal -1 -0 0
    outer loop
      vertex 0 60 7
      vertex 0 0 3.5
      vertex 0 0 7
    endloop
  endfacet
  facet normal 0 -1 0
    outer loop
      vertex 0 0 3.5
      vertex 60 0 7
      vertex 0 0 7
    endloop
  endfacet
  facet normal 0 -1 -0
    outer loop
      vertex 60 0 7
      vertex 0 0 3.5
      vertex 60 0 3.5
    endloop
  endfacet
  facet normal 1 -0 0
    outer loop
      vertex 60 0 7
      vertex 60 60 3.5
      vertex 60 60 7
    endloop
  endfacet
  facet normal 1 0 0
    outer loop
      vertex 60 60 3.5
      vertex 60 0 7
      vertex 60 0 3.5
    endloop
  endfacet
  facet normal 0 0.894427 0.447214
    outer loop
      vertex 55.5 4.5 0
      vertex 1 1 7
      vertex 59 1 7
    endloop
  endfacet
  facet normal 0 0.894427 0.447214
    outer loop
      vertex 1 1 7
      vertex 55.5 4.5 0
      vertex 4.5 4.5 0
    endloop
  endfacet
  facet normal 0 -0.894427 0.447214
    outer loop
      vertex 4.5 55.5 0
      vertex 59 59 7
      vertex 1 59 7
    endloop
  endfacet
  facet normal 0 -0.894427 0.447214
    outer loop
      vertex 59 59 7
      vertex 4.5 55.5 0
      vertex 55.5 55.5 0
    endloop
  endfacet
  facet normal 0.894427 0 0.447214
    outer loop
      vertex 1 59 7
      vertex 4.5 4.5 0
      vertex 4.5 55.5 0
    endloop
  endfacet
  facet normal 0.894427 0 0.447214
    outer loop
      vertex 4.5 4.5 0
      vertex 1 59 7
      vertex 1 1 7
    endloop
  endfacet
  facet normal -0.894427 0 0.447214
    outer loop
      vertex 55.5 4.5 0
      vertex 59 59 7
      vertex 55.5 55.5 0
    endloop
  endfacet
  facet normal -0.894427 0 0.447214
    outer loop
      vertex 59 59 7
      vertex 55.5 4.5 0
      vertex 59 1 7
    endloop
  endfacet
  facet normal 0 -0.707107 -0.707107
    outer loop
      vertex 3.5 3.5 0
      vertex 60 0 3.5
      vertex 0 0 3.5
    endloop
  endfacet
  facet normal 0 -0.707107 -0.707107
    outer loop
      vertex 60 0 3.5
      vertex 3.5 3.5 0
      vertex 56.5 3.5 0
    endloop
  endfacet
  facet normal -0.707107 0 -0.707107
    outer loop
      vertex 3.5 3.5 0
      vertex 0 60 3.5
      vertex 3.5 56.5 0
    endloop
  endfacet
  facet normal -0.707107 -0 -0.707107
    outer loop
      vertex 0 60 3.5
      vertex 3.5 3.5 0
      vertex 0 0 3.5
    endloop
  endfacet
  facet normal 0 0.707107 -0.707107
    outer loop
      vertex 56.5 56.5 0
      vertex 0 60 3.5
      vertex 60 60 3.5
    endloop
  endfacet
  facet normal 0 0.707107 -0.707107
    outer loop
      vertex 0 60 3.5
      vertex 56.5 56.5 0
      vertex 3.5 56.5 0
    endloop
  endfacet
  facet normal 0.707107 0 -0.707107
    outer loop
      vertex 60 60 3.5
      vertex 56.5 3.5 0
      vertex 56.5 56.5 0
    endloop
  endfacet
  facet normal 0.707107 0 -0.707107
    outer loop
      vertex 56.5 3.5 0
      vertex 60 60 3.5
      vertex 60 0 3.5
    endloop
  endfacet
endsolid OpenSCAD_Model
